<svg width="120" height="51" viewBox="0 0 120 51" fill="none" xmlns="http://www.w3.org/2000/svg">
<mask id="mask0_712_1731" style="mask-type:alpha" maskUnits="userSpaceOnUse" x="0" y="0" width="52" height="51">
<path fill-rule="evenodd" clip-rule="evenodd" d="M0 0V51H51.3462V20.4382V17.2865L51.3458 17.2863V15.0932H48.4612V12.2247H45.5766V9.3562H42.692V6.48768H39.8074L39.8073 0H36.6346H34.2308H34.0381H0Z" fill="#C4C4C4"/>
</mask>
<g mask="url(#mask0_712_1731)">
<path d="M67.1341 29.1588C67.1016 27.1126 66.527 25.0664 66.4113 23.0237C66.3927 21.9411 66.2948 20.8613 66.1186 19.7928C65.8656 18.5723 65.262 17.3158 65.3523 16.045C65.4174 15.1547 65.9089 14.3542 66.0752 13.489C66.1942 12.6742 66.0777 11.8425 65.7391 11.091C65.0487 9.29605 63.5344 7.80983 62.0706 6.62158C61.6229 6.25634 61.1992 5.86304 60.802 5.4441L60.596 5.67745C60.4259 5.58838 60.2315 5.556 60.0415 5.58509C59.8514 5.61418 59.6758 5.70319 59.5406 5.83899C59.3346 6.04003 58.7238 5.93592 58.4311 6.01849C57.9886 6.18613 57.5667 6.4029 57.1733 6.66467C56.1697 7.27665 55.25 8.01512 54.4373 8.86167C53.5482 9.71606 52.6302 10.5381 51.6833 11.3315C51.3096 11.6294 50.9035 11.8847 50.4725 12.0926C50.2862 12.1608 50.0938 12.2113 49.8978 12.2433C51.4989 10.2079 53.0567 8.21549 54.0361 5.78155C54.6108 4.3456 55.0228 2.88452 55.6553 1.4737C56.1035 0.457767 56.3167 -0.633554 56.7396 -1.63154C56.7854 -1.71545 56.804 -1.81138 56.7928 -1.90619C56.7817 -2.001 56.7413 -2.09006 56.6772 -2.16119C56.6131 -2.23232 56.5284 -2.28204 56.4348 -2.30354C56.3411 -2.32504 56.2431 -2.31728 56.1541 -2.28131C55.8987 -2.87962 55.6493 -3.47793 55.4059 -4.07625C53.7759 -8.02511 48.1485 -8.18307 44.856 -8.28717C42.0007 -8.37692 39.3732 -8.62462 37.2335 -10.7211C35.9324 -11.9955 34.2301 -13.3094 32.2892 -13.1694C29.828 -12.9971 27.9124 -11.4714 25.7836 -10.4016C24.4753 -9.74107 23.0657 -9.52568 21.7068 -9.01951L21.2333 -8.82924C21.1141 -8.94844 20.9566 -9.02234 20.7882 -9.03808C20.6198 -9.05382 20.4512 -9.01041 20.3117 -8.9154C19.3539 -8.34461 18.2046 -8.30871 17.1564 -7.97126C15.9493 -7.58356 14.7168 -7.22816 13.5241 -6.79378C11.7676 -6.14761 10.4086 -4.99884 9.10028 -3.69572C8.3955 -2.97774 7.57508 -2.36747 6.91367 -1.63872C6.15468 -0.80228 5.69928 0.156217 4.74512 0.834703C2.84937 2.15753 0.814683 3.27213 -1.32319 4.15893C-3.32186 4.99896 -5.41451 5.77078 -6.3506 7.87445C-6.71202 8.68576 -7.1891 9.41092 -7.57944 10.2079C-8.12936 11.4413 -8.58366 12.7146 -8.93839 14.0167C-9.29981 15.2229 -9.58534 16.4507 -9.9287 17.6605C-10.2504 18.7877 -10.6335 19.8718 -10.5648 21.0601C-10.5034 22.0832 -10.1166 22.7796 -9.73352 23.6843C-9.18777 24.9659 -9.49137 26.2798 -9.83472 27.5613C-10.8865 31.4923 -12.0575 36.5181 -10.0949 40.2982C-9.50944 41.4254 -8.85165 42.5527 -8.78659 43.8522C-8.72877 45.0045 -8.95646 46.1354 -8.76852 47.2841C-8.40709 49.4201 -7.32283 50.9781 -5.54824 52.2058C-3.58209 53.5808 -1.55449 54.8085 0.176729 56.4598C0.84175 57.0953 1.28268 57.8491 2.03083 58.4199C2.96691 59.1379 3.89216 60.0964 4.92222 60.678C6.95704 61.8375 9.09306 62.7278 11.1929 63.7473C12.1507 64.2104 13.1049 64.6699 14.0843 65.1186C15.0638 65.5674 15.8481 66.35 16.8022 66.8813C17.9227 67.5059 18.9997 67.9582 20.2936 67.6387C21.4285 67.3659 22.4621 66.7951 23.644 66.6264C24.1707 66.5583 24.704 66.5583 25.2306 66.6264C25.2306 66.5115 25.2632 66.393 25.2776 66.2674C25.4254 66.2519 25.5663 66.1971 25.6853 66.1086C25.8043 66.0201 25.8969 65.9013 25.9535 65.7648C26.6471 64.004 27.1994 62.1914 27.6052 60.3441C27.9413 58.962 28.1509 57.5763 28.5196 56.205C28.6447 57.2379 28.8416 58.2611 29.1087 59.2671C29.7484 61.518 28.9822 64.4581 30.8291 66.2746C30.8969 66.3434 30.9749 66.4015 31.0604 66.4469C31.0821 66.5582 31.1002 66.6695 31.1219 66.7807H31.1508C32.5206 66.5294 33.7458 65.8869 34.9674 65.2335C35.0087 65.2866 35.056 65.3347 35.1084 65.3771C35.1517 65.4166 35.2276 65.3771 35.1915 65.3125C35.1602 65.263 35.1325 65.2114 35.1084 65.1581C35.9055 64.7089 36.7313 64.312 37.5805 63.9699C38.7407 63.5319 40.0779 63.1227 41.1261 62.4478C41.7622 62.0421 42.5898 60.6959 43.3452 60.6349C43.5339 60.6204 43.7174 60.5666 43.8837 60.4769L44.1729 60.4051C46.2438 59.8164 46.7571 57.8348 48.2172 56.5568C49.746 55.2213 51.6074 54.2521 53.1434 52.8987C54.7767 51.3971 56.0257 49.5302 56.7866 47.4529C56.9275 47.0939 57.0323 46.48 57.2817 46.1605C57.2275 46.279 58.0046 45.7728 58.0046 45.78C58.6045 45.3312 58.9407 44.6851 59.5334 44.2076C60.2562 43.6153 60.802 42.9009 61.6224 42.4306C62.6886 41.8203 63.791 41.3931 64.8355 40.6931C66.3896 39.6341 67.3149 37.7602 67.604 35.9329C67.7342 34.9969 67.7196 34.0466 67.5606 33.1149C67.3332 31.8067 67.1907 30.4852 67.1341 29.1588ZM56.3709 10.1038C56.7539 10.448 57.108 10.8226 57.4299 11.2238C58.3696 12.4228 58.6877 13.8839 58.8431 15.3916C58.9624 16.5727 58.1853 18.3174 58.2287 19.6744C57.7445 21.4308 57.6863 23.2761 58.0588 25.0592C57.6974 26.1362 57.7516 27.4752 57.5094 28.5414C57.4552 28.7711 57.3902 29.0009 57.3215 29.2306C57.0287 28.6024 56.7215 27.9813 56.436 27.3531C56.6565 26.4628 56.895 25.5761 57.1841 24.7182C57.242 24.5494 56.9709 24.474 56.9167 24.6428C56.6601 25.4074 56.4541 26.1864 56.2625 26.969C56.0248 26.4438 55.8173 25.9057 55.6409 25.3572C54.9686 23.2391 55.5867 21.4083 55.8758 19.3046C55.8843 19.2425 55.878 19.1792 55.8573 19.1199C55.8365 19.0607 55.802 19.0071 55.7565 18.9636C56.0425 18.1793 56.2141 17.3585 56.2661 16.5261C56.2661 15.6681 56.4577 14.566 56.2119 13.7547C55.9661 12.9434 55.1674 12.071 54.5927 11.4069C55.1819 10.9546 55.771 10.5202 56.3709 10.1038ZM51.6724 41.1382C51.6435 40.9444 51.3435 41.027 51.3724 41.2208C51.3941 41.3501 51.4122 41.4793 51.4339 41.6085C51.3616 41.6767 51.2857 41.7413 51.217 41.8131C50.6713 42.366 50.1328 42.9511 49.6015 43.5578C49.5168 42.6169 49.2269 41.7055 48.7521 40.887C49.5381 40.0978 50.431 39.4211 51.405 38.8766C52.6698 38.2029 53.8784 37.4298 55.0192 36.5647C56.8516 35.1108 58.7274 32.4292 57.7154 30.0455C57.6504 29.8912 57.5817 29.7404 57.513 29.5896C57.5709 29.4065 57.6251 29.2306 57.6757 29.0368C57.8694 28.2884 58.0131 27.528 58.1058 26.7608C58.1564 26.4018 58.1817 26.0428 58.2359 25.6838C58.3262 25.9926 58.4311 26.3085 58.5539 26.628C59.0636 27.9634 59.678 29.245 60.1984 30.5768C60.9791 32.5549 59.6129 34.2924 58.6479 35.9293C57.1697 38.4423 53.9169 39.4725 51.7122 41.3859L51.6724 41.1382ZM45.568 49.395C45.5065 48.4903 45.4595 47.6 45.3583 46.6774C45.3114 46.2431 45.2427 45.8087 45.1704 45.3779C45.6477 44.5887 46.1842 43.8363 46.7751 43.127C46.8863 43.1575 47.0037 43.1575 47.1149 43.127C47.2968 43.916 47.389 44.7228 47.3896 45.5323C47.3896 45.8015 47.4293 46.0671 47.4474 46.3328C46.9925 46.9857 46.5738 47.6628 46.1932 48.3611C45.9836 48.7057 45.774 49.0539 45.5535 49.3842L45.568 49.395ZM37.6745 53.9074C37.7793 54.288 37.8733 54.6721 37.9672 55.0598C37.2444 55.5301 36.5215 55.9573 35.7987 56.4168C35.7228 56.0075 35.6469 55.5983 35.5601 55.189C35.4915 54.8767 35.4084 54.568 35.3252 54.2628C35.8421 53.9254 36.348 53.5772 36.8396 53.2864C37.9528 52.633 38.8925 51.8002 39.9984 51.1325L40.7863 50.6335C40.9598 51.4017 41.108 52.1699 41.2309 52.9454C40.4034 53.3463 39.6177 53.8273 38.8852 54.3813C38.6467 54.5716 38.4045 54.7403 38.1624 54.9162C38.0757 54.5572 37.9853 54.1982 37.8877 53.8392C37.8762 53.8138 37.856 53.7933 37.8308 53.7812C37.8055 53.7691 37.7768 53.7662 37.7496 53.773C37.7224 53.7799 37.6985 53.7961 37.6822 53.8187C37.6658 53.8413 37.6579 53.8689 37.66 53.8967L37.6745 53.9074ZM35.8674 58.1471C36.0336 58.9656 36.2288 59.7697 36.4131 60.5846C36.4456 60.7318 36.4673 60.8826 36.4962 61.0298C35.7734 61.2882 35.0722 61.5575 34.3783 61.8734C34.2807 61.3744 34.1723 60.8754 34.0458 60.38C33.9373 59.96 33.8398 59.54 33.7458 59.1199C33.9012 59.0805 34.0566 59.041 34.2084 58.9871C34.785 58.7613 35.3361 58.4762 35.8529 58.1363L35.8674 58.1471ZM35.43 56.6681C34.8337 57.0665 34.3458 57.5583 33.7024 57.8635C33.6374 57.8958 33.5687 57.9209 33.4964 57.9496C33.3229 57.0917 33.135 56.2337 32.9723 55.3757C33.1559 55.3376 33.3369 55.2885 33.5145 55.2285C34.0745 55.0134 34.6091 54.7377 35.1084 54.4064L35.1301 54.4818C35.3108 55.1711 35.4445 55.8711 35.571 56.5747L35.43 56.6681ZM41.061 50.4971C41.8716 50.0411 42.6037 49.4593 43.2296 48.7739C43.3308 49.5422 43.4139 50.314 43.5693 51.0678C43.5982 51.215 43.6307 51.3586 43.6633 51.5058C43.4396 51.6863 43.2068 51.8552 42.9657 52.012C42.4995 52.3135 42.0116 52.572 41.52 52.8269C41.3718 52.0335 41.2237 51.2581 41.0466 50.4863L41.061 50.4971ZM43.8331 50.9925C43.6597 50.1632 43.5729 49.3196 43.45 48.4795C44.0898 47.618 44.4801 46.6379 44.9897 45.6974C45.0367 46.0205 45.0837 46.3472 45.1198 46.6738C45.2282 47.6862 45.2644 48.7093 45.333 49.7252C44.9151 50.3051 44.4298 50.834 43.8874 51.3012C43.8657 51.1899 43.8404 51.0858 43.8187 50.9925H43.8331ZM47.5486 44.2866C47.5051 43.8571 47.4253 43.432 47.31 43.0158C47.3709 42.9723 47.4188 42.9134 47.4487 42.8451C47.4786 42.7769 47.4894 42.7019 47.4799 42.6281C47.4799 42.5275 47.451 42.4342 47.4329 42.3445L47.6787 42.0608C44.0645 40.1259 40.0454 38.471 36.7637 36.0693C36.7384 36.1232 36.7131 36.1806 36.6914 36.2345L36.489 36.1699C36.2215 36.0909 35.9577 36.2058 35.7047 36.0191C35.5529 35.9078 35.3433 36.1591 35.5023 36.2847C35.807 36.5328 36.1323 36.755 36.4745 36.9489C36.2685 37.8499 36.2215 38.7976 35.7915 39.6341C35.6613 39.889 35.4734 40.2264 35.3288 40.4669C34.5482 41.7521 34.3024 41.587 33.0772 41.9567C32.6954 42.0318 32.3387 42.2009 32.0399 42.4486C31.1869 43.1414 30.8219 43.626 29.7123 44.0532C28.2232 44.6276 27.2149 45.6471 25.5487 45.0333C24.8584 44.7784 24.0488 44.6133 23.3801 44.3153C22.4549 43.8809 21.8369 43.0373 20.9767 42.4773C20.9935 42.025 21.0188 41.5762 21.0526 41.1311C21.5402 41.3831 22.0465 41.5979 22.5669 41.7737C23.1127 41.9711 23.6512 42.0716 24.2223 42.2332C24.7933 42.3947 25.4258 42.9152 26.0294 42.9727C26.29 42.9792 26.5492 42.9341 26.792 42.8399C27.5142 42.6982 28.2219 42.4916 28.9063 42.2224C29.6798 41.8634 29.9328 41.2101 30.4966 40.607C31.1508 39.889 32.1411 39.6126 32.5639 38.6864C33.0302 37.6704 32.5639 36.1986 33.5 35.3873C33.9735 34.9816 34.671 34.8165 35.159 34.3821C35.9975 33.6354 36.3734 32.9677 37.4251 32.4077C38.458 31.8621 39.3943 31.1527 40.1972 30.3076C41.0755 29.4388 41.2815 28.8429 41.4116 27.6367C41.502 26.7716 41.9284 26.1003 42.0585 25.2638C42.1139 24.8567 42.1453 24.4468 42.1525 24.0361C42.5826 23.3612 42.4742 22.6181 42.3224 21.8103C42.1091 20.6903 42.1525 19.1933 41.3249 18.2923C41.0879 18.0503 40.7987 17.865 40.4791 17.7502C40.0671 17.5815 39.7057 17.4199 39.3551 17.2476C39.3551 16.2173 39.3551 15.1834 39.3732 14.1531C39.3732 14.1531 39.3732 14.1531 39.3732 14.1316C39.6169 14.0239 39.8846 13.9806 40.1502 14.006C40.2076 14.0186 40.2643 14.0342 40.3201 14.0526C40.2442 14.3183 40.1719 14.5839 40.0996 14.846C40.0929 14.8703 40.0962 14.8962 40.1087 14.9181C40.1213 14.94 40.1421 14.956 40.1665 14.9627C40.1909 14.9693 40.217 14.9661 40.2391 14.9536C40.2611 14.9412 40.2772 14.9205 40.284 14.8963C40.3671 14.6414 40.443 14.3901 40.5153 14.1388C41.1911 14.4978 41.7839 15.3522 42.2465 15.8476C42.9693 16.5979 43.7681 17.1651 43.8295 18.2887C43.891 19.4123 43.8295 20.4031 43.9885 21.5196C43.8584 23.7848 44.668 26.3551 43.5259 28.3224C42.9513 29.3096 42.6621 30.3327 42.2176 31.3379C41.8164 32.2533 40.2623 33.1328 39.4491 33.6246C38.5419 34.1631 37.5588 34.7626 36.9805 35.6745L37.7793 36.0514C38.6575 34.777 40.49 33.858 41.6718 32.9497C42.0694 32.6446 42.626 32.562 42.9693 32.1923C43.4247 31.6897 43.656 30.7563 44.0066 30.1353C44.3572 29.5142 44.874 28.8465 45.0403 28.1393C45.1072 27.8606 45.1195 27.5718 45.0764 27.2885C45.7993 25.9567 46.7462 24.5638 46.8438 23.0237C46.8438 22.8371 46.5619 22.8371 46.551 23.0237C46.4679 24.3735 45.68 25.6479 44.9969 26.8434C44.9644 26.6818 44.9283 26.5131 44.8993 26.3264C44.614 24.4614 44.5558 22.5691 44.7259 20.6903C44.7267 20.6454 44.7174 20.6008 44.6987 20.5599C44.6799 20.519 44.6522 20.4828 44.6176 20.4539C44.5829 20.425 44.5422 20.4041 44.4984 20.3929C44.4546 20.3816 44.4088 20.3802 44.3644 20.3888C44.3644 20.1734 44.3355 19.958 44.3391 19.7318C44.3391 19.0138 44.6536 18.2707 44.5921 17.542C44.5126 16.6014 43.7572 15.5891 43.0055 14.7778L43.1139 14.4475C43.3168 13.8303 43.462 13.1958 43.5476 12.5521C43.8693 12.9936 44.1693 13.4424 44.4837 13.8839C44.4855 13.8994 44.4855 13.9151 44.4837 13.9306C44.4864 13.9443 44.4942 13.9564 44.5057 13.9644C44.5171 13.9725 44.5313 13.9758 44.5451 13.9737C44.9636 14.5813 45.4485 15.1411 45.9908 15.6429C47.4076 16.8994 47.8847 17.7251 47.8666 19.7103C47.8666 19.879 47.8666 20.0693 47.8341 20.2703C47.4108 21.7961 47.1372 23.359 47.0173 24.9371C46.9428 25.6543 46.9586 26.3778 47.0643 27.0911C47.1763 27.7121 47.4257 28.2362 47.5558 28.8142C47.3108 29.2282 47.0105 29.6074 46.6631 29.9414C46.6125 29.9881 46.6848 30.0563 46.739 30.0168C47.0729 29.7424 47.3629 29.4192 47.5992 29.0583C47.6291 29.2652 47.6351 29.4747 47.6172 29.683C47.4329 31.7507 46.1065 33.2728 44.5343 34.5831L45.109 35.1324C45.8459 34.5787 46.5406 33.9716 47.1872 33.3159C47.7582 32.6554 47.9461 31.9015 48.2172 31.0794C48.5786 29.9558 48.3799 29.0619 48.1485 28.1106C48.3293 27.7516 48.51 27.4142 48.6871 27.0803C49.3629 25.8597 49.9557 24.5997 50.5701 23.3468C50.5301 24.4224 50.7109 25.4948 51.1014 26.4987C51.1664 26.671 51.2387 26.8398 51.3074 27.0085C51.1448 27.328 50.9785 27.6475 50.7906 27.9526C50.6026 28.2578 50.3749 28.5916 50.1761 28.9183C50.1364 28.9829 49.4063 30.1496 49.3918 29.4999C49.3918 29.4568 49.3196 29.4424 49.3123 29.4999C49.2616 29.6587 49.2616 29.8292 49.3123 29.9881C49.3157 29.9994 49.3212 30.01 49.3286 30.0191C49.336 30.0283 49.3452 30.036 49.3556 30.0416C49.366 30.0473 49.3775 30.0509 49.3893 30.0522C49.401 30.0535 49.413 30.0524 49.4244 30.0491C49.9195 29.8553 50.0966 29.4783 50.3749 29.0439C50.7363 28.466 51.0978 27.906 51.4267 27.3136C51.6797 27.9203 51.9471 28.5198 52.2001 29.1301C52.0736 29.4209 51.9435 29.7153 51.7917 30.0024C51.4789 30.5091 51.277 31.0754 51.199 31.6646C51.199 31.7579 51.3255 31.7651 51.3544 31.6861C51.6218 30.925 52.023 30.2502 52.3591 29.5322C52.9121 31.0112 51.8929 32.3107 51.1737 33.5349C50.2556 35.1037 48.4305 35.9042 46.8836 36.9453L47.3281 37.4263C47.5305 37.2935 47.7437 37.1607 47.9678 37.035C49.045 36.4603 50.0736 35.8 51.0436 35.0606C52.2796 34.0806 53.5338 32.4436 53.5735 30.7958C53.7795 30.2825 53.8952 29.6937 54 29.3599C54.3614 28.2506 54.6036 27.1162 54.8638 25.9854C54.9252 26.1864 54.9939 26.391 55.0734 26.5992C55.33 27.2705 55.6156 27.9239 55.8975 28.5773C55.8107 28.9363 55.7204 29.3132 55.6264 29.6758C55.4489 30.3628 55.3173 31.0608 55.2325 31.7651C55.182 32.0944 55.0947 32.4171 54.9722 32.7272C54.9722 32.7631 54.4084 34.1021 54.4482 33.3446C54.4455 33.3357 54.44 33.3279 54.4325 33.3224C54.425 33.3169 54.4159 33.3139 54.4066 33.3139C54.3973 33.3139 54.3882 33.3169 54.3807 33.3224C54.3732 33.3279 54.3677 33.3357 54.365 33.3446C54.3036 33.6139 54.3 33.5169 54.365 33.7826C54.3683 33.795 54.3744 33.8065 54.3828 33.8161C54.3913 33.8258 54.4019 33.8333 54.4138 33.8382C54.4258 33.8431 54.4387 33.8451 54.4515 33.8442C54.4644 33.8433 54.4768 33.8394 54.4879 33.8329C55.5433 33.2298 55.4674 31.5174 55.7023 30.5302C55.8252 30.0168 55.9445 29.4999 56.0637 28.9793C56.2228 29.3383 56.3818 29.7224 56.53 30.0994C56.6783 30.48 56.7459 30.887 56.7288 31.2948C56.6131 31.7651 56.4974 32.2318 56.3673 32.6985C56.0041 33.4388 55.5987 34.1579 55.1529 34.8524C53.8735 37.035 51.0942 37.9504 49.1425 39.5695C49.2473 39.6951 49.3521 39.8208 49.4533 39.95C49.4768 39.9811 49.4882 40.0196 49.4854 40.0584C49.4826 40.0972 49.4659 40.1337 49.4382 40.1612C49.4105 40.1887 49.3738 40.2053 49.3347 40.2081C49.2957 40.2108 49.2569 40.1995 49.2256 40.1762C49.0919 40.0685 48.9654 39.95 48.8353 39.8387C48.7485 39.9213 48.6581 40.0003 48.5714 40.0864C48.1775 40.4885 47.7871 40.9121 47.4004 41.3465L47.9823 41.7629C48.1702 41.5547 48.3437 41.3572 48.5461 41.1634C49.0054 42.0171 49.2764 42.9582 49.3412 43.924C48.7593 44.6025 48.2028 45.3097 47.6823 46.0348C47.6534 45.3958 47.61 44.8322 47.5341 44.2758L47.5486 44.2866ZM16.2095 51.4771C16.2095 51.6027 16.2348 51.7248 16.2456 51.8361L16.0975 51.7607C15.6714 51.5539 15.229 51.3821 14.7746 51.2473C14.6626 50.095 14.471 48.9426 14.3373 47.7867C14.8513 48.0344 15.3905 48.227 15.9457 48.3611C16.3504 49.3304 16.0866 50.4468 16.2095 51.4771ZM17.7709 53.6669C17.8504 54.9485 18.013 56.2301 18.013 57.5153V57.5332C17.6516 57.3537 17.6082 57.1742 17.4492 56.984C17.2456 56.7643 17.0244 56.5614 16.7878 56.3773C16.7878 55.8998 16.7661 55.4224 16.7878 54.9413C16.7878 54.3634 16.8095 53.7818 16.7878 53.2002C16.8781 53.2361 17.0082 53.2649 17.095 53.3043C17.3339 53.4006 17.5617 53.5222 17.7745 53.6669H17.7709ZM21.1465 56.2301C21.4087 56.3058 21.6755 56.3645 21.9453 56.406C21.9995 57.0952 22.0537 57.7845 22.1441 58.4594C22.1947 58.828 22.2489 59.1977 22.3067 59.5687C21.8279 59.5559 21.3508 59.5079 20.8791 59.4251C20.7089 59.3967 20.5409 59.3559 20.3767 59.303C20.3225 58.944 20.2647 58.5492 20.2105 58.1722C20.102 57.3788 20.0561 56.5782 20.0731 55.7778C20.4154 55.9652 20.7763 56.1168 21.1502 56.2301H21.1465ZM19.943 58.0825C19.9972 58.4415 20.0587 58.8327 20.1165 59.2133L19.9683 59.1558C19.8563 58.6676 19.7189 58.1866 19.6069 57.7199C19.6008 57.6969 19.5885 57.6761 19.5713 57.6596C19.5541 57.6431 19.5326 57.6317 19.5093 57.6266L19.2563 57.5763C19.0864 57.5404 19.0142 57.7989 19.184 57.8348C19.4262 57.8814 19.5852 58.5133 19.6828 59.0338C19.1235 58.737 18.6169 58.3514 18.1829 57.8922C18.1829 57.4255 18.1829 56.9588 18.1829 56.4922C18.1576 55.6521 18.1142 54.8085 18.06 53.9792C18.3311 54.2341 18.5732 54.5285 18.8804 54.8695C19.158 55.1733 19.4753 55.4389 19.8237 55.6593C19.797 56.469 19.8381 57.2795 19.9466 58.0825H19.943ZM16.3938 59.8774C16.3938 60.1431 16.3938 60.4123 16.3938 60.6815C15.9457 60.4446 15.483 60.2256 15.0132 60.0138C15.028 59.8875 15.0365 59.7605 15.0385 59.6333C15.0385 58.5922 14.8867 57.5619 14.8252 56.5281C15.0927 56.6106 15.3601 56.7004 15.6168 56.8081C15.893 56.9231 16.154 57.0714 16.3938 57.2496C16.3902 58.1255 16.3902 59.0015 16.3974 59.8774H16.3938ZM12.8338 54.4352C12.8338 53.9613 12.8627 53.4838 12.8699 52.9992C12.8699 52.6402 12.8699 52.2992 12.8916 51.9474C13.441 52.1305 14.0157 52.2669 14.565 52.4428C14.565 53.3115 14.5289 54.1803 14.5036 55.049C13.9668 54.7977 13.4094 54.5924 12.8374 54.4352H12.8338ZM12.6278 56.966C12.7263 57.6678 12.7746 58.3755 12.7723 59.084C12.2664 58.883 11.7604 58.6784 11.2688 58.4738L11.2002 58.4415C11.1327 57.4052 11.0761 56.3677 11.0303 55.329C11.5218 55.487 12.0314 55.6198 12.523 55.7634C12.5317 56.1663 12.5679 56.568 12.6314 56.966H12.6278ZM8.69188 57.0917C8.69188 56.5029 8.69188 55.9824 8.66658 55.8065C8.60513 55.1783 8.57622 54.55 8.55454 53.9254C8.85813 54.1623 9.16172 54.4028 9.48701 54.6254C9.84209 54.8553 10.223 55.0432 10.6219 55.1854C10.6198 56.2141 10.685 57.2417 10.817 58.262C10.0978 57.903 9.41833 57.4542 8.69549 57.0953L8.69188 57.0917ZM-0.452156 46.4692L-0.560578 46.4118L-0.636475 46.3543C-0.636475 46.1246 -0.636475 45.8984 -0.636475 45.6687C-0.636475 44.2794 -0.636475 42.8937 -0.636475 41.5044C-0.247031 42.4072 0.39684 43.1789 1.21762 43.7266C1.21762 44.5163 1.21762 45.3025 1.21762 46.0887C1.21762 46.5769 1.21762 47.0723 1.21762 47.5713C0.688099 47.1668 0.131425 46.7985 -0.448538 46.4692H-0.452156ZM1.18149 17.9512C1.3116 18.0589 1.4417 18.1666 1.57905 18.26C1.61519 18.1989 1.6441 18.1343 1.68024 18.0733C2.20431 17.1686 2.83319 16.3178 3.14762 15.3127C3.50905 14.1603 3.50905 12.8787 4.28973 11.8843C4.92583 11.0802 6.34262 10.7823 7.18112 10.1145C8.01962 9.44682 8.79307 8.80064 9.67856 8.22626C11.4568 7.07032 12.0603 5.89284 12.8627 3.95431C13.2241 3.06761 13.5422 2.18091 14.1566 1.44139C14.4134 1.13763 14.7157 0.874897 15.0529 0.662391C15.0647 0.686027 15.085 0.704357 15.1098 0.713684C15.1347 0.723012 15.1621 0.722642 15.1867 0.712649C16.5998 0.184937 18.1106 -0.762794 19.5671 -0.996136C21.1429 -1.25102 23.0296 -0.795101 24.5548 -1.30845C24.6596 -0.166872 24.8186 0.981887 24.9668 2.12347C23.9078 2.48246 22.6934 2.17014 21.5911 2.29937C20.5606 2.42785 19.5637 2.74816 18.6527 3.24351H18.6202C17.0119 3.96149 15.7649 4.32048 15.006 6.06516C14.4096 7.45803 14.1096 8.65345 12.7073 9.45041C11.8695 9.89435 11.0736 10.4122 10.3291 10.9976C8.94849 12.132 7.60037 12.9469 6.86668 14.6198C6.42936 15.625 6.42213 16.6948 5.89807 17.6856C5.55833 18.3246 5.12462 18.9133 4.8138 19.5559L5.34509 19.6744C5.41015 19.5344 5.47881 19.398 5.55471 19.2687C5.5258 19.7175 5.48605 20.1626 5.4246 20.6077C4.60823 20.3988 3.81043 20.1239 3.0392 19.7857C3.34421 18.2849 3.79821 16.8178 4.39454 15.406C4.46321 15.2481 4.22829 15.108 4.156 15.2696C3.55007 16.6857 3.08523 18.1575 2.76813 19.6636C2.12423 19.3598 1.53071 18.9604 1.008 18.4789L1.18149 17.9512ZM9.07499 16.7989C9.07499 17.9476 8.71356 18.2923 8.10636 19.2005C7.91327 19.4911 7.74058 19.7946 7.58953 20.1088C7.86783 20.1626 8.14613 20.2236 8.41719 20.2882C8.56605 19.9162 8.74368 19.5561 8.94849 19.2113C9.48701 18.2887 9.8412 16.6804 10.5496 15.9409C11.37 15.0901 12.7181 14.6845 13.6325 13.9198C14.0409 13.5608 14.2434 13.0187 14.565 12.6131C14.9264 12.1356 15.4469 11.7695 15.8192 11.2848C15.9494 11.117 16.0701 10.942 16.1806 10.7607C16.542 10.4017 16.8384 10.0104 17.0697 9.73042C17.4745 9.2386 17.9516 8.815 18.3527 8.32319C18.4865 8.14655 18.6073 7.96059 18.7142 7.76675C18.866 7.70932 19.0756 7.64111 19.3611 7.54777C21.5911 6.8298 19.8129 7.54777 20.8068 7.40418C21.9561 7.24622 22.9139 6.7939 24.0054 6.39542C24.472 6.1966 24.9196 5.95629 25.3427 5.67745C25.4114 6.35594 25.4909 7.00929 25.5993 7.65188C25.0977 7.35415 24.5062 7.24224 23.9295 7.33597C23.4199 7.45803 23.232 7.72727 22.8669 8.08625C21.9686 8.96811 20.9292 9.69596 19.7912 10.2402C18.3537 10.8776 17.1289 11.9087 16.2601 13.2126C16.2478 13.2306 16.2397 13.2511 16.2365 13.2726C16.2333 13.2942 16.2351 13.3161 16.2417 13.3369C16.2483 13.3576 16.2596 13.3766 16.2747 13.3924C16.2897 13.4082 16.3082 13.4203 16.3288 13.428C14.9445 15.1404 13.8964 17.2261 12.2302 18.619C11.4669 19.2456 10.928 20.1007 10.6942 21.0565L10.8496 21.1319C10.9069 21.1816 10.947 21.248 10.9641 21.3217C10.9812 21.3954 10.9744 21.4725 10.9448 21.5421C10.9152 21.6118 10.8641 21.6703 10.799 21.7095C10.7339 21.7486 10.658 21.7663 10.5821 21.7601C9.23762 21.4011 7.45942 21.1103 5.72458 20.6831C5.80787 20.0497 5.85494 19.4121 5.86554 18.7733C6.25782 18.186 6.57586 17.5531 6.81247 16.8886C7.11968 15.905 7.11245 14.8137 7.7847 13.9665C8.33045 13.2808 9.53761 13.0259 10.2568 12.4587C10.9761 11.8915 11.6303 11.3387 12.3856 10.8469C13.9 9.86325 14.4132 8.85808 15.0963 7.20315C15.3561 6.43495 15.7288 5.70913 16.2023 5.04922C16.4203 4.78855 16.6789 4.56432 16.9685 4.38509C16.9728 4.39539 16.9792 4.40471 16.9872 4.4125C16.9952 4.42029 17.0048 4.42638 17.0152 4.43041C17.0257 4.43443 17.0369 4.43631 17.0481 4.43592C17.0593 4.43554 17.0704 4.4329 17.0805 4.42817C18.2841 3.97584 19.5744 3.17171 20.8177 2.97068C22.1477 2.75529 23.7343 3.13582 25.0319 2.7158C25.0969 3.24351 25.1547 3.77122 25.1981 4.29534L25.2306 4.70459C25.1258 4.7728 25.0246 4.8446 24.9343 4.90922C24.0398 5.51465 23.0672 5.99764 22.0429 6.34517C21.0526 6.70415 20.8719 6.38106 19.9647 6.2626C18.7431 6.10823 18.2841 6.76518 17.8829 7.52265C17.8678 7.51129 17.8494 7.50514 17.8305 7.50514C17.8116 7.50514 17.7932 7.51129 17.7781 7.52265C17.0335 8.11139 16.6107 8.87602 16.0685 9.64785C15.8661 9.93504 15.6529 10.215 15.4397 10.4915C15.1849 10.7103 14.9718 10.973 14.8108 11.2669C14.4494 11.7084 14.0482 12.1428 13.6398 12.5664C12.476 13.7762 9.8412 14.0993 9.15811 15.7542C9.05875 16.0932 9.03167 16.449 9.0786 16.7989H9.07499ZM45.4523 6.91954C45.1776 6.80467 44.9066 6.70056 44.6861 6.61441C44.4915 6.53906 44.2908 6.48021 44.0861 6.4385C44.1271 5.57693 44.1524 4.71536 44.162 3.85379C44.3319 3.85379 44.4982 3.85379 44.6716 3.85379H45.6186C45.6186 3.88969 45.6186 3.922 45.6186 3.96149C45.6041 4.95947 45.5644 5.93951 45.4559 6.91954H45.4523ZM44.5343 11.8377C44.2779 11.5463 44.0065 11.2683 43.7211 11.0048C43.8621 9.73041 43.9777 8.45601 44.05 7.17443C44.3071 7.20525 44.5595 7.26671 44.8018 7.35751C44.9937 7.4281 45.1819 7.50838 45.3656 7.59803C45.1523 9.00167 44.7439 10.434 44.5524 11.8592L44.5343 11.8377ZM43.8115 6.38465C43.385 6.31286 42.944 6.27695 42.5356 6.21234C41.7194 6.1211 40.9179 5.92812 40.1502 5.63796C39.3551 5.31846 38.6684 4.79075 37.8769 4.48561C37.0854 4.18047 36.4312 4.4174 35.6252 4.44612C34.8809 4.48854 34.1399 4.31917 33.4892 3.9579C33.5326 4.2738 33.5615 4.58971 33.5759 4.9128C34.2365 5.13593 34.9276 5.25701 35.6252 5.27179C35.9686 5.27179 36.283 5.16051 36.6227 5.14256C37.4143 5.10307 37.8949 5.55539 38.4551 6.02567C39.59 6.98058 40.8333 7.10263 42.232 7.13135C42.7236 7.13135 43.2549 7.13135 43.7645 7.15648C43.7103 8.05754 43.6452 8.95142 43.5548 9.85607C43.5223 10.1612 43.4934 10.4699 43.4609 10.7787C42.8215 10.2226 42.0752 9.80125 41.267 9.54015C41.2851 9.18117 41.2959 8.78987 41.2959 8.40216C41.2959 8.36313 41.2803 8.32569 41.2525 8.29809C41.2248 8.27048 41.1871 8.25498 41.1478 8.25498C41.1085 8.25498 41.0708 8.27048 41.043 8.29809C41.0152 8.32569 40.9996 8.36313 40.9996 8.40216C40.9996 8.76115 40.9996 9.12013 40.9996 9.45758C40.55 9.33564 40.0904 9.25395 39.6262 9.21347C37.8913 9.06988 36.7348 10.391 35.1011 8.85449C34.5662 8.36267 34.1217 7.70214 33.5289 7.26776C33.5073 7.69855 33.4856 8.12215 33.4747 8.53499C34.4831 9.46836 35.3071 10.7571 36.695 10.8648C37.3926 10.9223 37.8805 10.4663 38.5021 10.294C39.3252 10.1296 40.1785 10.2044 40.9598 10.5094C40.9403 10.956 40.892 11.4008 40.8152 11.8413C40.7502 12.2003 40.6707 12.5592 40.5876 12.8931C40.4704 12.8571 40.3487 12.8378 40.2261 12.8357C39.8647 12.8357 39.5033 13.1946 39.1419 13.3311C37.8299 13.7798 35.8384 13.0295 34.5445 12.6131C34.2193 12.5054 33.7964 12.3869 33.3735 12.2541C33.3735 12.5485 33.3374 12.8393 33.3121 13.1336C34.3747 13.3849 35.4806 13.5572 36.5396 13.9162C37.1034 14.1065 37.6962 14.4116 38.3106 14.408C38.5599 14.3861 38.804 14.3242 39.0334 14.2249C39.0334 15.1798 39.0334 16.1419 39.0334 17.0968C38.7045 16.9281 38.3756 16.7379 38.0142 16.5368C36.6625 15.7542 35.1553 16.203 33.6771 16.1778C32.1989 16.1527 31.2158 15.485 30.2942 14.3578C30.0203 13.9438 29.662 13.5916 29.2424 13.3239C28.6136 12.9936 27.8148 12.9649 27.1426 12.7603C26.2354 12.4874 25.3824 12.071 24.4897 11.7695C23.2819 11.3745 21.9773 11.382 20.7743 11.791C20.0514 12.089 19.4876 12.7495 18.9672 13.4352C17.6263 14.6342 16.9468 17.0538 16.3613 18.461C15.4288 20.6724 13.5783 22.4422 13.4699 24.9228C13.4049 26.4916 14.1385 27.9849 13.5783 29.5286C13.1482 30.7097 12.1796 31.6251 11.7459 32.7595C10.9978 34.7483 12.7001 35.0534 14.1747 35.5955C14.8722 35.8539 16.1697 36.1124 16.7046 36.5576C17.1637 36.9525 17.4817 37.5699 17.8684 38.0402L17.9552 38.1443C17.9233 38.6043 17.9149 39.0656 17.9299 39.5264C17.9299 39.5388 17.9348 39.5506 17.9436 39.5594C17.9524 39.5681 17.9644 39.5731 17.9769 39.5731C17.9893 39.5731 18.0013 39.5681 18.0101 39.5594C18.0189 39.5506 18.0238 39.5388 18.0238 39.5264C18.0238 39.1279 18.0708 38.733 18.1106 38.3381C18.7318 39.1518 19.4288 39.9054 20.1924 40.589C20.3942 40.7546 20.6094 40.9035 20.8357 41.0341C20.8176 41.4937 20.8104 41.9496 20.814 42.4091C20.7056 42.3417 20.5934 42.2805 20.4779 42.226C19.5165 41.7808 18.6997 41.2029 17.7275 40.8403C16.2167 40.2731 15.8083 38.8156 14.6084 37.8499C13.741 37.1499 12.7615 37.132 11.717 36.8843C11.3119 36.7925 10.9341 36.6077 10.6139 36.3446C10.2938 36.0814 10.0403 35.7474 9.87373 35.3693C9.94057 34.6028 9.94781 33.8323 9.89542 33.0646C9.87735 32.9138 9.63157 32.9103 9.65326 33.0646C9.70024 33.6392 9.70024 34.2167 9.65326 34.7913C9.03522 32.7559 9.65327 29.823 10.3183 28.3296C10.5902 27.7367 10.8314 27.1304 11.0411 26.5131L10.9291 26.4951C10.9486 26.5251 10.9605 26.5593 10.9639 26.5948C10.9673 26.6304 10.962 26.6662 10.9486 26.6993C10.9351 26.7323 10.9138 26.7617 10.8865 26.7849C10.8592 26.8081 10.8267 26.8245 10.7918 26.8326C10.3085 26.8987 9.81668 26.867 9.34606 26.7393C9.30796 26.5071 9.23485 26.282 9.1292 26.0715C9.06414 25.9459 8.8762 26.0715 8.93765 26.1828C9.01399 26.3403 9.06985 26.5068 9.1039 26.6782C8.30561 26.4214 7.52456 26.1145 6.76548 25.7592C6.80524 25.472 6.85223 25.1848 6.90283 24.8976C6.90283 24.8151 6.93174 24.7361 6.94258 24.6535L7.64013 24.8546C7.64013 24.6858 7.64013 24.5171 7.66543 24.3412C7.68719 23.5123 7.7669 22.6858 7.90397 21.8678C8.74837 22.0364 9.57665 22.2766 10.3797 22.5858C10.3002 23.5873 10.3219 24.632 10.199 25.6695L11.1857 25.9854C11.3021 25.4716 11.3615 24.9468 11.3628 24.4202C11.3809 22.4601 11.2941 20.5611 12.7651 19.0354C14.9734 16.7702 16.448 13.9449 18.5479 11.5972C18.562 11.5799 18.5697 11.5583 18.5697 11.5361C18.5697 11.5139 18.562 11.4924 18.5479 11.4751C19.1732 11.1161 19.8671 10.8361 20.5177 10.5238C21.164 10.2124 21.7707 9.82553 22.3248 9.37143C23.5717 8.3519 24.2331 7.97138 25.6174 9.01244C25.6969 9.06988 25.7692 9.13091 25.8451 9.19194C26.0757 10.0563 26.3867 10.8976 26.7739 11.7048C26.8039 11.7646 26.85 11.8148 26.9072 11.85C26.9643 11.8851 27.0302 11.9037 27.0974 11.9037C27.1646 11.9037 27.2305 11.8851 27.2876 11.85C27.3447 11.8148 27.3909 11.7646 27.4209 11.7048C27.6328 11.1944 27.755 10.6516 27.7823 10.1002L27.9847 10.075C27.4859 7.86727 27.0992 5.59488 26.8065 3.32608C26.7125 2.75529 26.6077 2.2204 26.4739 1.66756L26.5968 1.55986L26.5426 1.02138L26.3511 1.17574C26.3113 1.03215 26.2715 0.884962 26.2282 0.734187C25.9932 -0.102254 25.6246 -0.917155 25.3427 -1.75001C25.8776 -2.15207 26.2679 -2.68696 26.857 -3.04954C27.4555 -3.42771 28.1219 -3.68736 28.8196 -3.81419C29.9039 -3.93624 30.8255 -3.29365 31.4905 -2.42849C32.4447 -1.18281 32.6832 0.583413 34.2662 1.22241C35.0957 1.52469 35.9706 1.6861 36.854 1.69987C37.2552 1.69987 37.6275 1.56704 38.0251 1.54909C38.9539 1.49883 39.5177 2.03013 40.1719 2.57938C41.2887 3.51993 42.4923 3.78558 43.8187 3.85379C43.8765 4.68305 43.8548 5.53745 43.8115 6.38465ZM42.1778 13.9234C41.7806 13.524 41.3157 13.1971 40.8044 12.9577C40.9836 12.1756 41.1128 11.3831 41.1911 10.5848C41.8593 10.8265 42.4593 11.2242 42.9404 11.7443C43.0669 11.8915 43.1826 12.0423 43.3018 12.1931C43.2585 12.5233 43.2115 12.8536 43.1537 13.1803C43.0908 13.6639 42.9991 14.1434 42.879 14.6162C42.6296 14.3757 42.3911 14.128 42.1778 13.927V13.9234ZM39.1491 19.4015C39.1491 19.4206 39.1567 19.4389 39.1702 19.4523C39.1838 19.4658 39.2022 19.4733 39.2214 19.4733C39.2405 19.4733 39.2589 19.4658 39.2725 19.4523C39.286 19.4389 39.2937 19.4206 39.2937 19.4015C39.2937 19.1215 39.3153 18.8415 39.3226 18.5615C39.425 18.5816 39.5263 18.6067 39.6262 18.6369C41.0393 19.1 41.3971 19.4015 41.6176 20.7908C41.7116 21.4047 41.8706 22.0581 41.9321 22.7078C41.9171 22.7243 41.906 22.744 41.8995 22.7653C41.5779 24.2802 41.014 25.5797 40.5767 27.0372C40.1105 28.5916 39.2539 29.5753 38.0467 30.602C37.5516 31.0184 36.9625 31.2015 36.4637 31.6035C36.0716 31.9948 35.7293 32.4325 35.4445 32.9067C34.7506 33.8293 34.0205 34.1165 33.1205 34.7016C32.8105 34.8646 32.546 35.1014 32.3507 35.3909C31.776 36.3242 32.2676 37.6238 31.6857 38.5643C31.3857 39.0454 30.6014 39.3433 30.1822 39.7454C29.5858 40.3054 29.4304 41.0916 28.581 41.429C28.0574 41.5893 27.5221 41.7094 26.9799 41.788C26.8231 41.8507 26.6729 41.9289 26.5318 42.0214C25.9346 42.0031 25.3639 41.7726 24.9234 41.3716C24.4247 41.2316 23.6693 41.228 23.232 41.0808C22.5695 40.8098 21.9584 40.4286 21.4248 39.9536C21.3417 39.8854 21.2622 39.81 21.1827 39.7382C21.1827 39.6197 21.208 39.5013 21.2224 39.3792C21.2994 38.8516 21.3297 38.3182 21.3128 37.7853C21.2499 37.3017 21.1582 36.8222 21.0381 36.3494C21.0092 36.1878 20.767 36.256 20.7924 36.4176C20.9332 36.9589 21.0346 37.5095 21.0959 38.0653C21.1002 38.5685 21.0663 39.0713 20.9947 39.5695C20.4129 39.0238 19.8852 38.4099 19.278 37.8894C18.939 37.5848 18.6192 37.2599 18.3202 36.9166C18.425 36.0909 18.5335 35.2616 18.5913 34.4252C19.3928 34.5261 20.141 34.8782 20.7273 35.4303C21.3887 36.0729 21.5044 36.9453 21.967 37.6453C23.0007 39.2213 24.7969 39.3972 26.3041 38.5356C27.0739 38.1012 28.1112 37.7027 28.7292 37.053C29.5424 36.1986 29.6725 34.8811 30.4496 33.9693C31.3026 32.9677 31.9459 31.6143 33.0085 30.882C33.9048 30.2609 34.9999 30.3148 35.8818 29.7332C36.7637 29.1516 37.3745 27.9383 37.819 26.9941C38.0662 26.5244 38.2427 26.0213 38.3431 25.5007C38.4443 24.8223 38.0178 24.3592 38.1841 23.5514C38.2094 23.4258 38.0214 23.3253 37.96 23.4581C37.947 23.4835 37.9361 23.5099 37.9275 23.5371C37.8844 22.9894 37.7826 22.4479 37.6239 21.9216C37.191 21.0947 36.5033 20.4268 35.6613 20.0154C34.9385 19.7067 33.9735 19.7533 33.1856 19.6098C31.7218 19.3405 30.4062 18.5328 29.1123 17.7682C28.2449 17.2476 27.6305 16.2748 26.6366 15.9732C25.939 15.7506 25.1294 15.9265 24.4102 15.8691C23.5724 15.7528 22.722 15.9653 22.0393 16.4614C22.0216 16.4465 21.9992 16.4383 21.976 16.4383C21.9528 16.4383 21.9304 16.4465 21.9128 16.4614C21.0503 17.1799 20.2989 18.0206 19.6828 18.9564C18.9599 20.0334 18.9599 20.7083 18.884 21.9216C18.7756 23.4043 18.3311 24.1653 17.3661 25.2243C16.7047 25.9423 16.3938 26.409 16.383 27.4285C16.3649 29.306 17.3408 30.4368 16.4155 32.3323C16.2384 32.6913 15.9565 32.7128 16.0541 33.2154C16.2023 33.9334 17.0516 34.0985 17.6335 34.2385C17.872 34.2959 18.1034 34.3426 18.3238 34.3857C18.2732 35.1647 18.1829 35.9401 18.0997 36.7191C17.6664 36.1925 17.1501 35.7391 16.5709 35.3765C15.5842 34.8488 14.1494 35.0175 13.2061 34.3677C11.605 33.2908 14.3337 30.5409 14.7132 29.5214C15.0927 28.5019 14.9011 27.6008 14.7819 26.6028C14.6059 25.633 14.6467 24.6367 14.9011 23.6843C15.1722 22.8801 15.7613 22.2806 16.1047 21.5303C16.6143 20.3959 17.0263 19.1251 17.4817 17.9656C17.9371 16.8061 18.3997 14.9106 19.3864 13.7834C19.5201 13.6506 19.6539 13.5213 19.7912 13.3957C19.9411 13.2731 20.1048 13.1682 20.2791 13.0834C20.3095 13.0706 20.3337 13.0466 20.3465 13.0165C20.3594 12.9863 20.3598 12.9523 20.3478 12.9218C20.7867 12.5657 21.3109 12.3283 21.8694 12.2326C23.3368 12.0208 24.4897 12.5054 25.8451 13.0152C26.4306 13.2377 27.0233 13.4711 27.6269 13.647C28.7509 13.9808 29.2677 14.5768 30.1026 15.424C30.7207 16.0486 31.1869 16.5368 32.0218 16.8599C32.9285 17.1661 33.8796 17.3225 34.8373 17.323C35.8601 17.3733 36.6842 17.2763 37.6492 17.7717C37.9853 17.9441 38.2528 18.2205 38.6069 18.3748C38.78 18.4456 38.9607 18.4962 39.1455 18.5256C39.1238 18.8164 39.131 19.1108 39.1491 19.4015ZM17.6552 28.3762C17.6042 27.3918 17.9457 26.4271 18.6057 25.691C19.2491 24.8617 19.3683 24.133 19.4153 23.0991C19.4732 21.857 19.1443 20.7442 19.7189 19.5774C20.0445 18.9727 20.4465 18.4117 20.9152 17.9082C20.9285 17.9051 20.9409 17.8989 20.9514 17.8902C21.526 17.5061 21.9959 16.9568 22.632 16.6768C23.5717 16.264 24.1211 16.5368 25.0499 16.6338C26.1993 16.7558 26.7016 16.763 27.6197 17.6389C28.2133 18.2127 28.85 18.7407 29.5244 19.2185C30.1424 19.6492 30.7207 20.1985 31.4363 20.4677C32.2278 20.7693 32.9073 20.579 33.7277 20.5683C34.7578 20.5683 35.6722 20.7298 36.4312 21.4657C37.1902 22.2016 37.3528 23.2607 37.7287 24.2407C37.6166 24.8761 37.66 25.4972 37.4395 26.172C37.0384 27.407 36.0481 29.1014 34.7216 29.4819C33.2759 29.8947 32.1483 30.1999 31.2809 31.5676C30.6665 32.5261 29.8677 33.2764 29.2316 34.2098C28.5955 35.1432 28.5594 36.037 27.4498 36.6653C26.4848 37.2073 25.1041 38.0689 24.0452 37.9038C22.8308 37.7171 22.7187 36.7586 22.0935 35.9401C21.6397 35.3277 21.0992 34.7836 20.4888 34.3247C20.0914 34.0468 19.6488 33.8392 19.1804 33.7108C18.9915 33.6711 18.7987 33.6531 18.6057 33.6569C18.6057 33.6175 18.6057 33.5744 18.6057 33.5313C18.6057 33.3769 18.3636 33.3769 18.36 33.5313C18.36 33.5744 18.36 33.6139 18.36 33.6569C18.0107 33.6931 17.6579 33.6374 17.3371 33.4954C16.3866 32.8636 17.5684 32.3036 17.8106 31.6179C18.1973 30.5302 17.713 29.4281 17.6552 28.3762ZM7.47026 36.5935C7.31847 35.2293 6.43298 33.8723 6.63176 32.4974C6.85584 30.9466 7.29316 29.3563 7.46665 27.766C8.04767 27.7715 8.62591 27.6855 9.17979 27.5111C9.11139 27.9219 9.01355 28.3274 8.88704 28.7245C8.67742 29.4424 8.50032 30.1999 8.30515 30.9394C7.88723 32.334 7.57195 33.757 7.36183 35.197C7.36183 35.258 7.45219 35.2688 7.46665 35.197C7.89674 33.4021 8.39912 31.6071 8.85813 29.8122C9.0533 29.0475 9.38219 28.2255 9.44002 27.4213C9.57375 27.3675 9.70387 27.3172 9.83036 27.2526C9.87964 27.2243 9.92267 27.1865 9.95687 27.1413C9.27016 29.6542 8.6232 31.9769 8.98824 34.6585C9.14327 35.6755 9.68212 36.5957 10.4954 37.2325C10.8574 37.4387 11.2522 37.582 11.6628 37.6561C13.2314 38.1371 13.9108 38.4207 15.006 39.7346C15.6738 40.5715 16.4971 41.2734 17.4311 41.8024C17.9335 42.1111 18.2913 42.5598 18.8045 42.8614C19.5744 43.3209 20.4815 43.5004 21.2586 43.9599C22.0389 44.4749 22.8817 44.8898 23.7669 45.1948C24.8511 45.5359 25.8342 46.3005 27.0197 46.0779C28.2847 45.8338 29.5497 45.0799 30.7424 44.5989C31.212 44.3631 31.6627 44.0919 32.0905 43.7876C33.1097 43.1809 33.6518 43.3604 34.6204 42.9619C36.9263 42.0142 36.6806 39.4618 37.2046 37.4048C38.0214 37.9289 38.8816 38.4566 39.7346 38.97C39.4462 39.6148 39.2164 40.284 39.0479 40.9695C38.7479 42.1255 38.2455 42.4055 37.2408 43.0732C36.4456 43.5937 35.665 44.125 34.859 44.624C33.1314 45.701 31.6351 46.9574 29.6725 47.5928C28.3027 48.0344 27.0594 47.9159 25.7366 47.6754C25.1837 47.3164 24.5728 47.241 23.8464 47.0436C22.6067 46.7062 21.2261 46.3256 20.0442 45.8984C18.9346 45.4928 18.3817 44.4625 17.2938 43.9886C16.2059 43.5147 15.6818 43.6512 14.6373 42.9116C14.1674 42.5742 13.7229 42.2368 13.2422 41.9101C12.4904 41.4003 11.7965 40.4741 10.9327 40.1654C9.93156 39.8064 8.49309 40.4023 7.67989 39.4833C7.20281 38.9125 7.55701 37.2432 7.48111 36.5827L7.47026 36.5935ZM4.0295 23.9356L4.2319 23.9966L4.72344 24.0899C4.65477 24.3699 4.58971 24.6535 4.51743 24.9371C4.39093 24.8977 4.26081 24.8546 4.1307 24.8187C4.156 25.0089 4.17769 25.1992 4.18492 25.3931C3.89921 25.3168 3.60587 25.2722 3.31027 25.2602C2.82958 25.2423 2.26575 25.35 1.72723 25.3751C1.87903 24.851 2.03083 24.3233 2.16094 23.7956C2.44647 22.6217 2.6814 21.4155 2.94162 20.2057C3.43316 20.4211 3.92107 20.6185 4.36924 20.8052C4.16388 21.6614 4.04283 22.5355 4.00782 23.415C4.00757 23.5855 4.01844 23.7557 4.04034 23.9248L4.0295 23.9356ZM4.78127 23.8494C4.69046 23.562 4.63939 23.2637 4.62947 22.9627C4.627 22.307 4.7059 21.6535 4.86439 21.017L5.33063 21.1893C5.1969 22.0688 5.00535 22.9555 4.79211 23.8386L4.78127 23.8494ZM5.62338 21.2826C6.11853 21.4334 6.62815 21.5591 7.14137 21.6739C7.1233 21.857 7.10884 22.0329 7.09438 22.2304C7.09438 22.155 7.0727 22.0832 7.05463 22.0078C7.01849 21.8355 6.75464 21.9073 6.78717 22.0832C7.04016 23.3073 6.71127 24.5028 6.5161 25.7125L6.49442 25.8561C6.0447 25.8358 5.59805 25.7721 5.16076 25.6659C5.16076 25.5654 5.16076 25.4613 5.16076 25.3536C5.1555 25.2763 5.14463 25.1995 5.12823 25.1238C5.03065 25.0879 4.92945 25.0628 4.82826 25.0305C5.13547 23.774 5.43544 22.5283 5.63422 21.2719L5.62338 21.2826ZM0.187572 23.7094C0.400812 23.7094 0.614052 23.6914 0.830906 23.6879C0.688373 23.2869 0.606754 22.867 0.588747 22.4422C0.582375 21.3734 0.763384 20.3117 1.12366 19.3046C1.62654 19.5963 2.14538 19.86 2.67778 20.0944C2.31635 21.6488 2.03083 23.2176 1.59351 24.7361L1.40918 25.3751H1.19594C1.19594 25.3356 1.19594 25.2961 1.19594 25.2566C1.1724 24.9093 1.10314 24.5666 0.989934 24.2371C0.72248 24.2371 0.451405 24.212 0.180336 24.212C0.147113 24.2115 0.114306 24.2045 0.0837927 24.1915C0.0532789 24.1784 0.0256605 24.1595 0.0025034 24.1358C-0.0442648 24.088 -0.0700054 24.0237 -0.069047 23.9571C-0.0680885 23.8905 -0.040514 23.8269 0.00761032 23.7805C0.0557337 23.734 0.120473 23.7084 0.187572 23.7094ZM1.25377 25.9638C1.21401 26.1038 1.17425 26.2403 1.13811 26.3803C1.15979 26.2295 1.17787 26.0823 1.19233 25.9315L1.25377 25.9638ZM0.773077 27.8306C0.675492 28.265 0.592363 28.6993 0.534536 29.1445C0.447794 29.7871 0.267082 30.742 0.89596 31.1835C0.939331 31.2158 1.008 31.1512 0.971856 31.1081C0.393578 30.3578 0.87789 28.7855 1.05499 27.9634C1.19233 27.3352 1.3622 26.7177 1.54291 26.1039C2.34229 26.434 3.16196 26.7133 3.99697 26.9403C3.51989 28.7101 2.52236 30.2968 2.63079 32.2425C2.69946 33.4846 3.40424 34.4754 3.37532 35.7534C3.35725 36.7442 3.15486 37.7135 3.42593 38.69C3.96084 40.589 5.28003 41.1203 6.7438 42.1937C6.76528 42.2117 6.79172 42.223 6.81969 42.226C6.85782 42.2683 6.89889 42.3079 6.94258 42.3445C7.44496 42.7752 8.02685 43.1019 8.53646 43.5471C9.37496 44.2902 10.0689 45.184 11.0231 45.7907C11.4554 46.0333 11.9006 46.2526 12.3567 46.4477C12.603 47.8034 12.7035 49.1813 12.6567 50.5581C12.4342 50.4604 12.2181 50.3489 12.0097 50.2242C11.598 49.9684 11.1721 49.7359 10.7339 49.5278C10.64 48.5442 10.3906 47.6323 10.2135 46.6559C10.1809 46.4836 9.91711 46.5554 9.94602 46.7277C10.1014 47.6216 10.2894 48.476 10.4014 49.3662C9.69696 49.0418 9.00939 48.6824 8.3413 48.2893L8.29431 48.2606C8.18504 46.9034 7.9306 45.5616 7.53532 44.2579C7.48833 44.0999 7.23534 44.1645 7.28593 44.3261C7.65489 45.5351 7.87694 46.7837 7.94735 48.0452C7.49225 47.7125 7.05775 47.3528 6.64622 46.9682C6.70136 45.5658 6.51308 44.1645 6.08962 42.8255C6.03541 42.6819 5.80409 42.7429 5.8583 42.8865C6.25322 44.1365 6.43404 45.4434 6.39322 46.7528C5.8562 46.2462 5.27841 45.7839 4.66561 45.3707L4.3837 45.1805C4.39348 43.9012 4.23801 42.6259 3.92108 41.3859C3.9095 41.3586 3.88828 41.3364 3.8614 41.3234C3.83451 41.3105 3.8038 41.3077 3.775 41.3156C3.7462 41.3235 3.72129 41.3416 3.70494 41.3664C3.68859 41.3913 3.68191 41.4212 3.68615 41.4506C3.97882 42.6091 4.12451 43.7994 4.11986 44.9938C3.70187 44.6779 3.26229 44.3912 2.80428 44.1358L2.7067 44.082C2.3272 43.7768 1.91879 43.5076 1.53207 43.2096C1.53207 42.2691 1.51399 41.3321 1.57182 40.3987C1.63688 39.3684 1.82121 38.2161 1.26823 37.2827C1.25001 37.2523 1.22036 37.2302 1.18579 37.2215C1.15122 37.2127 1.11457 37.218 1.0839 37.2361C1.05322 37.2541 1.03104 37.2836 1.02223 37.3179C1.01342 37.3523 1.0187 37.3887 1.03691 37.4191C1.65133 38.4782 1.27546 39.8926 1.24654 41.0449C1.24654 41.6803 1.22486 42.3157 1.22486 42.9511C1.15257 42.8901 1.08029 42.8327 1.01162 42.7681C-0.0112114 41.7808 -0.387094 40.3269 -0.33288 38.9556C-0.289509 37.8786 -0.043745 36.8591 -0.224457 35.7858C-0.491911 34.2134 -0.719608 32.9138 -0.394326 31.3271C-0.155787 30.146 0.386353 28.9973 0.773077 27.8234V27.8306ZM14.041 47.618C14.1711 48.7955 14.3735 49.9801 14.4855 51.1612C13.9506 51.0032 13.4012 50.8525 12.9061 50.655C12.9425 49.293 12.8445 47.9307 12.6133 46.5877C13.1302 46.9 13.5494 47.2877 14.041 47.618ZM12.5519 54.349C12.0206 54.1946 11.4893 54.0403 10.9833 53.8428C10.9833 53.552 10.9616 53.2613 10.9544 52.9669C10.9327 52.2489 10.8821 51.5058 10.8279 50.7735C11.0845 50.9745 11.3375 51.1791 11.6122 51.3622C11.926 51.5674 12.2633 51.735 12.6169 51.8612C12.6169 52.4069 12.5844 52.9561 12.5736 53.5054C12.5663 53.7854 12.5555 54.0654 12.5483 54.349H12.5519ZM1.55736 45.2199C1.55736 44.7999 1.55736 44.3799 1.55736 43.9563C2.02721 44.2866 2.53321 44.6097 3.05366 44.9938C3.08046 45.0127 3.11145 45.0251 3.14402 45.0297C3.19703 45.0871 3.24401 45.1338 3.28497 45.1697C3.55604 45.3994 3.84518 45.6041 4.13793 45.8087C4.13793 47.1585 4.05119 48.519 4.13793 49.8724C3.37558 49.1394 2.55622 48.4672 1.68748 47.8621C1.65495 47.8621 1.62242 47.819 1.58989 47.7975C1.55013 46.9395 1.55375 46.0779 1.55375 45.2199H1.55736ZM4.35117 48.8098C4.35117 47.8693 4.37647 46.9323 4.3837 45.9989C4.64776 46.1794 4.90118 46.3748 5.14269 46.5841C5.57279 46.9646 5.97035 47.3775 6.37876 47.7831C6.34623 48.8421 6.27756 49.894 6.28118 50.8884C6.28118 51.0822 6.28118 51.2725 6.30286 51.4627C6.12938 51.3694 5.95951 51.2725 5.79325 51.1684C5.30701 50.8637 4.84649 50.5204 4.41623 50.1417C4.38008 49.6929 4.35117 49.2514 4.34756 48.8062L4.35117 48.8098ZM6.57393 50.3786C6.57393 49.6211 6.61007 48.8314 6.63176 48.0344C7.05105 48.4599 7.51238 48.8423 8.00878 49.176C8.04493 50.2529 8.14612 51.3299 8.20034 52.4069C7.67627 52.152 7.14498 51.9043 6.62814 51.6351C6.59561 51.215 6.57031 50.7986 6.57031 50.375L6.57393 50.3786ZM8.49309 51.872C8.45333 51.0391 8.42081 50.2135 8.37021 49.3878C8.8256 49.6319 9.30991 49.815 9.76892 50.0591C10.0218 50.1957 10.2634 50.3517 10.4918 50.5258C10.5532 51.5058 10.611 52.4858 10.6183 53.4695V53.692C10.3815 53.5903 10.1531 53.4703 9.93518 53.3331C9.47256 53.0459 8.99909 52.7982 8.51839 52.5612C8.50755 52.3279 8.50033 52.0981 8.48948 51.8684L8.49309 51.872ZM16.4011 55.6342V56.1044C15.8907 55.769 15.3568 55.4703 14.8036 55.2106C14.8252 54.3275 14.8722 53.4408 14.8578 52.5541C14.9517 52.59 15.0457 52.6187 15.1397 52.6582C15.53 52.8125 15.9457 52.9274 16.3505 53.0566C16.3938 53.9039 16.4083 54.7511 16.3974 55.6306L16.4011 55.6342ZM14.3735 46.6595C13.7352 46.2837 13.0763 45.9433 12.4001 45.64C12.4001 45.5825 12.3712 45.5287 12.3531 45.4748C12.3461 45.4471 12.3293 45.4228 12.3056 45.4064C12.282 45.39 12.2533 45.3827 12.2246 45.3858C12.196 45.3888 12.1694 45.4021 12.1499 45.4231C12.1303 45.444 12.119 45.4714 12.1182 45.5C11.8218 45.3528 11.5291 45.1984 11.2435 45.0225C10.1014 44.3261 9.25208 43.2491 8.12082 42.5275C7.62567 42.2152 7.03655 41.7234 6.53056 41.4757L6.44743 41.429C5.97396 41.0449 5.4499 40.7398 5.00173 40.309C4.59396 39.8763 4.28146 39.3639 4.0842 38.8045C3.88693 38.2451 3.80922 37.651 3.85602 37.0602C3.89217 36.1447 4.1054 35.2652 3.94999 34.357C3.72229 33.0144 3.52712 31.9159 3.80542 30.5553C4.0295 29.446 4.56441 28.3762 4.88969 27.2706C5.34378 27.4488 5.81482 27.5811 6.29564 27.6654V27.7049C6.13904 28.4727 6.04596 29.2519 6.01733 30.0348C5.74988 31.6825 5.36678 33.3195 5.18968 34.9744C5.18968 35.0391 5.28365 35.0498 5.30172 34.9744C5.5511 34.0949 5.75711 33.1795 5.94144 32.2856C5.94144 34.1524 7.02571 35.9078 6.80163 37.7889C6.74019 38.3669 6.32093 38.8659 6.55947 39.4295C6.76909 39.9213 7.61122 40.3162 8.05215 40.5064C8.8509 40.8439 9.62435 40.6716 10.452 40.8654C11.4568 41.0916 12.4145 42.1578 13.2928 42.7681C14.1711 43.3783 14.8361 44.0245 15.8228 44.4948C16.6089 44.8662 17.3176 45.3813 17.9118 46.0133C18.2745 46.4453 18.727 46.7943 19.2382 47.0364C21.0056 47.6898 23.0151 47.6826 24.8728 48.0667C27.8112 49.8042 31.2484 47.959 33.7097 46.2538C35.5168 45.0081 37.4938 44.1681 39.3623 43.0876C40.5333 42.4163 40.6562 41.009 41.0429 39.7741L42.9982 40.9516C42.5431 41.5689 42.1313 42.2166 41.7658 42.8901C41.2075 44.0082 40.3639 44.9613 39.319 45.6543C38.3214 46.2969 37.1938 46.699 36.2577 47.4493C35.43 48.1062 34.512 48.5872 33.6337 49.176C33.2223 49.5097 32.7862 49.8121 32.329 50.0806C31.5532 50.3679 30.7351 50.5268 29.9075 50.5509C28.9263 50.5862 27.9508 50.7149 26.9944 50.935C25.5487 51.294 24.1428 51.5309 22.6573 51.2689C21.4646 51.0571 20.749 50.296 20.0044 49.4237C19.4009 48.7057 18.7178 48.4149 17.8829 47.9877C16.7444 47.4026 15.418 47.2985 14.3698 46.6415L14.3735 46.6595ZM54.4337 23.1027C54.4253 23.8745 54.5164 24.6442 54.7048 25.3931C54.4951 26.3013 54.3 27.2095 54.0614 28.1106C53.8988 28.7388 53.7 29.3599 53.494 29.9737C53.4565 29.7983 53.4033 29.6265 53.335 29.4604C53.1723 29.0763 52.9952 28.7029 52.8181 28.3296C52.9699 27.8844 53.1073 27.4357 53.2482 26.9941C53.6458 25.7197 54.1988 24.4274 54.4301 23.0848L54.4337 23.1027ZM53.5049 12.2649C53.7151 12.4699 53.9119 12.6881 54.094 12.9182C54.9289 13.9952 55.2108 15.2768 55.3445 16.6122C55.4529 17.6605 54.7626 19.2041 54.8024 20.4067C54.6745 20.9186 54.5779 21.4377 54.5132 21.9611C54.4941 21.9396 54.4689 21.9242 54.4409 21.917C54.4129 21.9098 54.3833 21.9111 54.3561 21.9208C54.3288 21.9304 54.3051 21.948 54.288 21.9712C54.271 21.9944 54.2613 22.0222 54.2602 22.0509C54.2277 23.8458 53.3711 25.709 52.8145 27.3926C52.7531 27.5793 52.688 27.7516 52.6266 27.9454C52.3664 27.4034 52.1098 26.8685 51.8821 26.2977C52.5299 24.6862 53.0885 23.0408 53.5555 21.3688C53.6024 21.2144 53.3603 21.1462 53.3097 21.3006C52.8507 22.7904 52.4314 24.2945 51.864 25.7413C51.8351 25.8167 51.8025 25.892 51.77 25.9638C51.7086 25.7951 51.6471 25.6264 51.5929 25.4505C51.0219 23.6556 51.5495 22.0724 51.7953 20.2918C51.8038 20.2388 51.799 20.1846 51.7813 20.1339C51.7637 20.0832 51.7337 20.0375 51.6941 20.0011C51.9367 19.332 52.0827 18.6322 52.1278 17.9225C52.1278 17.2045 52.2905 16.2496 52.0808 15.5604C51.8135 14.9153 51.4246 14.3268 50.9351 13.8265C52.0194 13.5106 52.7133 12.9111 53.5012 12.2469L53.5049 12.2649ZM-2.71106 9.57606C-2.47252 8.3914 -1.82556 7.64111 -0.788278 6.98775C0.0682974 6.44568 1.01884 6.07951 1.8971 5.5518L1.99107 5.48719C1.85735 5.67745 1.72001 5.8713 1.59712 6.06516C0.838133 7.26059 0.111666 8.41652 -0.712381 9.56887C-1.53643 10.7212 -2.25566 12.0351 -3.06164 13.2449C-3.44113 13.8157 -3.82063 14.5193 -4.26879 15.1224C-4.05194 14.1172 -3.83147 13.1157 -3.54595 12.1392C-3.28933 11.2418 -2.89538 10.4627 -2.71466 9.5581L-2.71106 9.57606ZM-7.24332 24.9694C-7.13128 23.9176 -6.57468 23.0309 -6.36144 22.0042C-6.13374 20.9272 -5.56992 20.019 -5.23018 18.9672C-4.89044 17.9153 -4.63383 16.7809 -4.39168 15.6681C-4.09503 15.2952 -3.82567 14.9017 -3.5857 14.4906C-2.72912 13.2162 -1.89062 11.931 -1.08103 10.6243C-0.318425 9.38938 0.614042 8.2837 1.32966 7.01647C1.69109 6.39542 2.07058 5.81386 2.47176 5.22153L2.53321 5.1282C3.37894 4.55382 4.18491 3.922 5.01258 3.33326C5.83693 2.80586 6.56935 2.1487 7.18112 1.38755C7.87867 0.43982 8.2654 -0.583295 9.10752 -1.4341C10.7954 -3.15724 12.3061 -4.83371 14.7024 -5.52656C15.9023 -5.88555 17.1022 -6.24453 18.3166 -6.55326C19.325 -6.80096 20.2538 -6.94456 21.1429 -7.50817C21.2143 -7.55258 21.2778 -7.60837 21.3309 -7.6733C22.1116 -7.84562 22.885 -8.03229 23.6115 -8.19743C25.8234 -8.66411 27.5871 -9.92057 29.593 -10.8791C30.6773 -11.3996 31.8772 -11.9776 32.9904 -11.195C33.6999 -10.7106 34.3448 -10.1388 34.9096 -9.49337C36.2288 -7.91742 37.5552 -6.52813 39.478 -5.67733C41.2851 -4.87679 43.4717 -4.60037 45.4198 -4.37062C46.9161 -4.18753 48.5244 -3.62392 49.9918 -3.18596C51.5965 -2.70491 53.4615 -1.66026 54.4012 -0.249441C54.2132 0.109547 54.0398 0.468538 53.8771 0.780858C53.5699 1.35883 53.2952 1.95116 53.035 2.54708C52.954 2.29006 52.832 2.04764 52.6736 1.8291C52.4965 2.18809 52.3121 2.54708 52.1459 2.90606C52.2615 3.26505 52.2941 3.65635 52.3917 4.03687C52.0989 4.70459 51.7989 5.36872 51.4556 6.0113C51.2571 6.38094 51.04 6.74038 50.805 7.08827C50.7472 6.95544 50.6857 6.81903 50.6279 6.67902C50.6062 6.62876 50.5882 6.5785 50.5701 6.53184C50.5086 6.69338 50.4436 6.85852 50.3821 7.02365C50.2773 7.31443 50.1761 7.60521 50.0713 7.90317C50.093 7.94984 50.1075 8.00369 50.1292 8.05036L49.9231 8.33396C49.4075 10.0254 48.7436 11.6687 47.9389 13.2449C47.9796 13.3372 48.0318 13.4241 48.0943 13.5034C48.275 13.7014 48.4999 13.8546 48.751 13.9506C49.0021 14.0466 49.2723 14.0828 49.54 14.0562C49.8079 14.2993 50.0557 14.5634 50.2809 14.846C51.0038 15.7542 51.2315 16.8563 51.3471 17.9943C51.4375 18.8882 50.852 20.2057 50.8845 21.2252C50.7774 21.6594 50.6954 22.0992 50.6388 22.5427C49.9593 23.8961 49.3702 25.2925 48.669 26.6316C48.4702 26.9906 48.2859 27.407 48.0907 27.8019C47.9831 27.3782 47.9058 26.9476 47.8594 26.5131C47.6317 24.2084 48.5606 22.0293 48.8027 19.7749C48.8064 19.7238 48.7991 19.6725 48.7812 19.6245C48.7633 19.5765 48.7353 19.5328 48.699 19.4964C48.6627 19.46 48.619 19.4318 48.5708 19.4136C48.5226 19.3953 48.4711 19.3876 48.4196 19.3908C48.6525 18.4266 48.5676 17.4136 48.1775 16.5009C47.8843 15.7729 47.4769 15.0956 46.9703 14.4942C46.7354 14.4942 46.4932 14.3362 46.6089 14.0526C46.0487 13.4136 45.4415 12.8105 44.8813 12.1967C45.1343 10.714 45.4162 9.23142 45.6258 7.73804C45.8063 7.84328 45.9656 7.98082 46.0957 8.14369C46.3884 8.53499 46.3667 9.00885 46.4968 9.46835C46.7005 10.2808 47.0245 11.0588 47.4582 11.7767C47.5992 11.4177 47.7401 11.0587 47.8847 10.6997C47.6823 10.3407 47.5233 9.9494 47.3317 9.51502C47.0715 8.91551 47.0715 8.11856 46.6089 7.61957C46.3495 7.3707 46.0455 7.17224 45.7125 7.03442C45.7957 6.31645 45.8535 5.59847 45.8752 4.89845C45.8752 4.56459 45.8752 4.21996 45.8752 3.87892C46.5012 3.86326 47.125 3.95682 47.7184 4.15534C48.2832 4.3106 48.792 4.62181 49.1858 5.05281C49.4967 5.46923 49.5075 5.96464 49.6195 6.45645C49.7171 6.21593 49.8147 5.97541 49.9087 5.73848C50.0027 5.50154 50.0785 5.31128 50.1653 5.08871C50.0863 4.85503 49.9637 4.63824 49.8039 4.44971C49.3051 3.91482 48.2534 3.55224 47.5883 3.28659C47.0696 3.10005 46.5292 2.97943 45.98 2.9276C46.0405 2.59898 46.1632 2.28471 46.3414 2.00141C46.4245 1.87218 46.2185 1.7573 46.139 1.88295C45.9437 2.19355 45.81 2.53839 45.7451 2.89888C45.5041 2.87495 45.2764 2.84623 45.062 2.81272C44.1064 2.70242 43.1681 2.47576 42.2682 2.13783C41.3357 1.77884 40.5297 1.13984 39.6009 0.788033C38.672 0.436226 37.8877 0.705466 36.9589 0.737776C35.6324 0.788033 34.1903 0.378791 33.4747 -0.77356C32.9001 -1.68898 32.4953 -2.52542 31.7471 -3.32596C30.3592 -4.81576 29.5388 -4.81935 27.6305 -4.06548C26.6619 -3.68495 26.0402 -2.93108 25.2523 -2.39977C25.1822 -2.65107 25.1279 -2.90644 25.0897 -3.16442C25.0391 -3.52341 24.4861 -3.4193 24.4933 -3.08544C24.5006 -2.75158 24.5186 -2.36747 24.5403 -2.00848C23.2826 -1.52384 21.8296 -1.93309 20.5068 -1.77873C19.2985 -1.62806 18.1299 -1.25169 17.0625 -0.669456H17.0227C15.1397 0.177755 13.6759 0.604949 12.8013 2.63323C12.1001 4.27021 11.7495 5.67386 10.105 6.60723C9.12274 7.12822 8.18901 7.73491 7.31486 8.42011C5.69929 9.75196 4.11625 10.7069 3.25606 12.6669C2.74284 13.848 2.7356 15.1045 2.12118 16.2568C1.88987 16.6948 1.61881 17.1148 1.35858 17.5348C2.08011 15.2599 2.93575 13.0291 3.92108 10.854C3.99336 10.6961 3.76205 10.5597 3.68615 10.7176C2.55586 13.1551 1.58168 15.661 0.76946 18.2205L0.69717 18.1487C0.60611 18.0909 0.518057 18.0286 0.433337 17.962C0.0935993 17.6928 -0.390712 18.1415 -0.0545874 18.4466C0.134629 18.6176 0.335059 18.7759 0.545379 18.9205C0.36828 19.4698 0.183949 19.9975 0.0321512 20.5647C-0.488299 22.2699 -0.900314 23.9679 -1.25812 25.709C-1.46052 26.6926 -2.13277 27.8377 -1.54365 28.7639C-1.5379 28.7773 -1.52705 28.7878 -1.5135 28.7932C-1.49994 28.7986 -1.48479 28.7984 -1.47137 28.7927C-1.45795 28.787 -1.44737 28.7762 -1.44195 28.7627C-1.43652 28.7492 -1.4367 28.7342 -1.44245 28.7209C-1.65931 28.0603 -1.44246 27.5829 -1.24006 26.9582C-1.01959 26.2654 -0.907549 25.5223 -0.755751 24.8258C-0.560581 23.9104 -0.329272 23.0094 -0.0798893 22.1155C-0.108804 22.4063 -0.126872 22.6971 -0.134101 22.9807C-0.166629 24.0576 0.187567 24.9838 0.0357685 26.0572C-0.325655 28.5701 -1.93038 30.663 -1.77135 33.3195C-1.69184 34.777 -0.867786 35.9365 -0.8967 37.4371C-0.918386 38.514 -1.11717 39.5551 -0.8967 40.6034C-0.8967 42.293 -0.8967 43.9814 -0.8967 45.6687C-0.8967 45.8195 -0.8967 45.9702 -0.8967 46.1246C-1.43553 45.76 -1.94873 45.3594 -2.43275 44.9256C-2.45269 44.9069 -2.47085 44.8865 -2.48697 44.8645C-2.48697 44.5056 -2.48697 44.1466 -2.48697 43.7876C-2.50866 42.3516 -2.34601 40.9947 -2.2665 39.5767C-2.18699 38.1587 -2.26651 36.6545 -2.29542 35.2042C-2.29542 35.1709 -2.30875 35.1389 -2.33247 35.1153C-2.35619 35.0918 -2.38836 35.0785 -2.42191 35.0785C-2.45546 35.0785 -2.48764 35.0918 -2.51136 35.1153C-2.53508 35.1389 -2.54841 35.1709 -2.54841 35.2042C-2.54841 36.6401 -2.50505 38.1299 -2.59902 39.5767C-2.646 40.2946 -2.80141 41.0126 -2.84478 41.7306C-2.88815 42.4486 -2.84478 43.206 -2.84478 43.9455V44.4589C-3.6511 43.3463 -4.04098 41.989 -3.94712 40.6213C-3.90014 39.4115 -3.61823 38.2556 -3.82424 37.0314C-3.84954 36.8914 -3.87123 36.7514 -3.89653 36.6114C-3.70824 35.5049 -3.57914 34.3893 -3.5098 33.2692C-3.5098 33.2378 -3.52236 33.2077 -3.54473 33.1855C-3.5671 33.1633 -3.59744 33.1508 -3.62908 33.1508C-3.66071 33.1508 -3.69104 33.1633 -3.71341 33.1855C-3.73578 33.2077 -3.74834 33.2378 -3.74834 33.2692C-3.79116 34.0744 -3.89019 34.8757 -4.04471 35.6673C-4.25713 34.4537 -4.24733 33.2121 -4.01579 32.002C-3.54955 29.7153 -2.08579 27.547 -2.20867 25.131C-2.25954 24.5829 -2.38101 24.0436 -2.5701 23.5263C-2.55948 23.5119 -2.55241 23.4952 -2.54941 23.4776C-2.54642 23.46 -2.5476 23.442 -2.55287 23.4249C-2.55813 23.4078 -2.56732 23.3922 -2.57972 23.3793C-2.59213 23.3663 -2.60739 23.3565 -2.62431 23.3504L-2.70021 23.0955C-2.67491 23.0201 -2.64961 22.9448 -2.63154 22.873C-2.37656 22.0075 -2.04392 21.1665 -1.63763 20.36C-0.990677 18.9851 -0.452153 17.5779 0.126125 16.1742C0.805602 14.5229 1.57183 12.9146 2.36696 11.3136C2.79705 10.4484 3.16932 9.56169 3.53797 8.67499C3.89919 8.50714 4.24195 8.30263 4.56079 8.06471C5.49327 7.3252 6.36792 6.58569 7.37629 5.93592C9.38581 4.6328 10.0653 3.30095 10.9688 1.11471C11.3809 0.116728 11.7351 -0.888435 12.4145 -1.73206C12.7045 -2.07498 13.0458 -2.37161 13.4265 -2.61158C13.4391 -2.58501 13.4617 -2.56444 13.4895 -2.55435C13.5172 -2.54426 13.5479 -2.54548 13.5747 -2.55773C15.1686 -3.15365 16.8781 -4.21984 18.5226 -4.48549C20.4273 -4.79422 22.7368 -4.17676 24.5186 -4.9809C25.4692 -5.40809 25.9643 -6.26966 26.8209 -6.80455C27.4945 -7.23321 28.2458 -7.5271 29.0328 -7.66971C30.2761 -7.80613 31.299 -7.08098 32.0471 -6.10453C33.1314 -4.70089 33.3916 -2.70492 35.1806 -1.98694C36.1166 -1.64498 37.1038 -1.46174 38.101 -1.44487C38.5564 -1.44487 38.972 -1.59564 39.4202 -1.61718C40.4683 -1.67103 41.1044 -1.07511 41.8453 -0.454061C43.3524 0.813166 44.9933 0.981889 46.8438 1.0142C47.957 1.0142 49.2184 0.928039 50.252 1.32652C50.6992 1.47504 51.1236 1.68402 51.5134 1.94757C51.6471 1.67833 51.7917 1.41626 51.9435 1.16138C51.3492 0.843321 50.7319 0.569732 50.0966 0.342893C49.2111 -0.0160952 48.1738 -0.0448189 47.245 -0.188414C46.1672 -0.311716 45.1087 -0.566105 44.0934 -0.945872C43.038 -1.36948 42.1308 -2.07309 41.0791 -2.47157C40.0273 -2.87005 39.1491 -2.56491 38.101 -2.52542C36.601 -2.47157 34.9746 -2.94184 34.1687 -4.2342C33.5217 -5.26449 33.0627 -6.20863 32.2206 -7.1061C30.6556 -8.78975 29.7268 -8.78975 27.5763 -7.94254C26.2029 -7.40047 25.462 -6.19787 24.1717 -5.66298C22.726 -5.07065 21.0562 -5.55169 19.5346 -5.37578C18.1722 -5.20468 16.8542 -4.7809 15.6493 -4.1265H15.6059C13.4771 -3.16801 11.8254 -2.69055 10.8423 -0.393034C10.0508 1.44857 9.65327 3.0353 7.79916 4.08713C6.69099 4.67543 5.63752 5.36019 4.65115 6.13336L4.38732 6.34875C4.37345 6.33648 4.3568 6.3277 4.3388 6.32317C4.32079 6.31863 4.30196 6.31847 4.28388 6.32269C4.2658 6.32692 4.249 6.33541 4.23492 6.34744C4.22084 6.35948 4.20989 6.3747 4.20299 6.39183L4.13793 6.54979C3.05366 7.40059 2.02722 8.15805 1.19233 9.14168C2.03445 7.79188 3.41147 5.52667 3.1404 5.41898C3.05005 5.38308 2.98499 5.53385 3.07173 5.57693C3.10426 5.59488 1.73446 7.77034 1.57905 8.00727C0.470675 9.68762 -0.525385 11.4385 -1.4027 13.2485C-2.21952 14.9465 -2.89538 16.7091 -3.72666 18.4036C-3.8387 18.6333 -4.22904 19.3405 -4.20374 19.7857C-4.8037 20.8913 -5.26271 22.0724 -5.81207 23.2032C-6.44801 24.4984 -7.01738 25.8248 -7.51799 27.1772C-7.61196 27.4357 -7.70955 27.6942 -7.7999 27.9598C-7.55271 26.9694 -7.36802 25.9647 -7.24692 24.9515L-7.24332 24.9694ZM-2.5448 49.5924C-2.5448 49.1616 -2.51588 48.7272 -2.51227 48.2965V45.8051C-2.03157 46.1892 -1.49667 46.5231 -0.936462 46.9179C-0.954534 48.0416 -0.979834 49.1652 -0.936462 50.2853C-1.46414 50.0232 -2.01351 49.797 -2.56287 49.5745L-2.5448 49.5924ZM-6.58552 41.6372L-6.70479 42.4055C-6.89601 41.789 -7.15287 41.1945 -7.47101 40.6321C-7.01775 37.768 -6.37054 34.9375 -5.53378 32.16C-5.07115 30.5768 -4.52902 29.0152 -3.99773 27.4501C-3.79894 26.8577 -3.67606 26.2115 -3.51342 25.5797C-3.51602 25.7503 -3.52929 25.9206 -3.55317 26.0895C-3.95074 28.9363 -5.77231 31.2876 -5.60606 34.2852C-5.57028 34.7727 -5.47812 35.2545 -5.33138 35.7211C-5.83737 37.6704 -6.29277 39.6197 -6.60359 41.6193L-6.58552 41.6372ZM-2.77611 21.0421C-2.81948 21.1498 -2.86646 21.2539 -2.90983 21.3616C-2.83406 19.8606 -2.41636 18.3963 -1.68822 17.0789C-1.09548 16.0594 -0.387098 15.1009 -0.0329027 13.9629C0.375506 12.6633 0.364663 11.2166 1.25377 10.093C1.69109 9.54016 2.45731 9.20271 3.20185 8.8509L3.18016 8.90475C2.77898 9.78067 2.34889 10.6387 1.91518 11.4966C1.07306 13.1659 0.292383 14.8568 -0.412394 16.5907C-1.09187 18.2492 -1.8581 19.8646 -2.54119 21.5268C-2.6713 21.857 -2.77611 22.1873 -2.87369 22.5247C-2.90443 22.3516 -2.92256 22.1764 -2.92791 22.0006C-2.92791 21.9755 -2.92791 21.9504 -2.92791 21.9252C-2.8231 21.6632 -2.71466 21.4047 -2.60262 21.1462C-2.56648 21.0098 -2.73996 20.9057 -2.79418 21.0242L-2.77611 21.0421ZM-2.28096 16.7127C-2.62701 17.0548 -2.90423 17.4593 -3.09778 17.9046C-3.24235 18.1918 -3.40498 18.461 -3.57485 18.7302C-3.12307 17.6066 -2.393 16.1814 -2.33517 16.0522C-1.64847 14.4511 -0.918389 12.8787 -0.0979567 11.3459C-0.535279 12.5628 -0.603955 13.8372 -1.23283 15.0219C-1.53643 15.5963 -1.90146 16.1348 -2.2412 16.6876L-2.28096 16.7127ZM-8.85887 37.3509C-9.1444 35.416 -8.85888 33.2944 -8.52999 31.3163V31.3666C-8.52732 31.3755 -8.52182 31.3833 -8.51434 31.3888C-8.50685 31.3944 -8.49776 31.3974 -8.48842 31.3974C-8.47907 31.3974 -8.46998 31.3944 -8.4625 31.3888C-8.45501 31.3833 -8.44952 31.3755 -8.44686 31.3666C-8.34204 29.884 -7.79629 28.4947 -7.27223 27.1018C-6.74816 25.709 -6.13013 24.3771 -5.49041 23.0453C-5.02056 22.0652 -4.62299 21.0493 -4.12061 20.0872C-4.06578 20.1348 -3.99775 20.1648 -3.92544 20.1734C-3.86761 20.1734 -3.81701 20.1016 -3.88207 20.0728C-3.94712 20.0441 -3.95797 19.9005 -3.92183 19.7139C-3.66883 19.2831 -3.36885 18.881 -3.13031 18.443L-3.05802 18.2995C-3.09055 18.4 -3.12669 18.4933 -3.1556 18.5938C-3.50924 19.9023 -3.71294 21.2462 -3.7628 22.6001C-3.76894 22.8326 -3.76049 23.0652 -3.7375 23.2966C-3.95005 23.7888 -4.19141 24.2683 -4.46035 24.7325C-5.1832 25.9423 -5.46511 27.3388 -6.07953 28.5988C-7.27585 31.0435 -8.6095 34.0949 -8.30229 36.8771C-8.30229 36.9309 -8.2047 36.956 -8.19385 36.8771C-7.98061 35.3406 -7.83244 33.8616 -7.37704 32.3718C-6.90439 30.9838 -6.33931 29.6287 -5.68557 28.3152C-5.15428 27.1736 -4.91574 25.9208 -4.26879 24.8258C-4.0565 24.4646 -3.86465 24.0919 -3.69413 23.7094C-3.64715 24.1079 -3.58931 24.4992 -3.55317 24.8976C-3.72665 25.4541 -3.84593 26.0356 -4.00134 26.5992C-4.48565 28.3332 -5.19042 30.0096 -5.71087 31.7364C-6.23132 33.4631 -6.67949 35.3262 -7.08067 37.1427C-7.30476 38.1551 -7.55052 39.1782 -7.6987 40.2121C-8.20108 39.2966 -8.70707 38.3812 -8.85887 37.3509ZM-6.54576 46.541C-6.75539 45.5466 -6.47709 44.4481 -6.54576 43.4071C-6.38312 42.2332 -6.21325 41.0593 -6.00724 39.8926C-5.79039 38.6684 -5.4904 37.4622 -5.19042 36.256C-4.85796 37.1043 -4.67342 38.0027 -4.64468 38.9125C-4.66275 39.8064 -4.78925 40.6859 -4.75672 41.5654V41.6983C-4.93937 44.0305 -4.87759 46.3754 -4.57239 48.6949C-5.47595 48.2318 -6.32891 47.5605 -6.56022 46.541H-6.54576ZM-4.2977 48.8314C-4.2977 47.7975 -4.45673 46.7313 -4.47119 45.701C-4.47119 44.8143 -4.50733 43.924 -4.49287 43.0373C-4.19804 43.9877 -3.63935 44.8363 -2.88093 45.4856C-2.88093 46.4728 -2.88093 47.4636 -2.88093 48.4508C-2.88093 48.7775 -2.88093 49.1114 -2.88093 49.4416C-3.30379 49.2693 -3.72666 49.0826 -4.13507 48.9067L-4.2977 48.8314ZM-0.603948 50.4109C-0.605724 50.3966 -0.605724 50.3821 -0.603948 50.3678C-0.669004 49.2909 -0.650931 48.1959 -0.636475 47.1118C-0.484676 47.2159 -0.332882 47.3236 -0.17747 47.4385C-0.14782 47.4603 -0.112914 47.4739 -0.076272 47.478C-0.0148296 47.5426 0.0393848 47.5964 0.082756 47.6359C0.44418 47.9447 0.841743 48.2139 1.23208 48.4903C1.23208 49.5134 1.26461 50.5437 1.34774 51.5668C0.740064 51.1142 0.0858574 50.7267 -0.603948 50.4109ZM3.85963 53.6238C3.20938 52.9868 2.50701 52.4044 1.75976 51.8828C1.70916 51.3981 1.66218 50.9171 1.63327 50.4468C1.60435 49.8796 1.58628 49.316 1.57182 48.7524C1.78506 48.9067 1.99468 49.0683 2.18985 49.2406C2.89102 49.8616 3.5199 50.5617 4.20299 51.1935C4.27889 52.2166 4.36924 53.2397 4.48128 54.2521C4.2825 54.051 4.07287 53.8644 3.85963 53.6238ZM4.80657 54.5249C4.73429 53.8823 4.68368 53.2397 4.63308 52.5971C4.60417 52.2202 4.56803 51.8469 4.53189 51.4735C4.83042 51.7358 5.14815 51.9758 5.48243 52.1915C5.7776 52.3736 6.08561 52.5344 6.40406 52.6725C6.49612 53.3978 6.54681 54.1278 6.55586 54.8588C6.55586 55.1854 6.53056 55.5085 6.53056 55.8316L6.03179 55.4726C5.57278 55.1388 5.18245 54.8444 4.80657 54.5249ZM6.84138 56.1152C6.82331 55.6126 6.87391 55.0813 6.84138 54.5716C6.82331 53.9972 6.7691 53.4085 6.71489 52.8377C6.9462 52.9418 7.17389 53.0387 7.39798 53.1572C7.68714 53.3352 7.96258 53.5344 8.22202 53.7531C8.22202 54.848 8.35214 56.0183 8.43165 57.0953C7.88499 56.7959 7.35419 56.4688 6.84138 56.1152ZM13.1229 59.224C13.0994 59.0793 13.0885 58.9327 13.0904 58.7861C13.1117 58.2502 13.0766 57.7136 12.9856 57.185C12.9121 56.748 12.8674 56.3067 12.8519 55.8639C13.0615 55.9321 13.2711 56.0003 13.4699 56.0793C13.806 56.2157 14.1566 56.3198 14.5072 56.4383C14.5072 56.546 14.5072 56.6573 14.5072 56.765C14.565 57.8204 14.6698 58.8471 14.6879 59.8918C14.1747 59.6548 13.647 59.4359 13.1229 59.224ZM16.7372 60.8539C16.7372 60.4697 16.7625 60.0856 16.7625 59.7015C16.7625 58.9835 16.7625 58.2656 16.7625 57.5476C17.0697 57.8384 17.3444 58.1758 17.6986 58.5635C17.7564 58.6281 17.8178 58.6892 17.8793 58.7502C17.8793 59.6907 17.8793 60.6313 17.9046 61.5718C17.7166 61.4462 17.5432 61.3241 17.3408 61.2128C17.1384 61.1016 16.9323 60.9651 16.7191 60.8539H16.7372ZM18.1829 61.7477C18.1829 61.5862 18.1829 61.4211 18.1829 61.2559C18.1829 60.5128 18.2046 59.7733 18.2082 59.0338C18.6903 59.4326 19.2364 59.7481 19.8237 59.9672C19.878 60.5858 19.878 61.208 19.8237 61.8267C19.8205 62.2045 19.841 62.5822 19.8852 62.9575L19.7298 62.8462C19.2093 62.5016 18.6889 62.1211 18.1612 61.7621L18.1829 61.7477ZM20.1599 63.1298C20.1315 62.8915 20.1158 62.6518 20.1129 62.4119C20.1791 61.6359 20.1948 60.8564 20.1599 60.0784L20.2647 60.1143C20.3102 60.4956 20.3344 60.8791 20.337 61.2631C20.337 61.9236 20.1671 62.5662 20.4345 63.1945L20.3008 63.2232L20.1599 63.1298ZM20.6948 63.1478C20.2502 63.015 20.5936 61.1123 20.5647 60.7426C20.5647 60.5523 20.5321 60.3656 20.5104 60.179C21.1467 60.3406 21.8019 60.4166 22.4585 60.4051C22.5272 60.879 22.5959 61.3528 22.6465 61.8411C22.6898 62.218 22.7187 62.5949 22.7549 62.9719C22.2574 62.9583 21.7596 62.9823 21.2658 63.0437C21.0664 63.0669 20.8685 63.1016 20.6731 63.1478H20.6948ZM24.8439 61.999C24.7536 62.358 24.5475 62.717 24.45 63.076C23.944 63.015 23.438 62.9683 22.932 62.9467C22.9103 62.5196 22.9031 62.0888 22.8669 61.658C22.8308 61.2272 22.7802 60.8072 22.7224 60.3836C23.1859 60.3632 23.648 60.3177 24.1066 60.2472C24.1536 59.9743 24.215 59.7087 24.2801 59.4394C23.7232 59.5166 23.1617 59.5562 22.5995 59.5579C22.5416 59.1738 22.4838 58.7897 22.4332 58.4056C22.3429 57.7558 22.285 57.0917 22.2344 56.4275C22.9425 56.4964 23.6564 56.4771 24.3596 56.3701C24.4782 57.5423 24.6677 58.7063 24.927 59.8559C24.9306 59.8772 24.9424 59.8963 24.96 59.909C24.9776 59.9218 24.9995 59.9272 25.021 59.9241C24.9957 59.9815 24.974 60.0425 24.9487 60.0964L25.1294 60.0641C25.0066 60.7103 24.974 61.4031 24.8222 61.999H24.8439ZM29.3183 51.8074C29.1774 51.1073 28.2775 51.1468 27.9269 51.6279C27.3376 52.4492 26.8589 53.3435 26.5029 54.288C26.38 54.9521 26.2246 55.6126 26.0728 56.2516C25.8341 57.4296 25.5129 58.5896 25.1114 59.723C24.9523 58.5994 24.7319 57.483 24.5692 56.3557C24.7752 56.327 24.9776 56.2911 25.1837 56.2516C25.2415 56.0183 25.2957 55.7849 25.3499 55.5337C25.0572 55.5839 24.7644 55.6306 24.4716 55.6629C24.3489 54.6858 24.0835 53.7316 23.6837 52.8305C23.6187 52.6905 23.4091 52.8125 23.4741 52.9525C23.8601 53.823 24.1229 54.7424 24.2548 55.6844C23.5629 55.7598 22.8649 55.7598 22.173 55.6844C22.1055 54.33 21.891 52.9868 21.5333 51.6781C21.4863 51.5238 21.2405 51.5884 21.2875 51.7427C21.6297 53.0228 21.8309 54.3361 21.8875 55.6593L21.7031 55.6306C21.1133 55.527 20.5562 55.2872 20.0767 54.9306C20.0767 54.0044 19.8418 53.1356 19.7948 52.2022C19.7948 52.0874 19.6069 52.0874 19.6141 52.2022C19.6466 53.0638 19.8093 53.8967 19.8454 54.7511C19.3881 54.3622 18.9683 53.932 18.5913 53.4659C18.4043 53.2474 18.1961 53.0478 17.9696 52.87C17.9479 52.59 17.9299 52.3135 17.9082 52.0371C17.8468 51.215 17.76 50.3247 17.16 49.7037C17.0227 49.5637 16.7986 49.7755 16.9468 49.9155C17.5865 50.5832 17.6227 51.6781 17.6444 52.633C17.3206 52.4209 16.9838 52.229 16.636 52.0587C16.5549 51.6244 16.5006 51.1856 16.4733 50.7448C16.4517 49.955 16.5348 49.1975 16.3035 48.4867C16.5548 48.5558 16.8022 48.6385 17.0444 48.7344C17.5684 48.9426 18.1467 49.0647 18.6636 49.2801C19.3864 49.5924 19.6972 50.016 20.2249 50.6012C20.7519 51.1661 21.4262 51.5749 22.173 51.7822C23.5103 52.1807 24.8258 51.9725 26.1487 51.6925C26.1703 51.6027 26.192 51.5094 26.2173 51.4197C26.2345 51.3634 26.2713 51.3151 26.321 51.2833C26.3708 51.2515 26.4303 51.2383 26.4889 51.246C26.5476 51.2538 26.6015 51.282 26.6412 51.3257C26.6808 51.3693 26.7035 51.4255 26.7053 51.4843C26.7053 51.513 26.7053 51.5417 26.7053 51.5704C27.6185 51.3368 28.5535 51.1973 29.4954 51.154C30.5147 51.154 31.7254 51.2653 32.7049 50.9207C33.6844 50.576 34.6494 49.797 35.5529 49.2657C36.4565 48.7344 37.3058 47.9985 38.2491 47.4241C39.1925 46.8497 40.2334 46.3005 40.9851 45.4138C41.6899 44.5845 42.0405 43.583 42.5682 42.6496C42.8481 42.1637 43.1608 41.6971 43.5042 41.2531C44.3753 41.7701 45.2535 42.2834 46.1354 42.786C45.733 43.2982 45.3547 43.8223 45.0005 44.3584C44.9499 44.0209 44.9066 43.6871 44.874 43.3496C44.874 43.2096 44.6427 43.206 44.6572 43.3496C44.6897 43.784 44.7512 44.2148 44.8162 44.6456C44.5704 45.0297 44.3355 45.4174 44.1223 45.8087C43.8571 46.3103 43.5525 46.7905 43.2115 47.2446C43.0984 46.7095 42.9301 46.1874 42.7091 45.6866C42.6404 45.5323 42.4164 45.6651 42.485 45.8195C42.7171 46.3621 42.8903 46.9277 43.0019 47.5067C42.5048 48.1128 41.9159 48.6384 41.2562 49.0647C40.0852 49.815 38.7587 50.2888 37.6636 51.1612C36.7963 51.8048 35.8964 52.4039 34.9674 52.9561C34.8867 52.6367 34.824 52.3132 34.7795 51.9869C34.7578 51.8181 34.4903 51.8145 34.512 51.9869C34.563 52.3633 34.6378 52.7362 34.7361 53.1033L34.5843 53.2002C34.1002 53.5792 33.588 53.9213 33.0519 54.2234C32.2676 54.5823 31.0929 54.7152 30.2147 54.7798L29.9183 54.7977C29.7015 53.8105 29.5027 52.8161 29.2967 51.8074H29.3183ZM30.905 58.4486C30.5869 57.465 30.3267 56.4814 30.099 55.4942C30.9781 55.5384 31.8593 55.5107 32.7338 55.4116C32.9254 56.2803 33.0952 57.1491 33.2904 58.0179C32.5071 58.2518 31.6996 58.3963 30.8833 58.4486H30.905ZM31.9025 63.0509C31.7718 62.6921 31.6703 62.3236 31.5989 61.9488C31.4507 61.0585 31.3604 60.1718 31.1471 59.2994C31.9463 59.3333 32.7469 59.2851 33.5362 59.1558C33.6627 59.7374 33.7928 60.3154 33.9301 60.8933C34.0169 61.2523 34.0891 61.6113 34.165 61.9703C33.8904 62.0995 33.6229 62.236 33.3555 62.3831C32.8825 62.6442 32.3894 62.8674 31.8808 63.0509H31.9025ZM36.7456 60.9328C36.5902 60.0174 36.33 59.1163 36.1529 58.2045C36.1529 58.1327 36.1276 58.0609 36.1131 57.9855C36.7528 57.5799 37.3781 57.1419 37.9817 56.7865C38.1046 56.7147 38.2166 56.6357 38.3431 56.5604C38.6106 57.7199 38.8708 58.8794 39.1708 60.0282C38.3431 60.3585 37.5335 60.6421 36.7239 60.9328H36.7456ZM39.4527 59.9097H39.4129C39.2358 59.3389 39.0515 58.7681 38.9214 58.2189C38.7913 57.6696 38.6612 57.0199 38.5311 56.424C39.525 55.7706 40.4358 55.0311 41.455 54.3993C41.4983 54.7582 41.5381 55.1172 41.5706 55.4762C41.6646 56.5245 41.6429 57.5978 41.7044 58.6569C40.9165 59.041 40.1972 59.5759 39.431 59.9097H39.4527ZM44.0211 56.8547C43.7575 57.4678 43.2925 57.974 42.7019 58.2907C42.4792 58.3405 42.2614 58.4102 42.0513 58.4989C42.0303 57.3744 41.9519 56.2518 41.8164 55.1352C41.7875 54.8336 41.7513 54.5321 41.7152 54.2305C42.4904 53.791 43.2419 53.3117 43.9669 52.7946C44.0211 53.0351 44.0717 53.2792 44.1114 53.5126C44.2104 54.4665 44.2454 55.4259 44.2162 56.3845C44.1391 56.54 44.0669 56.6968 43.9994 56.8547H44.0211ZM44.4476 55.8388C44.5126 55.1582 44.5126 54.4731 44.4476 53.7926C44.3954 53.3929 44.3218 52.9962 44.2271 52.6043C44.5701 52.3272 44.8882 52.0209 45.1776 51.6889C45.2716 51.574 45.362 51.4591 45.4487 51.3299C45.4993 52.1879 45.5571 53.0459 45.6439 53.9003C45.5246 54.0367 45.4053 54.1695 45.2825 54.3131C44.9327 54.7834 44.6449 55.2961 44.4259 55.8388H44.4476ZM45.9113 53.5987C45.8788 53.3761 45.8535 53.1572 45.8391 52.9418C45.8065 52.2848 45.7523 51.6279 45.6981 50.9745C46.3053 50.0411 46.7173 49.0073 47.2703 48.0272C47.3606 47.8657 47.4582 47.7077 47.5558 47.5462C47.5919 47.9052 47.6245 48.2642 47.6606 48.6231C47.748 49.6558 47.7794 50.6924 47.7546 51.7284C47.7546 51.7679 47.7546 51.8074 47.7546 51.8469L47.5775 52.0012C46.9884 52.5038 46.4137 53.0315 45.8896 53.5987H45.9113ZM48.0365 51.5489C48.0481 50.3051 47.9817 49.0618 47.8377 47.8262C47.8124 47.6108 47.8052 47.399 47.7871 47.1836C48.2975 46.4292 48.8489 45.7029 49.4388 45.0081C49.4677 45.5682 49.4894 46.1318 49.5436 46.6882C49.634 47.6682 49.6846 48.6339 49.6774 49.6211C49.6774 49.8293 49.6521 50.0376 49.6412 50.2458C49.1363 50.724 48.5923 51.1599 48.0148 51.5489H48.0365ZM50.0605 49.9119C50.0416 48.659 49.9559 47.408 49.8039 46.1641C49.7569 45.6687 49.7352 45.1769 49.7063 44.6922C49.9593 44.3907 50.2123 44.0963 50.4617 43.8127C50.8231 43.3963 51.1845 43.0086 51.5785 42.6424C51.6118 42.9548 51.625 43.2689 51.6182 43.583C51.5929 44.3404 51.5062 45.0943 51.4447 45.8482C51.356 46.8088 51.327 47.7739 51.358 48.738C50.9243 49.1473 50.487 49.535 50.0388 49.9155L50.0605 49.9119ZM64.4632 36.9022C63.5091 38.9592 61.5285 39.2572 59.7647 40.388C59.1994 40.8148 58.6776 41.2958 58.207 41.8239C57.4759 42.5187 56.6169 43.0672 55.677 43.4394C55.4524 43.5334 55.2401 43.6539 55.0445 43.7983C55.1499 42.955 55.1633 42.1029 55.0843 41.2567C55.0825 41.2201 55.0671 41.1855 55.041 41.1597C55.015 41.1338 54.9801 41.1185 54.9433 41.1167C54.7959 41.0904 54.6446 41.094 54.4987 41.1273C54.3527 41.1607 54.215 41.223 54.094 41.3106C54.0619 41.3296 54.0387 41.3605 54.0295 41.3966C54.0204 41.4326 54.026 41.4707 54.0452 41.5026C54.0643 41.5345 54.0955 41.5575 54.1318 41.5666C54.168 41.5757 54.2064 41.5701 54.2385 41.5511C55.0951 41.0234 54.8927 42.6065 54.8819 42.944C54.871 43.2814 54.8349 43.6619 54.7988 43.9958C53.6566 44.9974 53.0784 46.6954 52.164 47.8477C52.0122 48.0344 51.8568 48.2067 51.6941 48.3898C51.7194 47.4313 51.6941 46.462 51.7809 45.5179C51.8817 44.4881 51.8926 43.4515 51.8134 42.4198C52.5955 41.6992 53.4605 41.0726 54.3903 40.5531C55.816 39.7925 57.1781 38.9197 58.4636 37.9433C60.5309 36.3027 62.6453 33.2764 61.5032 30.5876C60.7442 28.7927 59.7756 27.1485 59.1864 25.2818C58.4311 22.8909 59.125 20.8088 59.4503 18.461C59.4606 18.3905 59.4538 18.3185 59.4306 18.2511C59.4073 18.1837 59.3682 18.1227 59.3166 18.0733C59.6386 17.1884 59.8321 16.2625 59.8912 15.3235C59.8912 14.3578 60.1081 13.1121 59.8298 12.1967C59.5515 11.2812 58.5539 10.1935 57.907 9.43246C57.8456 9.36425 57.7805 9.30322 57.7154 9.23861C57.9468 9.09142 58.1781 8.94065 58.413 8.80064C58.8467 8.53858 59.4069 8.31242 59.9093 8.02882C60.1478 8.25139 60.39 8.46678 60.6321 8.68217C61.2775 9.25968 61.8701 9.89277 62.4031 10.574C62.7287 10.8894 63.0195 11.2384 63.2705 11.6151C63.7404 12.5485 63.4043 13.0331 62.9597 13.8516C62.0997 15.4299 61.7359 17.2281 61.9152 19.0138C62.0742 21.0601 62.0778 23.2714 62.5043 25.2818C62.7308 26.2051 63.0343 27.108 63.4115 27.9813C63.5814 28.4014 63.8235 28.8214 63.9753 29.245C64.1276 29.7658 64.2233 30.3014 64.2608 30.8425C64.5572 32.9138 65.3885 34.838 64.4415 36.9022H64.4632Z" fill="white"/>
<path d="M32.5821 3.03832C32.5821 2.83011 32.5568 2.61831 32.5496 2.41009C32.5486 2.353 32.5319 2.29726 32.5013 2.24894C32.4706 2.20063 32.4272 2.16158 32.3758 2.13604C32.3244 2.11051 32.2669 2.09946 32.2096 2.1041C32.1523 2.10875 32.0974 2.12891 32.0508 2.16239C31.8036 1.73998 31.5129 1.34418 31.1834 0.981325C29.9979 -0.289491 29.2968 -0.293085 27.6704 0.349503C27.4689 0.431677 27.2764 0.533915 27.0957 0.654645C27.1318 0.819779 27.1716 0.984915 27.2077 1.15005C27.6883 0.859469 28.2189 0.659853 28.7727 0.56131C29.7124 0.457203 30.4859 1.00645 31.0497 1.74238C31.3695 2.20227 31.6465 2.69011 31.8773 3.19987C31.8195 4.39888 31.7328 5.5979 31.6641 6.78974C30.9087 6.7682 30.1461 6.72513 29.7413 6.05382C29.3365 5.38251 29.5606 4.68249 28.8703 4.16914C28.5454 3.93292 28.1525 3.80703 27.7499 3.81015C27.8438 4.3235 27.9306 4.83326 28.0101 5.34662C28.1244 5.44304 28.2252 5.5541 28.3101 5.67688C28.4149 5.95817 28.5054 6.24453 28.5812 6.53486C29.2281 7.89543 30.3883 7.41438 31.628 7.56874C31.628 7.87029 31.599 8.17185 31.5882 8.47699C31.5629 9.3601 31.4942 10.2899 31.4978 11.2125C30.5979 10.2719 30.2256 9.19855 28.7908 8.99034C28.6607 8.99034 28.545 8.94367 28.4294 8.91854C28.4547 9.27753 28.4763 9.63651 28.4944 9.9955C28.6644 9.96846 28.8376 9.96846 29.0076 9.9955C30.1353 10.2468 30.7136 11.575 31.5629 12.3505C31.6098 12.8994 31.7189 13.4413 31.8882 13.9659C31.9101 14.0405 31.9557 14.106 32.0183 14.1526C32.0809 14.1992 32.1569 14.2244 32.2352 14.2244C32.3134 14.2244 32.3894 14.1992 32.452 14.1526C32.5146 14.106 32.5602 14.0405 32.5821 13.9659C32.611 13.8869 32.6291 13.8044 32.6544 13.7218C32.5026 11.9951 32.6797 10.2432 32.7628 8.51647C32.7917 7.94209 32.7954 7.35335 32.8026 6.76102C32.7556 5.94612 32.7014 5.13122 32.6544 4.31632C32.726 4.38794 32.8021 4.45508 32.8821 4.51735C32.9074 4.18708 32.9399 3.8604 32.9905 3.53731C32.8643 3.4153 32.7527 3.27918 32.658 3.13166C32.6291 3.1173 32.6038 3.07781 32.5821 3.03832Z" fill="white"/>
<path d="M25.1986 35.5557C26.7636 35.3833 27.7105 33.4017 28.2563 32.1596C28.802 30.9175 29.4562 29.6216 30.7501 28.9503C31.6139 28.5015 32.4777 28.6308 33.3668 28.3651C34.4258 28.0528 35.1125 26.6456 35.0041 25.5255C34.8704 24.1542 33.2331 23.4506 32.1127 23.0557C30.5805 22.5822 29.1538 21.8218 27.9093 20.8156C27.1865 20.2125 26.6913 19.7781 25.7986 19.5197C25.3251 19.3797 24.0927 18.8304 23.4927 19.1607C23.0626 19.3868 22.9687 19.9253 22.7879 20.3884C21.682 21.2141 21.6025 22.0182 21.588 23.5044C21.6007 24.0988 21.5178 24.6915 21.3422 25.2599C20.9447 26.4804 19.8062 27.1912 19.3725 28.3185C18.7653 29.8872 20.276 31.876 21.1543 33.0284C22.1482 34.31 23.3156 35.7423 25.1986 35.5557ZM22.1193 25.346C22.3831 23.7629 21.5121 22.3054 22.3904 21.0382C22.3932 21.0621 22.4017 21.085 22.4152 21.105C22.4287 21.1249 22.4468 21.1414 22.468 21.153C22.4892 21.1646 22.513 21.171 22.5372 21.1716C22.5614 21.1723 22.5854 21.1671 22.6072 21.1567C23.1421 20.8731 23.3481 20.2807 23.8541 20.0438C24.3601 19.8069 25.4083 20.2484 26.0227 20.4853C27.0311 20.8766 27.5624 21.5623 28.4298 22.1582C29.0972 22.574 29.8027 22.9262 30.5369 23.2101C31.5127 23.6301 32.9801 23.8957 33.6343 24.8004C34.3933 25.8558 33.7752 26.9364 32.7199 27.4174C32.3223 27.5969 31.9392 27.5646 31.5597 27.7441C31.0157 28.0452 30.5077 28.4065 30.0453 28.821C29.4379 29.2887 28.8883 29.8261 28.4081 30.4221C27.9599 31.0468 27.9671 31.7863 27.6238 32.4648C26.7672 34.1592 24.7722 35.5305 23.0446 34.1628C22.2097 33.5022 21.5591 32.2601 21.0314 31.3268C19.6255 28.8175 21.7434 27.6077 22.1193 25.3281V25.346Z" fill="white"/>
<path d="M23.2212 31.9659C23.6307 32.2714 24.1405 32.4136 24.6502 32.3644C25.1599 32.3153 25.6327 32.0783 25.9753 31.7002C26.4704 31.1905 26.7632 30.4761 27.1499 29.8873C27.7463 28.9827 28.5016 28.3437 29.2028 27.5396C29.904 26.7354 30.1786 25.8882 29.6546 24.9369C29.1739 24.0682 27.9342 23.3753 27.0668 22.9589C26.0946 22.4886 25.1874 22.1978 24.3706 22.8404C24.4211 22.7973 24.3706 22.7112 24.3127 22.7507C23.4019 23.3574 22.9357 24.0322 23.1309 25.1415C23.355 26.4016 23.514 27.0011 22.9899 28.0996C22.7927 28.4504 22.6513 28.8294 22.5707 29.2232C22.3068 30.3576 22.1803 31.3053 23.2212 31.9659ZM24.0597 28.0601C24.544 26.5523 22.9357 24.3769 24.0959 23.0989C24.0417 23.1707 24.1212 23.2892 24.2043 23.2317C25.8307 22.1548 29.3835 24.5097 29.2642 26.2077C29.1956 27.1016 28.2306 27.6796 27.721 28.3078C27.2114 28.936 26.8752 29.7078 26.4018 30.3791C25.4548 31.711 23.5104 32.2961 23.2754 30.1602C23.1742 29.3273 23.8393 28.7565 24.0597 28.0745V28.0601Z" fill="white"/>
<path d="M25.1543 28.7736C25.2458 28.9636 25.4091 29.1101 25.6087 29.1814C25.8083 29.2526 26.0281 29.2428 26.2205 29.1542C27.0265 28.8239 27.3048 27.6967 27.4819 26.9572C27.4846 26.9411 27.4819 26.9246 27.474 26.9104C27.4661 26.8961 27.4535 26.885 27.4384 26.8787C27.4233 26.8724 27.4065 26.8715 27.3907 26.8759C27.375 26.8804 27.3612 26.8901 27.3517 26.9033C27.0662 27.3054 26.9578 27.7541 26.7156 28.1741C26.5783 28.4075 26.2638 28.9136 25.9422 28.8921C25.2482 28.8562 25.5302 28.2423 25.6061 27.9408C25.724 27.5876 25.7838 27.2179 25.7832 26.8459C25.7611 26.6559 25.7212 26.4684 25.6639 26.2859L25.5555 25.9269C25.5181 25.7913 25.5192 25.6481 25.5588 25.5131C25.5983 25.3781 25.6747 25.2567 25.7795 25.1622C25.7897 25.1942 25.8072 25.2235 25.8306 25.2478C25.8541 25.272 25.8828 25.2906 25.9146 25.302C25.9464 25.3135 25.9804 25.3175 26.014 25.3138C26.0476 25.3101 26.0799 25.2988 26.1084 25.2807C26.2286 25.1949 26.3666 25.1368 26.5123 25.1107C26.658 25.0846 26.8077 25.0912 26.9506 25.1299C27.4313 25.2125 27.3409 25.8479 27.3409 26.2284C27.3409 26.2475 27.3485 26.2657 27.3621 26.2792C27.3756 26.2926 27.394 26.3002 27.4132 26.3002C27.4324 26.3002 27.4507 26.2926 27.4643 26.2792C27.4778 26.2657 27.4855 26.2475 27.4855 26.2284C27.5591 25.9026 27.5529 25.5641 27.4674 25.2412C27.377 25.0366 27.1638 24.9217 26.9975 24.7853C26.7984 24.6046 26.5437 24.4958 26.2747 24.4766C26.164 24.4764 26.0562 24.5111 25.9666 24.5756C25.877 24.6401 25.8103 24.7311 25.7759 24.8356C25.584 24.9279 25.4211 25.0708 25.3052 25.2487C25.1892 25.4265 25.1245 25.6325 25.1181 25.8443C25.153 26.0793 25.2074 26.311 25.2808 26.5371C25.347 26.9735 25.3124 27.4192 25.1796 27.8403C25.0667 28.1399 25.0578 28.4684 25.1543 28.7736Z" fill="white"/>
</g>
<mask id="path-7-inside-1_712_1731" fill="white">
<path fill-rule="evenodd" clip-rule="evenodd" d="M0 0V51H51.3462V20.4382V17.2865L51.3458 17.2863V15.0932H48.4612V12.2247H45.5766V9.3562H42.692V6.48768H39.8074L39.8073 0H36.6346H34.2308H34.0381H0Z"/>
</mask>
<path d="M0 51H-3V54H0V51ZM0 0V-3H-3V0H0ZM51.3462 51V54H54.3462V51H51.3462ZM51.3462 17.2865H54.3462V15.3724L52.6103 14.5659L51.3462 17.2865ZM51.3458 17.2863H48.3458V19.2004L50.0816 20.007L51.3458 17.2863ZM51.3458 15.0932H54.3458V12.0932H51.3458V15.0932ZM48.4612 15.0932H45.4612V18.0932H48.4612V15.0932ZM48.4612 12.2247H51.4612V9.22472H48.4612V12.2247ZM45.5766 12.2247H42.5766V15.2247H45.5766V12.2247ZM45.5766 9.3562H48.5766V6.3562H45.5766V9.3562ZM42.692 9.3562H39.692V12.3562H42.692V9.3562ZM42.692 6.48768H45.692V3.48768H42.692V6.48768ZM39.8074 6.48768L36.8074 6.48773L36.8074 9.48768H39.8074V6.48768ZM39.8073 0L42.8073 -4.93912e-05L42.8072 -3H39.8073V0ZM3 51V0H-3V51H3ZM51.3462 48H0V54H51.3462V48ZM48.3462 20.4382V51H54.3462V20.4382H48.3462ZM48.3462 17.2865V20.4382H54.3462V17.2865H48.3462ZM50.0816 20.007L50.082 20.0072L52.6103 14.5659L52.6099 14.5657L50.0816 20.007ZM54.3458 17.2863V15.0932H48.3458V17.2863H54.3458ZM51.3458 12.0932H48.4612V18.0932H51.3458V12.0932ZM51.4612 15.0932V12.2247H45.4612V15.0932H51.4612ZM48.4612 9.22472H45.5766V15.2247H48.4612V9.22472ZM48.5766 12.2247V9.3562H42.5766V12.2247H48.5766ZM45.5766 6.3562H42.692V12.3562H45.5766V6.3562ZM45.692 9.3562V6.48768H39.692V9.3562H45.692ZM42.692 3.48768H39.8074V9.48768H42.692V3.48768ZM42.8074 6.48763L42.8073 -4.93912e-05L36.8073 4.93912e-05L36.8074 6.48773L42.8074 6.48763ZM39.8073 -3H36.6346V3H39.8073V-3ZM36.6346 -3H34.2308V3H36.6346V-3ZM34.2308 -3H34.0381V3H34.2308V-3ZM0 3H34.0381V-3H0V3Z" fill="white" mask="url(#path-7-inside-1_712_1731)"/>
<rect x="48.4614" y="7.83203" width="2.88461" height="2.86517" fill="white"/>
<rect x="43.4619" y="3.82031" width="2.88462" height="2.86517" fill="white"/>
<rect x="48.4614" width="2.88461" height="2.86517" fill="white"/>
<path fill-rule="evenodd" clip-rule="evenodd" d="M60.0538 10.2788V2.9368H62.9923V10.2788H60.0538ZM60.0538 23.4944V13.2156H64.4616V11.7472H65.9308V1.4684H64.4616V0H57.1152V23.4944H60.0538ZM80.9173 23.4944V20.5576H77.9788V2.9368H80.9173V0H72.1018V2.9368H75.0403V20.5576H72.1018V23.4944H80.9173ZM90.0268 23.4944V13.2156H87.0883V23.4944H90.0268ZM95.9039 23.4944V13.2156H94.4346V11.7472H92.9653V10.2788H91.4961V8.81039H90.0268V0H87.0883V10.2788H88.5575V11.7472H90.0268V13.2156H91.4961V14.684H92.9653V23.4944H95.9039ZM95.9039 10.2788V0H92.9653V10.2788H95.9039ZM110.89 23.4944V20.5576H105.013V13.2156H109.421V10.2788H105.013V2.9368H110.89V0H102.075V23.4944H110.89ZM120 23.4944V0H117.061V23.4944H120Z" fill="white"/>
<path fill-rule="evenodd" clip-rule="evenodd" d="M64.8596 50.9998V49.4598H66.4085V50.9998H71.0552V49.4598H72.6041V26.3594H69.5063V47.9198H66.4085V26.3594H63.3108V47.9198H60.213V26.3594H57.1152V49.4598H58.6641V50.9998H64.8596ZM82.2071 47.9198V29.4394H85.3049V47.9198H82.2071ZM86.8538 50.9998V49.4598H88.4026V27.8994H86.8538V26.3594H80.6582V27.8994H79.1094V49.4598H80.6582V50.9998H86.8538ZM98.0057 47.9198V29.4394H101.104V47.9198H98.0057ZM102.652 50.9998V49.4598H104.201V27.8994H102.652V26.3594H96.4569V27.8994H94.908V49.4598H96.4569V50.9998H102.652ZM113.804 47.9198V29.4394H116.902V47.9198H113.804ZM118.451 50.9998V49.4598H120V27.8994H118.451V26.3594H110.707V50.9998H118.451Z" fill="white"/>
</svg>
