<?xml version="1.0" encoding="utf-8"?>
<!-- Generator: Adobe Adobe Illustrator 24.2.0, SVG Export Plug-In . SVG Version: 6.00 Build 0)  -->
<svg version="1.1" xmlns="http://www.w3.org/2000/svg" xmlns:xlink="http://www.w3.org/1999/xlink" x="0px" y="0px" width="1200px"
	 height="1200px" viewBox="0 0 1200 1200" style="enable-background:new 0 0 1200 1200;" xml:space="preserve">
<style type="text/css">
	.st0{fill:#251B40;}
	.st1{fill:#EC9A29;}
	.st2{fill:#FFFFFF;}
</style>
<g id="Layer_2">
	<circle class="st0" cx="600" cy="600" r="385"/>
	<g>
		<g id="Слон_1_">
			<path class="st1" d="M716.65,521.38c-23.55-34.69-60.29-55.42-106.22-60.34c-73.51-7.88-160.76,35.03-160.76,145.98l20.31,0.21
				c0-107.12,85.16-130.84,136.85-124.95c140.09,15.98,122.68,182.68,88.74,203.43c-54.37,33.25-68.25-30.92-68.25-30.92h-19.9
				c0,0-7.57,43.16-45.99,36.58c-25.14-4.3-32.32-31.06-34.27-40.5c56-29.89,53.76-96.25,53.76-96.25l-48.6-14.79
				c0,0-31.74,51.03-29.7,98.92c-48.74,14.24-82.36-20.03-82.49-20.16l-14.91,13.83c0.59,0.63,40.91,45.72,101.51,26.39
				c2.32,9.28,13.25,47.16,51.03,53.63c32.77,5.61,51.84-13.5,58.19-23.41c8.52,14.15,24.84,26.12,48.68,27.21
				c0.67,0.03,1.34,0.01,2.02,0.05c32.3,1.48,69.57-26.78,75.54-88.46C745.9,589.54,736.59,550.75,716.65,521.38z M542.65,564.79
				l16.32,4.86c-1.1,7.57-4.29,38.8-34.29,58.15C526.04,600.27,536.51,577.06,542.65,564.79z"/>
			
				<rect x="487.46" y="551.4" transform="matrix(0.7134 -0.7008 0.7008 0.7134 -249.8432 510.8304)" class="st1" width="24.16" height="18.88"/>
		</g>
		<path class="st2" d="M322.76,723.2c-0.58-0.96-0.73-2.01-0.45-3.12c0.28-1.12,0.9-1.96,1.86-2.54l53.2-31.99
			c0.96-0.58,2-0.73,3.12-0.45c1.11,0.28,1.96,0.9,2.54,1.86c0.58,0.96,0.72,1.99,0.43,3.08c-0.29,1.09-0.92,1.92-1.89,2.5
			l-50.7,30.49l17.59,29.25c0.51,0.86,0.65,1.76,0.42,2.7c-0.23,0.94-0.78,1.67-1.64,2.19c-0.8,0.48-1.68,0.61-2.62,0.37
			c-0.94-0.23-1.67-0.78-2.19-1.64L322.76,723.2z"/>
		<path class="st2" d="M356.64,775.43c-0.68-0.9-0.95-1.89-0.8-2.99c0.15-1.1,0.67-1.98,1.57-2.66l49.55-37.7
			c0.9-0.68,1.89-0.95,2.99-0.8c1.09,0.15,1.98,0.67,2.66,1.57c0.68,0.9,0.95,1.89,0.8,2.99c-0.15,1.1-0.67,1.98-1.57,2.66
			l-49.55,37.7c-0.9,0.68-1.89,0.95-2.99,0.8C358.21,776.85,357.32,776.33,356.64,775.43z"/>
		<path class="st2" d="M419.86,753.45c-0.71-0.61-1.11-1.39-1.21-2.34c-0.09-0.95,0.18-1.8,0.84-2.56c0.61-0.71,1.4-1.1,2.37-1.18
			c0.97-0.07,1.81,0.2,2.52,0.81l18.42,15.83l18.42,15.83c0.76,0.65,1.17,1.46,1.25,2.43c0.07,0.97-0.2,1.81-0.81,2.52
			c-0.65,0.76-1.45,1.16-2.4,1.21c-0.95,0.05-1.8-0.25-2.56-0.9l-15.29-13.14l-38.69,45.01c-0.73,0.85-1.66,1.31-2.79,1.37
			c-1.13,0.06-2.12-0.27-2.97-1.01c-0.85-0.73-1.32-1.65-1.4-2.75c-0.08-1.1,0.24-2.08,0.97-2.93l38.69-45.01L419.86,753.45z"/>
		<path class="st2" d="M469.87,794.26c-0.88-0.32-1.53-0.91-1.95-1.76c-0.42-0.85-0.46-1.75-0.12-2.69c0.32-0.88,0.92-1.53,1.8-1.94
			c0.88-0.41,1.76-0.46,2.64-0.14l22.82,8.3l22.82,8.3c0.94,0.34,1.61,0.95,2.03,1.83c0.41,0.88,0.46,1.76,0.14,2.64
			c-0.34,0.94-0.95,1.6-1.82,1.98c-0.87,0.38-1.78,0.4-2.72,0.06l-18.95-6.89l-20.28,55.78c-0.38,1.06-1.09,1.81-2.12,2.27
			c-1.03,0.46-2.08,0.49-3.13,0.11c-1.06-0.38-1.82-1.08-2.29-2.08c-0.47-1-0.51-2.03-0.12-3.09l20.28-55.78L469.87,794.26z"/>
		<path class="st2" d="M527.68,874.61c-1.11-0.16-2.01-0.7-2.7-1.63c-0.69-0.92-0.95-1.94-0.79-3.05l8.99-61.42
			c0.16-1.11,0.7-2.01,1.63-2.7c0.92-0.68,1.94-0.95,3.05-0.78c1.11,0.16,2,0.7,2.65,1.62c0.66,0.92,0.9,1.93,0.74,3.05l-8.57,58.54
			l33.77,4.95c0.99,0.14,1.77,0.61,2.36,1.39c0.58,0.78,0.8,1.66,0.65,2.65c-0.14,0.93-0.59,1.68-1.37,2.26
			c-0.78,0.58-1.67,0.8-2.65,0.65L527.68,874.61z"/>
		<path class="st2" d="M592.63,881.35c-1.12,0.14-2.13-0.14-3.04-0.84c-0.91-0.7-1.44-1.61-1.58-2.73l-3.41-26.41l-0.9-6.97
			l-3.63-28.18c-0.14-1.12,0.13-2.13,0.84-3.04c0.7-0.91,1.61-1.44,2.73-1.58l37.85-4.88c0.99-0.13,1.87,0.11,2.64,0.7
			c0.77,0.59,1.22,1.39,1.35,2.38c0.12,0.93-0.12,1.78-0.71,2.55c-0.59,0.77-1.39,1.22-2.38,1.35l-33.85,4.36l3.26,25.3l29.76-3.84
			c0.99-0.13,1.87,0.11,2.64,0.7c0.77,0.59,1.22,1.36,1.33,2.29c0.13,0.99-0.11,1.87-0.7,2.64c-0.59,0.77-1.39,1.22-2.38,1.35
			l-29.76,3.84l3.03,23.53l33.85-4.36c0.99-0.13,1.87,0.11,2.64,0.7c0.77,0.6,1.22,1.39,1.35,2.38c0.12,0.93-0.12,1.78-0.71,2.55
			c-0.6,0.77-1.39,1.22-2.38,1.35L592.63,881.35z"/>
		<path class="st2" d="M678.29,811.68c-1.01-0.93-1.45-2.04-1.34-3.36c0.11-1.31,0.75-2.33,1.93-3.05c0.75-0.46,1.57-0.64,2.46-0.57
			c0.89,0.08,1.67,0.43,2.34,1.04l40.28,37.14l-14.42-51.63c-0.33-1.26-0.27-2.45,0.18-3.57c0.45-1.12,1.21-2,2.28-2.66
			c1.07-0.65,2.21-0.93,3.44-0.84c1.23,0.09,2.3,0.59,3.22,1.49L758.12,822l-14.76-52.74c-0.19-0.91-0.13-1.77,0.18-2.58
			c0.31-0.81,0.86-1.46,1.66-1.95c1.12-0.68,2.3-0.79,3.55-0.3c1.25,0.48,2.05,1.38,2.42,2.7l17,61.26
			c0.35,1.18,0.31,2.34-0.12,3.48c-0.44,1.15-1.19,2.04-2.25,2.7c-1.07,0.65-2.22,0.92-3.47,0.8c-1.24-0.12-2.31-0.6-3.2-1.45
			l-39.46-36.32l14.42,51.63c0.35,1.18,0.3,2.35-0.16,3.51c-0.46,1.16-1.23,2.07-2.29,2.72c-1.07,0.65-2.22,0.92-3.47,0.8
			c-1.25-0.12-2.31-0.6-3.2-1.45L678.29,811.68z"/>
		<path class="st2" d="M811.27,798.26c-0.73,0.85-1.67,1.33-2.82,1.41c-1.15,0.09-2.15-0.24-3-0.97l-20.21-17.34l-5.34-4.58
			l-21.56-18.5c-0.85-0.73-1.32-1.67-1.41-2.82c-0.09-1.14,0.24-2.15,0.97-3l24.85-28.96c0.65-0.76,1.46-1.17,2.43-1.25
			c0.97-0.07,1.83,0.21,2.59,0.87c0.71,0.61,1.1,1.4,1.18,2.37c0.07,0.97-0.22,1.83-0.87,2.59l-22.23,25.9l19.35,16.61l19.54-22.77
			c0.65-0.76,1.46-1.17,2.43-1.25c0.97-0.07,1.81,0.19,2.52,0.81c0.76,0.65,1.18,1.46,1.25,2.43c0.07,0.97-0.22,1.83-0.87,2.59
			l-19.54,22.77l18,15.45l22.23-25.9c0.65-0.76,1.46-1.17,2.43-1.25c0.97-0.07,1.83,0.21,2.59,0.87c0.71,0.61,1.1,1.4,1.18,2.37
			c0.07,0.97-0.22,1.84-0.87,2.59L811.27,798.26z"/>
		<path class="st2" d="M857.22,743.97c-0.57,0.97-1.41,1.6-2.52,1.89c-1.11,0.29-2.15,0.15-3.12-0.42l-53.56-31.37
			c-0.97-0.57-1.6-1.41-1.89-2.52c-0.29-1.11-0.15-2.15,0.42-3.12l13.22-22.57c1.26-2.16,2.85-3.94,4.77-5.36
			c1.91-1.41,4.01-2.42,6.27-3.01c2.27-0.59,4.58-0.74,6.94-0.44c2.36,0.3,4.62,1.08,6.78,2.34c2.43,1.42,4.37,3.21,5.82,5.37
			c1.45,2.16,2.42,4.5,2.9,7.02c3.12-1.87,6.53-2.82,10.21-2.88c3.69-0.05,7.2,0.91,10.55,2.86c2.43,1.42,4.45,3.22,6.07,5.4
			c1.62,2.18,2.77,4.55,3.44,7.12c0.67,2.57,0.83,5.2,0.49,7.89c-0.35,2.69-1.23,5.25-2.65,7.68L857.22,743.97z M830.4,686.43
			c-1.29-0.76-2.67-1.22-4.13-1.39c-1.46-0.17-2.87-0.07-4.24,0.29c-1.37,0.36-2.65,0.97-3.84,1.83c-1.19,0.86-2.18,1.96-2.97,3.31
			l-10.57,18.04l19.17,11.23l10.57-18.04c0.79-1.35,1.27-2.75,1.43-4.21c0.17-1.46,0.07-2.87-0.29-4.24
			c-0.36-1.37-0.97-2.65-1.83-3.84C832.86,688.21,831.75,687.22,830.4,686.43z M829.89,723.29l23.3,13.65l11.47-19.58
			c0.95-1.62,1.53-3.32,1.75-5.12c0.22-1.79,0.11-3.52-0.33-5.19c-0.44-1.67-1.17-3.22-2.21-4.67c-1.04-1.44-2.37-2.64-3.99-3.58
			c-1.62-0.95-3.32-1.53-5.12-1.75c-1.79-0.22-3.52-0.11-5.19,0.33c-1.67,0.44-3.22,1.2-4.65,2.28c-1.43,1.08-2.62,2.43-3.57,4.05
			L829.89,723.29z"/>
		<g>
			<path class="st2" d="M316.95,518.73c0.84-4.06,2.23-9.27,4.7-15.64c3.03-7.82,7.06-12.84,11.75-15.21
				c4.21-2.24,9.44-2.51,14.89-0.4c5.54,2.15,9.27,5.47,11.26,9.8c2.83,5.91,2.47,13.6-0.53,21.33c-0.92,2.36-1.85,4.51-3.01,6.15
				l24.54,9.51l-3.06,7.91L316.95,518.73z M349.56,522.27c1.12-1.55,2.15-3.66,3.17-6.3c3.7-9.54,1.32-17.16-7.14-20.43
				c-8.09-3.13-14.22,1.08-17.6,9.81c-1.34,3.45-2.09,6.2-2.25,7.7L349.56,522.27z"/>
			<path class="st2" d="M382.47,480.31l12.32,17.94l-5.31,6.98l-38.77-57.54l6.2-8.15l65.86,21.93l-5.49,7.21l-20.7-6.92
				L382.47,480.31z M390.24,459.15l-18.94-6.33c-4.3-1.43-7.99-3.02-11.61-4.54l-0.12,0.16c2.51,3.14,5.04,6.41,7.46,9.84
				l11.23,16.63L390.24,459.15z"/>
			<path class="st2" d="M391.14,406.17c1.3-5.19,4.13-10.6,9.35-15.44c8.37-7.75,18.2-8.75,25.09-1.32
				c5.5,5.94,5.38,14.41,0.92,20.94l0.13,0.14c7.45-5.58,16.5-5.72,22.92,1.22c9.27,10.01,4.33,22.03-4.46,30.18
				c-4.36,4.04-9.8,7.35-15.5,8.51l-2.86-6.39c3.96-0.88,9.58-3.43,13.51-7.07c7.15-6.63,7.51-14.13,2.61-19.42
				c-6.69-7.22-15.55-2.87-21.7,2.83l-2.86,2.65l-4.37-4.72l2.86-2.65c6.36-5.9,7.65-14.4,3.08-19.33
				c-4.5-4.86-10.45-4.4-15.67,0.44c-3.65,3.38-6.05,8.39-7.1,12.42L391.14,406.17z"/>
			<path class="st2" d="M440.67,361.14c3.21-2.63,7.57-5.8,13.49-9.19c7.27-4.17,13.57-5.53,18.7-4.42
				c4.68,0.91,8.92,3.99,11.82,9.06c2.96,5.16,3.76,10.09,2.58,14.7c-1.51,6.37-6.65,12.12-13.83,16.24
				c-2.2,1.26-4.28,2.34-6.21,2.89l13.09,22.83l-7.36,4.22L440.67,361.14z M463.78,384.41c1.85-0.5,3.98-1.49,6.43-2.9
				c8.88-5.09,11.82-12.5,7.31-20.37c-4.31-7.53-11.73-8.11-19.84-3.46c-3.21,1.84-5.52,3.5-6.6,4.57L463.78,384.41z"/>
			<path class="st2" d="M513.34,376.29l-0.2,21.76l-8.35,2.67l1.24-69.38l9.75-3.12l41.38,55.74l-8.63,2.76l-12.98-17.54
				L513.34,376.29z M531.84,363.41l-11.89-16.05c-2.7-3.64-4.82-7.06-6.9-10.38l-0.19,0.06c0.26,4.01,0.46,8.14,0.47,12.34
				l-0.33,20.06L531.84,363.41z"/>
			<path class="st2" d="M606.21,318.61l0.02,7.12l-28.37,0.07l0.04,17.64c2.05-0.3,5.94-0.5,8.09-0.51
				c6.24-0.02,12.38,1.33,16.97,4.34c4.98,3.2,8.4,8.36,8.42,16.06c0.02,6.14-2.02,10.83-5.42,14.25
				c-5.35,5.28-14.21,7.35-23.18,7.37c-5.95,0.01-10.43-0.36-13.26-0.75l-0.16-65.51L606.21,318.61z M578,377.85
				c1.95,0.39,4.19,0.48,7.12,0.47c5.26-0.01,10.62-1.68,13.83-5.1c2.24-2.34,3.59-5.56,3.58-9.66c-0.01-5.07-2.17-8.48-5.39-10.71
				c-3.42-2.33-7.81-3.29-12.49-3.28c-1.95,0-4.58,0.21-6.73,0.41L578,377.85z"/>
			<path class="st2" d="M684.1,358.38c-4.22,22.22-19.96,31.44-36.43,28.31c-17.05-3.24-26.51-18.72-22.8-38.26
				c3.89-20.49,19.17-31.48,36.41-28.21C678.9,323.56,687.74,339.23,684.1,358.38z M633.82,349.93
				c-2.62,13.79,2.51,27.56,15.63,30.05c13.22,2.51,22.99-8.24,25.78-22.89c2.44-12.83-1.72-27.51-15.61-30.15
				C645.82,324.33,636.51,335.75,633.82,349.93z"/>
			<path class="st2" d="M717.94,350.78l-17.1-10.33l3.73-6.17l41.63,25.14l-3.73,6.17l-17.19-10.38l-30.23,50.06l-7.34-4.43
				L717.94,350.78z"/>
			<path class="st2" d="M742.09,405.06l-18.4,11.63l-6.78-5.57l58.97-36.57l7.91,6.5l-24.41,64.99l-7-5.76l7.7-20.42L742.09,405.06z
				 M762.94,413.63l7.04-18.69c1.6-4.24,3.32-7.87,4.98-11.43l-0.15-0.12c-3.23,2.39-6.6,4.8-10.11,7.08l-17.04,10.59L762.94,413.63
				z"/>
			<path class="st2" d="M824.64,420.59l-21.65,16.93l19.57,25.03l21.65-16.93l5.28,6.76l-51.75,40.47l-5.28-6.76l24.26-18.97
				l-19.57-25.03l-24.26,18.97l-5.22-6.68l51.75-40.47L824.64,420.59z"/>
			<path class="st2" d="M865.54,540.17c-19.32,11.75-36.71,6.25-45.42-8.08c-9.02-14.82-3.86-32.22,13.13-42.56
				c17.82-10.84,36.22-6.86,45.34,8.13C887.9,512.99,882.19,530.04,865.54,540.17z M838.12,497.18
				c-11.99,7.3-18.78,20.33-11.84,31.74c6.99,11.49,21.52,11.55,34.26,3.8c11.16-6.79,19.27-19.71,11.92-31.79
				C865.17,488.94,850.45,489.68,838.12,497.18z"/>
		</g>
		<circle class="st1" cx="335.18" cy="611.73" r="13"/>
		<circle class="st1" cx="861.18" cy="611.73" r="13"/>
	</g>
</g>
<g id="Layer_3">
</g>
</svg>
