<svg width="120" height="51" viewBox="0 0 120 51" fill="none" xmlns="http://www.w3.org/2000/svg">
<mask id="mask0_610_360" style="mask-type:alpha" maskUnits="userSpaceOnUse" x="0" y="0" width="52" height="51">
<path fill-rule="evenodd" clip-rule="evenodd" d="M0 0V51H51.3462V24.4494H51.3463V15.0932H48.4617V12.2247H45.5771V9.3562H42.6925V6.48768H39.8079L39.8078 0H36.6346H34.2308H34.0386H0Z" fill="#C4C4C4"/>
</mask>
<g mask="url(#mask0_610_360)">
<path d="M67.1346 29.1588C67.1021 27.1126 66.5274 25.0664 66.4118 23.0237C66.3932 21.9411 66.2953 20.8613 66.119 19.7928C65.866 18.5723 65.2625 17.3158 65.3528 16.045C65.4179 15.1547 65.9094 14.3542 66.0757 13.489C66.1947 12.6742 66.0781 11.8425 65.7395 11.091C65.0492 9.29605 63.5349 7.80983 62.0711 6.62158C61.6234 6.25634 61.1997 5.86304 60.8025 5.4441L60.5965 5.67745C60.4264 5.58838 60.232 5.556 60.0419 5.58509C59.8519 5.61418 59.6763 5.70319 59.5411 5.83899C59.3351 6.04003 58.7243 5.93592 58.4315 6.01849C57.9891 6.18613 57.5672 6.4029 57.1738 6.66467C56.1702 7.27665 55.2505 8.01512 54.4378 8.86167C53.5487 9.71606 52.6307 10.5381 51.6838 11.3315C51.3101 11.6294 50.904 11.8847 50.473 12.0926C50.2867 12.1608 50.0943 12.2113 49.8983 12.2433C51.4994 10.2079 53.0572 8.21549 54.0366 5.78155C54.6113 4.3456 55.0233 2.88452 55.6558 1.4737C56.104 0.457767 56.3172 -0.633554 56.7401 -1.63154C56.7859 -1.71545 56.8045 -1.81138 56.7933 -1.90619C56.7822 -2.001 56.7418 -2.09006 56.6777 -2.16119C56.6136 -2.23232 56.5289 -2.28204 56.4353 -2.30354C56.3416 -2.32504 56.2436 -2.31728 56.1546 -2.28131C55.8992 -2.87962 55.6498 -3.47793 55.4064 -4.07625C53.7764 -8.02511 48.149 -8.18307 44.8565 -8.28717C42.0012 -8.37692 39.3737 -8.62462 37.234 -10.7211C35.9329 -11.9955 34.2306 -13.3094 32.2897 -13.1694C29.8284 -12.9971 27.9129 -11.4714 25.7841 -10.4016C24.4757 -9.74107 23.0662 -9.52568 21.7072 -9.01951L21.2338 -8.82924C21.1146 -8.94844 20.9571 -9.02234 20.7887 -9.03808C20.6203 -9.05382 20.4516 -9.01041 20.3121 -8.9154C19.3544 -8.34461 18.205 -8.30871 17.1569 -7.97126C15.9498 -7.58356 14.7173 -7.22816 13.5246 -6.79378C11.7681 -6.14761 10.4091 -4.99884 9.10077 -3.69572C8.39599 -2.97774 7.57556 -2.36747 6.91416 -1.63872C6.15517 -0.80228 5.69977 0.156217 4.74561 0.834703C2.84985 2.15753 0.815171 3.27213 -1.3227 4.15893C-3.32138 4.99896 -5.41402 5.77078 -6.35011 7.87445C-6.71154 8.68576 -7.18861 9.41092 -7.57895 10.2079C-8.12887 11.4413 -8.58317 12.7146 -8.9379 14.0167C-9.29932 15.2229 -9.58485 16.4507 -9.92821 17.6605C-10.2499 18.7877 -10.633 19.8718 -10.5643 21.0601C-10.5029 22.0832 -10.1161 22.7796 -9.73304 23.6843C-9.18729 24.9659 -9.49088 26.2798 -9.83423 27.5613C-10.886 31.4923 -12.057 36.5181 -10.0945 40.2982C-9.50895 41.4254 -8.85116 42.5527 -8.78611 43.8522C-8.72828 45.0045 -8.95597 46.1354 -8.76803 47.2841C-8.4066 49.4201 -7.32234 50.9781 -5.54775 52.2058C-3.5816 53.5808 -1.554 54.8085 0.177217 56.4598C0.842238 57.0953 1.28317 57.8491 2.03131 58.4199C2.9674 59.1379 3.89265 60.0964 4.92271 60.678C6.95753 61.8375 9.09354 62.7278 11.1934 63.7473C12.1512 64.2104 13.1053 64.6699 14.0848 65.1186C15.0643 65.5674 15.8486 66.35 16.8027 66.8813C17.9231 67.5059 19.0002 67.9582 20.2941 67.6387C21.4289 67.3659 22.4626 66.7951 23.6445 66.6264C24.1711 66.5583 24.7045 66.5583 25.2311 66.6264C25.2311 66.5115 25.2637 66.393 25.2781 66.2674C25.4259 66.2519 25.5668 66.1971 25.6858 66.1086C25.8048 66.0201 25.8974 65.9013 25.954 65.7648C26.6476 64.004 27.1999 62.1914 27.6057 60.3441C27.9418 58.962 28.1514 57.5763 28.5201 56.205C28.6452 57.2379 28.8421 58.2611 29.1092 59.2671C29.7489 61.518 28.9827 64.4581 30.8296 66.2746C30.8974 66.3434 30.9754 66.4015 31.0609 66.4469C31.0826 66.5582 31.1007 66.6695 31.1223 66.7807H31.1513C32.5211 66.5294 33.7463 65.8869 34.9679 65.2335C35.0092 65.2866 35.0565 65.3347 35.1089 65.3771C35.1522 65.4166 35.2281 65.3771 35.192 65.3125C35.1607 65.263 35.133 65.2114 35.1089 65.1581C35.9059 64.7089 36.7318 64.312 37.581 63.9699C38.7412 63.5319 40.0784 63.1227 41.1266 62.4478C41.7627 62.0421 42.5903 60.6959 43.3457 60.6349C43.5344 60.6204 43.7179 60.5666 43.8842 60.4769L44.1734 60.4051C46.2443 59.8164 46.7575 57.8348 48.2177 56.5568C49.7465 55.2213 51.6079 54.2521 53.1439 52.8987C54.7772 51.3971 56.0262 49.5302 56.7871 47.4529C56.928 47.0939 57.0328 46.48 57.2822 46.1605C57.228 46.279 58.0051 45.7728 58.0051 45.78C58.605 45.3312 58.9412 44.6851 59.5339 44.2076C60.2567 43.6153 60.8025 42.9009 61.6229 42.4306C62.6891 41.8203 63.7915 41.3931 64.836 40.6931C66.3901 39.6341 67.3154 37.7602 67.6045 35.9329C67.7347 34.9969 67.7201 34.0466 67.5611 33.1149C67.3336 31.8067 67.1912 30.4852 67.1346 29.1588ZM56.3714 10.1038C56.7544 10.448 57.1085 10.8226 57.4304 11.2238C58.3701 12.4228 58.6882 13.8839 58.8436 15.3916C58.9628 16.5727 58.1858 18.3174 58.2291 19.6744C57.745 21.4308 57.6867 23.2761 58.0593 25.0592C57.6979 26.1362 57.7521 27.4752 57.5099 28.5414C57.4557 28.7711 57.3906 29.0009 57.322 29.2306C57.0292 28.6024 56.722 27.9813 56.4365 27.3531C56.657 26.4628 56.8955 25.5761 57.1846 24.7182C57.2425 24.5494 56.9714 24.474 56.9172 24.6428C56.6606 25.4074 56.4546 26.1864 56.263 26.969C56.0253 26.4438 55.8178 25.9057 55.6414 25.3572C54.9691 23.2391 55.5871 21.4083 55.8763 19.3046C55.8848 19.2425 55.8785 19.1792 55.8578 19.1199C55.837 19.0607 55.8025 19.0071 55.757 18.9636C56.0429 18.1793 56.2146 17.3585 56.2666 16.5261C56.2666 15.6681 56.4582 14.566 56.2124 13.7547C55.9666 12.9434 55.1679 12.071 54.5932 11.4069C55.1823 10.9546 55.7715 10.5202 56.3714 10.1038ZM51.6729 41.1382C51.644 40.9444 51.344 41.027 51.3729 41.2208C51.3946 41.3501 51.4127 41.4793 51.4344 41.6085C51.3621 41.6767 51.2862 41.7413 51.2175 41.8131C50.6718 42.366 50.1333 42.9511 49.602 43.5578C49.5172 42.6169 49.2274 41.7055 48.7526 40.887C49.5386 40.0978 50.4315 39.4211 51.4055 38.8766C52.6703 38.2029 53.8789 37.4298 55.0197 36.5647C56.8521 35.1108 58.7279 32.4292 57.7159 30.0455C57.6509 29.8912 57.5822 29.7404 57.5135 29.5896C57.5714 29.4065 57.6256 29.2306 57.6762 29.0368C57.8699 28.2884 58.0136 27.528 58.1063 26.7608C58.1569 26.4018 58.1822 26.0428 58.2364 25.6838C58.3267 25.9926 58.4315 26.3085 58.5544 26.628C59.064 27.9634 59.6785 29.245 60.1989 30.5768C60.9796 32.5549 59.6134 34.2924 58.6484 35.9293C57.1702 38.4423 53.9174 39.4725 51.7127 41.3859L51.6729 41.1382ZM45.5685 49.395C45.507 48.4903 45.46 47.6 45.3588 46.6774C45.3119 46.2431 45.2432 45.8087 45.1709 45.3779C45.6482 44.5887 46.1847 43.8363 46.7756 43.127C46.8868 43.1575 47.0042 43.1575 47.1154 43.127C47.2973 43.916 47.3894 44.7228 47.39 45.5323C47.39 45.8015 47.4298 46.0671 47.4479 46.3328C46.993 46.9857 46.5743 47.6628 46.1937 48.3611C45.9841 48.7057 45.7745 49.0539 45.554 49.3842L45.5685 49.395ZM37.675 53.9074C37.7798 54.288 37.8738 54.6721 37.9677 55.0598C37.2449 55.5301 36.522 55.9573 35.7992 56.4168C35.7233 56.0075 35.6474 55.5983 35.5606 55.189C35.492 54.8767 35.4088 54.568 35.3257 54.2628C35.8425 53.9254 36.3485 53.5772 36.8401 53.2864C37.9533 52.633 38.893 51.8002 39.9989 51.1325L40.7868 50.6335C40.9603 51.4017 41.1085 52.1699 41.2314 52.9454C40.4039 53.3463 39.6182 53.8273 38.8857 54.3813C38.6472 54.5716 38.405 54.7403 38.1629 54.9162C38.0761 54.5572 37.9858 54.1982 37.8882 53.8392C37.8767 53.8138 37.8565 53.7933 37.8313 53.7812C37.806 53.7691 37.7773 53.7662 37.7501 53.773C37.7229 53.7799 37.699 53.7961 37.6826 53.8187C37.6663 53.8413 37.6584 53.8689 37.6605 53.8967L37.675 53.9074ZM35.8678 58.1471C36.0341 58.9656 36.2293 59.7697 36.4136 60.5846C36.4461 60.7318 36.4678 60.8826 36.4967 61.0298C35.7739 61.2882 35.0727 61.5575 34.3788 61.8734C34.2812 61.3744 34.1728 60.8754 34.0463 60.38C33.9378 59.96 33.8402 59.54 33.7463 59.1199C33.9017 59.0805 34.0571 59.041 34.2089 58.9871C34.7855 58.7613 35.3366 58.4762 35.8534 58.1363L35.8678 58.1471ZM35.4305 56.6681C34.8342 57.0665 34.3462 57.5583 33.7029 57.8635C33.6379 57.8958 33.5692 57.9209 33.4969 57.9496C33.3234 57.0917 33.1355 56.2337 32.9728 55.3757C33.1564 55.3376 33.3374 55.2885 33.515 55.2285C34.075 55.0134 34.6095 54.7377 35.1089 54.4064L35.1305 54.4818C35.3113 55.1711 35.445 55.8711 35.5715 56.5747L35.4305 56.6681ZM41.0615 50.4971C41.8721 50.0411 42.6042 49.4593 43.2301 48.7739C43.3313 49.5422 43.4144 50.314 43.5698 51.0678C43.5987 51.215 43.6312 51.3586 43.6638 51.5058C43.4401 51.6863 43.2073 51.8552 42.9662 52.012C42.5 52.3135 42.0121 52.572 41.5205 52.8269C41.3723 52.0335 41.2241 51.2581 41.0471 50.4863L41.0615 50.4971ZM43.8336 50.9925C43.6601 50.1632 43.5734 49.3196 43.4505 48.4795C44.0902 47.618 44.4806 46.6379 44.9902 45.6974C45.0372 46.0205 45.0842 46.3472 45.1203 46.6738C45.2287 47.6862 45.2649 48.7093 45.3335 49.7252C44.9156 50.3051 44.4303 50.834 43.8878 51.3012C43.8662 51.1899 43.8409 51.0858 43.8192 50.9925H43.8336ZM47.5491 44.2866C47.5055 43.8571 47.4257 43.432 47.3105 43.0158C47.3714 42.9723 47.4193 42.9134 47.4492 42.8451C47.4791 42.7769 47.4899 42.7019 47.4804 42.6281C47.4804 42.5275 47.4515 42.4342 47.4334 42.3445L47.6792 42.0608C44.0649 40.1259 40.0459 38.471 36.7642 36.0693C36.7389 36.1232 36.7136 36.1806 36.6919 36.2345L36.4895 36.1699C36.222 36.0909 35.9582 36.2058 35.7052 36.0191C35.5534 35.9078 35.3438 36.1591 35.5028 36.2847C35.8075 36.5328 36.1328 36.755 36.475 36.9489C36.269 37.8499 36.222 38.7976 35.7919 39.6341C35.6618 39.889 35.4739 40.2264 35.3293 40.4669C34.5486 41.7521 34.3029 41.587 33.0777 41.9567C32.6959 42.0318 32.3392 42.2009 32.0404 42.4486C31.1874 43.1414 30.8224 43.626 29.7128 44.0532C28.2237 44.6276 27.2153 45.6471 25.5492 45.0333C24.8589 44.7784 24.0493 44.6133 23.3806 44.3153C22.4554 43.8809 21.8374 43.0373 20.9772 42.4773C20.994 42.025 21.0193 41.5762 21.0531 41.1311C21.5407 41.3831 22.047 41.5979 22.5674 41.7737C23.1132 41.9711 23.6517 42.0716 24.2228 42.2332C24.7938 42.3947 25.4263 42.9152 26.0299 42.9727C26.2904 42.9792 26.5497 42.9341 26.7925 42.8399C27.5147 42.6982 28.2224 42.4916 28.9068 42.2224C29.6803 41.8634 29.9333 41.2101 30.4971 40.607C31.1513 39.889 32.1416 39.6126 32.5644 38.6864C33.0307 37.6704 32.5644 36.1986 33.5005 35.3873C33.974 34.9816 34.6715 34.8165 35.1595 34.3821C35.998 33.6354 36.3738 32.9677 37.4256 32.4077C38.4585 31.8621 39.3948 31.1527 40.1977 30.3076C41.076 29.4388 41.282 28.8429 41.4121 27.6367C41.5024 26.7716 41.9289 26.1003 42.059 25.2638C42.1144 24.8567 42.1458 24.4468 42.153 24.0361C42.5831 23.3612 42.4747 22.6181 42.3229 21.8103C42.1096 20.6903 42.153 19.1933 41.3253 18.2923C41.0884 18.0503 40.7992 17.865 40.4796 17.7502C40.0676 17.5815 39.7062 17.4199 39.3556 17.2476C39.3556 16.2173 39.3556 15.1834 39.3737 14.1531C39.3737 14.1531 39.3737 14.1531 39.3737 14.1316C39.6174 14.0239 39.8851 13.9806 40.1507 14.006C40.2081 14.0186 40.2648 14.0342 40.3206 14.0526C40.2447 14.3183 40.1724 14.5839 40.1001 14.846C40.0934 14.8703 40.0967 14.8962 40.1092 14.9181C40.1218 14.94 40.1425 14.956 40.167 14.9627C40.1914 14.9693 40.2175 14.9661 40.2396 14.9536C40.2616 14.9412 40.2777 14.9205 40.2844 14.8963C40.3676 14.6414 40.4435 14.3901 40.5158 14.1388C41.1916 14.4978 41.7844 15.3522 42.247 15.8476C42.9698 16.5979 43.7686 17.1651 43.83 18.2887C43.8915 19.4123 43.83 20.4031 43.989 21.5196C43.8589 23.7848 44.6685 26.3551 43.5264 28.3224C42.9518 29.3096 42.6626 30.3327 42.2181 31.3379C41.8169 32.2533 40.2628 33.1328 39.4496 33.6246C38.5424 34.1631 37.5593 34.7626 36.981 35.6745L37.7798 36.0514C38.658 34.777 40.4905 33.858 41.6723 32.9497C42.0699 32.6446 42.6265 32.562 42.9698 32.1923C43.4252 31.6897 43.6565 30.7563 44.0071 30.1353C44.3577 29.5142 44.8745 28.8465 45.0408 28.1393C45.1077 27.8606 45.1199 27.5718 45.0769 27.2885C45.7998 25.9567 46.7467 24.5638 46.8443 23.0237C46.8443 22.8371 46.5624 22.8371 46.5515 23.0237C46.4684 24.3735 45.6805 25.6479 44.9974 26.8434C44.9649 26.6818 44.9287 26.5131 44.8998 26.3264C44.6145 24.4614 44.5562 22.5691 44.7263 20.6903C44.7272 20.6454 44.7179 20.6008 44.6992 20.5599C44.6804 20.519 44.6527 20.4828 44.6181 20.4539C44.5834 20.425 44.5427 20.4041 44.4989 20.3929C44.4551 20.3816 44.4093 20.3802 44.3649 20.3888C44.3649 20.1734 44.336 19.958 44.3396 19.7318C44.3396 19.0138 44.6541 18.2707 44.5926 17.542C44.5131 16.6014 43.7577 15.5891 43.006 14.7778L43.1144 14.4475C43.3173 13.8303 43.4625 13.1958 43.5481 12.5521C43.8698 12.9936 44.1698 13.4424 44.4842 13.8839C44.486 13.8994 44.486 13.9151 44.4842 13.9306C44.4868 13.9443 44.4947 13.9564 44.5062 13.9644C44.5176 13.9725 44.5318 13.9758 44.5456 13.9737C44.9641 14.5813 45.449 15.1411 45.9913 15.6429C47.4081 16.8994 47.8852 17.7251 47.8671 19.7103C47.8671 19.879 47.8671 20.0693 47.8346 20.2703C47.4113 21.7961 47.1377 23.359 47.0178 24.9371C46.9433 25.6543 46.9591 26.3778 47.0648 27.0911C47.1768 27.7121 47.4262 28.2362 47.5563 28.8142C47.3113 29.2282 47.011 29.6074 46.6636 29.9414C46.613 29.9881 46.6853 30.0563 46.7395 30.0168C47.0734 29.7424 47.3634 29.4192 47.5997 29.0583C47.6295 29.2652 47.6356 29.4747 47.6177 29.683C47.4334 31.7507 46.107 33.2728 44.5348 34.5831L45.1095 35.1324C45.8464 34.5787 46.541 33.9716 47.1876 33.3159C47.7587 32.6554 47.9466 31.9015 48.2177 31.0794C48.5791 29.9558 48.3803 29.0619 48.149 28.1106C48.3297 27.7516 48.5105 27.4142 48.6876 27.0803C49.3634 25.8597 49.9562 24.5997 50.5706 23.3468C50.5306 24.4224 50.7114 25.4948 51.1019 26.4987C51.1669 26.671 51.2392 26.8398 51.3079 27.0085C51.1452 27.328 50.979 27.6475 50.791 27.9526C50.6031 28.2578 50.3754 28.5916 50.1766 28.9183C50.1369 28.9829 49.4068 30.1496 49.3923 29.4999C49.3923 29.4568 49.32 29.4424 49.3128 29.4999C49.2621 29.6587 49.2621 29.8292 49.3128 29.9881C49.3161 29.9994 49.3217 30.01 49.3291 30.0191C49.3365 30.0283 49.3457 30.036 49.3561 30.0416C49.3665 30.0473 49.3779 30.0509 49.3897 30.0522C49.4015 30.0535 49.4135 30.0524 49.4249 30.0491C49.92 29.8553 50.0971 29.4783 50.3754 29.0439C50.7368 28.466 51.0983 27.906 51.4272 27.3136C51.6801 27.9203 51.9476 28.5198 52.2006 29.1301C52.0741 29.4209 51.944 29.7153 51.7922 30.0024C51.4794 30.5091 51.2775 31.0754 51.1995 31.6646C51.1995 31.7579 51.326 31.7651 51.3549 31.6861C51.6223 30.925 52.0235 30.2502 52.3596 29.5322C52.9126 31.0112 51.8934 32.3107 51.1742 33.5349C50.2561 35.1037 48.4309 35.9042 46.884 36.9453L47.3286 37.4263C47.531 37.2935 47.7442 37.1607 47.9683 37.035C49.0455 36.4603 50.0741 35.8 51.044 35.0606C52.2801 34.0806 53.5343 32.4436 53.574 30.7958C53.78 30.2825 53.8957 29.6937 54.0005 29.3599C54.3619 28.2506 54.6041 27.1162 54.8643 25.9854C54.9257 26.1864 54.9944 26.391 55.0739 26.5992C55.3305 27.2705 55.6161 27.9239 55.898 28.5773C55.8112 28.9363 55.7209 29.3132 55.6269 29.6758C55.4493 30.3628 55.3177 31.0608 55.2329 31.7651C55.1824 32.0944 55.0952 32.4171 54.9727 32.7272C54.9727 32.7631 54.4089 34.1021 54.4487 33.3446C54.446 33.3357 54.4405 33.3279 54.433 33.3224C54.4255 33.3169 54.4164 33.3139 54.4071 33.3139C54.3978 33.3139 54.3887 33.3169 54.3812 33.3224C54.3737 33.3279 54.3682 33.3357 54.3655 33.3446C54.3041 33.6139 54.3005 33.5169 54.3655 33.7826C54.3688 33.795 54.3749 33.8065 54.3833 33.8161C54.3918 33.8258 54.4024 33.8333 54.4143 33.8382C54.4263 33.8431 54.4392 33.8451 54.452 33.8442C54.4649 33.8433 54.4773 33.8394 54.4884 33.8329C55.5438 33.2298 55.4679 31.5174 55.7028 30.5302C55.8257 30.0168 55.945 29.4999 56.0642 28.9793C56.2233 29.3383 56.3823 29.7224 56.5305 30.0994C56.6787 30.48 56.7464 30.887 56.7292 31.2948C56.6136 31.7651 56.4979 32.2318 56.3678 32.6985C56.0046 33.4388 55.5992 34.1579 55.1534 34.8524C53.874 37.035 51.0946 37.9504 49.1429 39.5695C49.2478 39.6951 49.3526 39.8208 49.4538 39.95C49.4773 39.9811 49.4887 40.0196 49.4859 40.0584C49.4831 40.0972 49.4664 40.1337 49.4387 40.1612C49.411 40.1887 49.3742 40.2053 49.3352 40.2081C49.2961 40.2108 49.2574 40.1995 49.2261 40.1762C49.0924 40.0685 48.9659 39.95 48.8357 39.8387C48.749 39.9213 48.6586 40.0003 48.5719 40.0864C48.1779 40.4885 47.7876 40.9121 47.4009 41.3465L47.9828 41.7629C48.1707 41.5547 48.3442 41.3572 48.5466 41.1634C49.0059 42.0171 49.2769 42.9582 49.3417 43.924C48.7598 44.6025 48.2032 45.3097 47.6828 46.0348C47.6539 45.3958 47.6105 44.8322 47.5346 44.2758L47.5491 44.2866ZM16.21 51.4771C16.21 51.6027 16.2353 51.7248 16.2461 51.8361L16.0979 51.7607C15.6719 51.5539 15.2295 51.3821 14.7751 51.2473C14.6631 50.095 14.4715 48.9426 14.3378 47.7867C14.8518 48.0344 15.391 48.227 15.9461 48.3611C16.3509 49.3304 16.0871 50.4468 16.21 51.4771ZM17.7713 53.6669C17.8509 54.9485 18.0135 56.2301 18.0135 57.5153V57.5332C17.6521 57.3537 17.6087 57.1742 17.4497 56.984C17.246 56.7643 17.0249 56.5614 16.7883 56.3773C16.7883 55.8998 16.7666 55.4224 16.7883 54.9413C16.7883 54.3634 16.8099 53.7818 16.7883 53.2002C16.8786 53.2361 17.0087 53.2649 17.0955 53.3043C17.3344 53.4006 17.5622 53.5222 17.7749 53.6669H17.7713ZM21.147 56.2301C21.4092 56.3058 21.676 56.3645 21.9458 56.406C22 57.0952 22.0542 57.7845 22.1446 58.4594C22.1952 58.828 22.2494 59.1977 22.3072 59.5687C21.8284 59.5559 21.3512 59.5079 20.8796 59.4251C20.7093 59.3967 20.5414 59.3559 20.3772 59.303C20.323 58.944 20.2652 58.5492 20.211 58.1722C20.1025 57.3788 20.0566 56.5782 20.0736 55.7778C20.4159 55.9652 20.7768 56.1168 21.1507 56.2301H21.147ZM19.9435 58.0825C19.9977 58.4415 20.0591 58.8327 20.117 59.2133L19.9688 59.1558C19.8568 58.6676 19.7194 58.1866 19.6074 57.7199C19.6013 57.6969 19.589 57.6761 19.5718 57.6596C19.5546 57.6431 19.5331 57.6317 19.5098 57.6266L19.2568 57.5763C19.0869 57.5404 19.0146 57.7989 19.1845 57.8348C19.4267 57.8814 19.5857 58.5133 19.6833 59.0338C19.124 58.737 18.6174 58.3514 18.1834 57.8922C18.1834 57.4255 18.1834 56.9588 18.1834 56.4922C18.1581 55.6521 18.1147 54.8085 18.0605 53.9792C18.3315 54.2341 18.5737 54.5285 18.8809 54.8695C19.1585 55.1733 19.4758 55.4389 19.8242 55.6593C19.7974 56.469 19.8385 57.2795 19.9471 58.0825H19.9435ZM16.3943 59.8774C16.3943 60.1431 16.3943 60.4123 16.3943 60.6815C15.9461 60.4446 15.4835 60.2256 15.0137 60.0138C15.0285 59.8875 15.037 59.7605 15.039 59.6333C15.039 58.5922 14.8872 57.5619 14.8257 56.5281C15.0932 56.6106 15.3606 56.7004 15.6172 56.8081C15.8935 56.9231 16.1545 57.0714 16.3943 57.2496C16.3907 58.1255 16.3907 59.0015 16.3979 59.8774H16.3943ZM12.8343 54.4352C12.8343 53.9613 12.8632 53.4838 12.8704 52.9992C12.8704 52.6402 12.8704 52.2992 12.8921 51.9474C13.4415 52.1305 14.0161 52.2669 14.5655 52.4428C14.5655 53.3115 14.5294 54.1803 14.5041 55.049C13.9672 54.7977 13.4098 54.5924 12.8379 54.4352H12.8343ZM12.6283 56.966C12.7268 57.6678 12.7751 58.3755 12.7728 59.084C12.2668 58.883 11.7608 58.6784 11.2693 58.4738L11.2007 58.4415C11.1332 57.4052 11.0766 56.3677 11.0308 55.329C11.5223 55.487 12.0319 55.6198 12.5235 55.7634C12.5322 56.1663 12.5684 56.568 12.6319 56.966H12.6283ZM8.69237 57.0917C8.69237 56.5029 8.69237 55.9824 8.66707 55.8065C8.60562 55.1783 8.57671 54.55 8.55503 53.9254C8.85862 54.1623 9.16221 54.4028 9.4875 54.6254C9.84258 54.8553 10.2234 55.0432 10.6224 55.1854C10.6203 56.2141 10.6855 57.2417 10.8175 58.262C10.0983 57.903 9.41882 57.4542 8.69598 57.0953L8.69237 57.0917ZM-0.451668 46.4692L-0.56009 46.4118L-0.635986 46.3543C-0.635986 46.1246 -0.635986 45.8984 -0.635986 45.6687C-0.635986 44.2794 -0.635986 42.8937 -0.635986 41.5044C-0.246543 42.4072 0.397328 43.1789 1.21811 43.7266C1.21811 44.5163 1.21811 45.3025 1.21811 46.0887C1.21811 46.5769 1.21811 47.0723 1.21811 47.5713C0.688587 47.1668 0.131913 46.7985 -0.44805 46.4692H-0.451668ZM1.18198 17.9512C1.31209 18.0589 1.44219 18.1666 1.57953 18.26C1.61568 18.1989 1.64459 18.1343 1.68073 18.0733C2.2048 17.1686 2.83367 16.3178 3.14811 15.3127C3.50954 14.1603 3.50954 12.8787 4.29021 11.8843C4.92632 11.0802 6.3431 10.7823 7.18161 10.1145C8.02011 9.44682 8.79356 8.80064 9.67905 8.22626C11.4573 7.07032 12.0608 5.89284 12.8632 3.95431C13.2246 3.06761 13.5427 2.18091 14.1571 1.44139C14.4139 1.13763 14.7162 0.874897 15.0534 0.662391C15.0652 0.686027 15.0855 0.704357 15.1103 0.713684C15.1351 0.723012 15.1626 0.722642 15.1872 0.712649C16.6003 0.184937 18.1111 -0.762794 19.5676 -0.996136C21.1434 -1.25102 23.0301 -0.795101 24.5553 -1.30845C24.6601 -0.166872 24.8191 0.981887 24.9673 2.12347C23.9083 2.48246 22.6939 2.17014 21.5916 2.29937C20.5611 2.42785 19.5642 2.74816 18.6532 3.24351H18.6207C17.0124 3.96149 15.7654 4.32048 15.0064 6.06516C14.4101 7.45803 14.1101 8.65345 12.7078 9.45041C11.87 9.89435 11.0741 10.4122 10.3296 10.9976C8.94898 12.132 7.60086 12.9469 6.86717 14.6198C6.42985 15.625 6.42262 16.6948 5.89856 17.6856C5.55882 18.3246 5.12511 18.9133 4.81428 19.5559L5.34558 19.6744C5.41063 19.5344 5.4793 19.398 5.5552 19.2687C5.52629 19.7175 5.48653 20.1626 5.42509 20.6077C4.60872 20.3988 3.81092 20.1239 3.03969 19.7857C3.3447 18.2849 3.79869 16.8178 4.39503 15.406C4.4637 15.2481 4.22877 15.108 4.15649 15.2696C3.55056 16.6857 3.08572 18.1575 2.76862 19.6636C2.12472 19.3598 1.5312 18.9604 1.00849 18.4789L1.18198 17.9512ZM9.07548 16.7989C9.07548 17.9476 8.71404 18.2923 8.10685 19.2005C7.91375 19.4911 7.74107 19.7946 7.59002 20.1088C7.86831 20.1626 8.14661 20.2236 8.41768 20.2882C8.56654 19.9162 8.74417 19.5561 8.94898 19.2113C9.4875 18.2887 9.84169 16.6804 10.5501 15.9409C11.3705 15.0901 12.7186 14.6845 13.633 13.9198C14.0414 13.5608 14.2438 13.0187 14.5655 12.6131C14.9269 12.1356 15.4474 11.7695 15.8197 11.2848C15.9499 11.117 16.0706 10.942 16.1811 10.7607C16.5425 10.4017 16.8389 10.0104 17.0702 9.73042C17.475 9.2386 17.952 8.815 18.3532 8.32319C18.487 8.14655 18.6078 7.96059 18.7146 7.76675C18.8664 7.70932 19.0761 7.64111 19.3616 7.54777C21.5916 6.8298 19.8134 7.54777 20.8073 7.40418C21.9566 7.24622 22.9144 6.7939 24.0059 6.39542C24.4725 6.1966 24.9201 5.95629 25.3432 5.67745C25.4118 6.35594 25.4914 7.00929 25.5998 7.65188C25.0982 7.35415 24.5067 7.24224 23.93 7.33597C23.4204 7.45803 23.2325 7.72727 22.8674 8.08625C21.9691 8.96811 20.9297 9.69596 19.7917 10.2402C18.3542 10.8776 17.1294 11.9087 16.2606 13.2126C16.2482 13.2306 16.2402 13.2511 16.237 13.2726C16.2338 13.2942 16.2356 13.3161 16.2422 13.3369C16.2488 13.3576 16.2601 13.3766 16.2751 13.3924C16.2902 13.4082 16.3087 13.4203 16.3292 13.428C14.945 15.1404 13.8969 17.2261 12.2307 18.619C11.4674 19.2456 10.9285 20.1007 10.6947 21.0565L10.8501 21.1319C10.9074 21.1816 10.9475 21.248 10.9646 21.3217C10.9817 21.3954 10.9749 21.4725 10.9453 21.5421C10.9156 21.6118 10.8646 21.6703 10.7995 21.7095C10.7344 21.7486 10.6585 21.7663 10.5826 21.7601C9.23811 21.4011 7.4599 21.1103 5.72507 20.6831C5.80836 20.0497 5.85543 19.4121 5.86603 18.7733C6.25831 18.186 6.57635 17.5531 6.81296 16.8886C7.12017 15.905 7.11294 14.8137 7.78519 13.9665C8.33094 13.2808 9.5381 13.0259 10.2573 12.4587C10.9766 11.8915 11.6307 11.3387 12.3861 10.8469C13.9005 9.86325 14.4137 8.85808 15.0968 7.20315C15.3566 6.43495 15.7292 5.70913 16.2028 5.04922C16.4207 4.78855 16.6794 4.56432 16.969 4.38509C16.9733 4.39539 16.9796 4.40471 16.9877 4.4125C16.9957 4.42029 17.0053 4.42638 17.0157 4.43041C17.0262 4.43443 17.0374 4.43631 17.0486 4.43592C17.0598 4.43554 17.0709 4.4329 17.081 4.42817C18.2846 3.97584 19.5748 3.17171 20.8181 2.97068C22.1482 2.75529 23.7348 3.13582 25.0323 2.7158C25.0974 3.24351 25.1552 3.77122 25.1986 4.29534L25.2311 4.70459C25.1263 4.7728 25.0251 4.8446 24.9348 4.90922C24.0403 5.51465 23.0677 5.99764 22.0434 6.34517C21.0531 6.70415 20.8724 6.38106 19.9652 6.2626C18.7436 6.10823 18.2846 6.76518 17.8834 7.52265C17.8683 7.51129 17.8499 7.50514 17.831 7.50514C17.812 7.50514 17.7936 7.51129 17.7786 7.52265C17.034 8.11139 16.6112 8.87602 16.069 9.64785C15.8666 9.93504 15.6534 10.215 15.4401 10.4915C15.1853 10.7103 14.9723 10.973 14.8113 11.2669C14.4499 11.7084 14.0487 12.1428 13.6403 12.5664C12.4765 13.7762 9.84169 14.0993 9.1586 15.7542C9.05924 16.0932 9.03216 16.449 9.07908 16.7989H9.07548ZM45.4528 6.91954C45.1781 6.80467 44.9071 6.70056 44.6866 6.61441C44.492 6.53906 44.2913 6.48021 44.0866 6.4385C44.1276 5.57693 44.1529 4.71536 44.1625 3.85379C44.3324 3.85379 44.4986 3.85379 44.6721 3.85379H45.6191C45.6191 3.88969 45.6191 3.922 45.6191 3.96149C45.6046 4.95947 45.5649 5.93951 45.4564 6.91954H45.4528ZM44.5348 11.8377C44.2784 11.5463 44.007 11.2683 43.7216 11.0048C43.8625 9.73041 43.9782 8.45601 44.0505 7.17443C44.3076 7.20525 44.56 7.26671 44.8022 7.35751C44.9942 7.4281 45.1824 7.50838 45.3661 7.59803C45.1528 9.00167 44.7444 10.434 44.5529 11.8592L44.5348 11.8377ZM43.8119 6.38465C43.3855 6.31286 42.9445 6.27695 42.5361 6.21234C41.7199 6.1211 40.9184 5.92812 40.1507 5.63796C39.3556 5.31846 38.6689 4.79075 37.8774 4.48561C37.0858 4.18047 36.4317 4.4174 35.6257 4.44612C34.8814 4.48854 34.1404 4.31917 33.4897 3.9579C33.533 4.2738 33.562 4.58971 33.5764 4.9128C34.237 5.13593 34.9281 5.25701 35.6257 5.27179C35.969 5.27179 36.2835 5.16051 36.6232 5.14256C37.4147 5.10307 37.8954 5.55539 38.4556 6.02567C39.5905 6.98058 40.8338 7.10263 42.2325 7.13135C42.7241 7.13135 43.2553 7.13135 43.765 7.15648C43.7107 8.05754 43.6457 8.95142 43.5553 9.85607C43.5228 10.1612 43.4939 10.4699 43.4614 10.7787C42.822 10.2226 42.0757 9.80125 41.2675 9.54015C41.2856 9.18117 41.2964 8.78987 41.2964 8.40216C41.2964 8.36313 41.2808 8.32569 41.253 8.29809C41.2252 8.27048 41.1875 8.25498 41.1483 8.25498C41.1089 8.25498 41.0713 8.27048 41.0435 8.29809C41.0157 8.32569 41.0001 8.36313 41.0001 8.40216C41.0001 8.76115 41.0001 9.12013 41.0001 9.45758C40.5505 9.33564 40.0909 9.25395 39.6267 9.21347C37.8918 9.06988 36.7353 10.391 35.1016 8.85449C34.5667 8.36267 34.1222 7.70214 33.5294 7.26776C33.5077 7.69855 33.486 8.12215 33.4752 8.53499C34.4836 9.46836 35.3076 10.7571 36.6955 10.8648C37.3931 10.9223 37.881 10.4663 38.5026 10.294C39.3257 10.1296 40.179 10.2044 40.9603 10.5094C40.9408 10.956 40.8925 11.4008 40.8157 11.8413C40.7507 12.2003 40.6712 12.5592 40.588 12.8931C40.4709 12.8571 40.3492 12.8378 40.2266 12.8357C39.8652 12.8357 39.5038 13.1946 39.1423 13.3311C37.8304 13.7798 35.8389 13.0295 34.545 12.6131C34.2197 12.5054 33.7969 12.3869 33.374 12.2541C33.374 12.5485 33.3379 12.8393 33.3126 13.1336C34.3752 13.3849 35.4811 13.5572 36.5401 13.9162C37.1039 14.1065 37.6966 14.4116 38.3111 14.408C38.5604 14.3861 38.8045 14.3242 39.0339 14.2249C39.0339 15.1798 39.0339 16.1419 39.0339 17.0968C38.705 16.9281 38.3761 16.7379 38.0147 16.5368C36.663 15.7542 35.1558 16.203 33.6776 16.1778C32.1994 16.1527 31.2163 15.485 30.2947 14.3578C30.0208 13.9438 29.6625 13.5916 29.2429 13.3239C28.6141 12.9936 27.8153 12.9649 27.1431 12.7603C26.2359 12.4874 25.3829 12.071 24.4902 11.7695C23.2824 11.3745 21.9778 11.382 20.7748 11.791C20.0519 12.089 19.4881 12.7495 18.9677 13.4352C17.6268 14.6342 16.9473 17.0538 16.3618 18.461C15.4293 20.6724 13.5788 22.4422 13.4704 24.9228C13.4053 26.4916 14.139 27.9849 13.5788 29.5286C13.1487 30.7097 12.1801 31.6251 11.7464 32.7595C10.9982 34.7483 12.7006 35.0534 14.1752 35.5955C14.8727 35.8539 16.1702 36.1124 16.7051 36.5576C17.1641 36.9525 17.4822 37.5699 17.8689 38.0402L17.9557 38.1443C17.9238 38.6043 17.9153 39.0656 17.9304 39.5264C17.9304 39.5388 17.9353 39.5506 17.9441 39.5594C17.9529 39.5681 17.9649 39.5731 17.9774 39.5731C17.9898 39.5731 18.0018 39.5681 18.0106 39.5594C18.0194 39.5506 18.0243 39.5388 18.0243 39.5264C18.0243 39.1279 18.0713 38.733 18.1111 38.3381C18.7322 39.1518 19.4293 39.9054 20.1929 40.589C20.3947 40.7546 20.6098 40.9035 20.8362 41.0341C20.8181 41.4937 20.8109 41.9496 20.8145 42.4091C20.7061 42.3417 20.5939 42.2805 20.4784 42.226C19.517 41.7808 18.7002 41.2029 17.728 40.8403C16.2172 40.2731 15.8088 38.8156 14.6089 37.8499C13.7415 37.1499 12.762 37.132 11.7175 36.8843C11.3124 36.7925 10.9346 36.6077 10.6144 36.3446C10.2943 36.0814 10.0408 35.7474 9.87422 35.3693C9.94106 34.6028 9.9483 33.8323 9.89591 33.0646C9.87783 32.9138 9.63206 32.9103 9.65375 33.0646C9.70073 33.6392 9.70073 34.2167 9.65375 34.7913C9.03571 32.7559 9.65376 29.823 10.3188 28.3296C10.5907 27.7367 10.8319 27.1304 11.0416 26.5131L10.9296 26.4951C10.9491 26.5251 10.961 26.5593 10.9644 26.5948C10.9678 26.6304 10.9625 26.6662 10.9491 26.6993C10.9356 26.7323 10.9143 26.7617 10.887 26.7849C10.8597 26.8081 10.8272 26.8245 10.7922 26.8326C10.3089 26.8987 9.81716 26.867 9.34655 26.7393C9.30845 26.5071 9.23534 26.282 9.12969 26.0715C9.06463 25.9459 8.87669 26.0715 8.93814 26.1828C9.01448 26.3403 9.07034 26.5068 9.10439 26.6782C8.3061 26.4214 7.52505 26.1145 6.76597 25.7592C6.80573 25.472 6.85272 25.1848 6.90331 24.8976C6.90331 24.8151 6.93222 24.7361 6.94307 24.6535L7.64062 24.8546C7.64062 24.6858 7.64062 24.5171 7.66591 24.3412C7.68768 23.5123 7.76739 22.6858 7.90446 21.8678C8.74885 22.0364 9.57714 22.2766 10.3802 22.5858C10.3007 23.5873 10.3224 24.632 10.1995 25.6695L11.1862 25.9854C11.3026 25.4716 11.362 24.9468 11.3633 24.4202C11.3814 22.4601 11.2946 20.5611 12.7656 19.0354C14.9739 16.7702 16.4485 13.9449 18.5484 11.5972C18.5625 11.5799 18.5702 11.5583 18.5702 11.5361C18.5702 11.5139 18.5625 11.4924 18.5484 11.4751C19.1737 11.1161 19.8676 10.8361 20.5182 10.5238C21.1645 10.2124 21.7712 9.82553 22.3253 9.37143C23.5722 8.3519 24.2336 7.97138 25.6179 9.01244C25.6974 9.06988 25.7697 9.13091 25.8456 9.19194C26.0762 10.0563 26.3872 10.8976 26.7744 11.7048C26.8044 11.7646 26.8505 11.8148 26.9077 11.85C26.9648 11.8851 27.0307 11.9037 27.0979 11.9037C27.1651 11.9037 27.231 11.8851 27.2881 11.85C27.3452 11.8148 27.3914 11.7646 27.4214 11.7048C27.6332 11.1944 27.7555 10.6516 27.7828 10.1002L27.9852 10.075C27.4864 7.86727 27.0997 5.59488 26.8069 3.32608C26.713 2.75529 26.6082 2.2204 26.4744 1.66756L26.5973 1.55986L26.5431 1.02138L26.3515 1.17574C26.3118 1.03215 26.272 0.884962 26.2287 0.734187C25.9937 -0.102254 25.6251 -0.917155 25.3432 -1.75001C25.8781 -2.15207 26.2684 -2.68696 26.8575 -3.04954C27.456 -3.42771 28.1224 -3.68736 28.8201 -3.81419C29.9043 -3.93624 30.826 -3.29365 31.491 -2.42849C32.4452 -1.18281 32.6837 0.583413 34.2667 1.22241C35.0962 1.52469 35.9711 1.6861 36.8545 1.69987C37.2557 1.69987 37.628 1.56704 38.0255 1.54909C38.9544 1.49883 39.5182 2.03013 40.1724 2.57938C41.2892 3.51993 42.4928 3.78558 43.8192 3.85379C43.877 4.68305 43.8553 5.53745 43.8119 6.38465ZM42.1783 13.9234C41.7811 13.524 41.3162 13.1971 40.8049 12.9577C40.9841 12.1756 41.1133 11.3831 41.1916 10.5848C41.8598 10.8265 42.4598 11.2242 42.9409 11.7443C43.0674 11.8915 43.1831 12.0423 43.3023 12.1931C43.259 12.5233 43.212 12.8536 43.1541 13.1803C43.0913 13.6639 42.9996 14.1434 42.8795 14.6162C42.6301 14.3757 42.3915 14.128 42.1783 13.927V13.9234ZM39.1496 19.4015C39.1496 19.4206 39.1572 19.4389 39.1707 19.4523C39.1843 19.4658 39.2027 19.4733 39.2219 19.4733C39.241 19.4733 39.2594 19.4658 39.273 19.4523C39.2865 19.4389 39.2941 19.4206 39.2941 19.4015C39.2941 19.1215 39.3158 18.8415 39.3231 18.5615C39.4255 18.5816 39.5268 18.6067 39.6267 18.6369C41.0398 19.1 41.3976 19.4015 41.6181 20.7908C41.7121 21.4047 41.8711 22.0581 41.9325 22.7078C41.9176 22.7243 41.9065 22.744 41.9 22.7653C41.5783 24.2802 41.0145 25.5797 40.5772 27.0372C40.111 28.5916 39.2544 29.5753 38.0472 30.602C37.5521 31.0184 36.963 31.2015 36.4642 31.6035C36.072 31.9948 35.7297 32.4325 35.445 32.9067C34.751 33.8293 34.021 34.1165 33.121 34.7016C32.811 34.8646 32.5465 35.1014 32.3512 35.3909C31.7765 36.3242 32.2681 37.6238 31.6862 38.5643C31.3862 39.0454 30.6019 39.3433 30.1826 39.7454C29.5863 40.3054 29.4309 41.0916 28.5815 41.429C28.0579 41.5893 27.5226 41.7094 26.9804 41.788C26.8236 41.8507 26.6734 41.9289 26.5323 42.0214C25.9351 42.0031 25.3644 41.7726 24.9239 41.3716C24.4251 41.2316 23.6698 41.228 23.2325 41.0808C22.57 40.8098 21.9589 40.4286 21.4253 39.9536C21.3422 39.8854 21.2627 39.81 21.1832 39.7382C21.1832 39.6197 21.2085 39.5013 21.2229 39.3792C21.2999 38.8516 21.3302 38.3182 21.3133 37.7853C21.2504 37.3017 21.1587 36.8222 21.0386 36.3494C21.0097 36.1878 20.7675 36.256 20.7928 36.4176C20.9337 36.9589 21.0351 37.5095 21.0964 38.0653C21.1007 38.5685 21.0668 39.0713 20.9952 39.5695C20.4133 39.0238 19.8857 38.4099 19.2785 37.8894C18.9395 37.5848 18.6197 37.2599 18.3207 36.9166C18.4255 36.0909 18.5339 35.2616 18.5918 34.4252C19.3933 34.5261 20.1415 34.8782 20.7278 35.4303C21.3892 36.0729 21.5048 36.9453 21.9675 37.6453C23.0011 39.2213 24.7974 39.3972 26.3046 38.5356C27.0744 38.1012 28.1117 37.7027 28.7297 37.053C29.5429 36.1986 29.673 34.8811 30.4501 33.9693C31.3031 32.9677 31.9464 31.6143 33.009 30.882C33.9053 30.2609 35.0004 30.3148 35.8823 29.7332C36.7642 29.1516 37.375 27.9383 37.8195 26.9941C38.0666 26.5244 38.2432 26.0213 38.3436 25.5007C38.4448 24.8223 38.0183 24.3592 38.1846 23.5514C38.2099 23.4258 38.0219 23.3253 37.9605 23.4581C37.9475 23.4835 37.9366 23.5099 37.928 23.5371C37.8848 22.9894 37.7831 22.4479 37.6244 21.9216C37.1915 21.0947 36.5038 20.4268 35.6618 20.0154C34.939 19.7067 33.974 19.7533 33.1861 19.6098C31.7223 19.3405 30.4067 18.5328 29.1128 17.7682C28.2454 17.2476 27.631 16.2748 26.6371 15.9732C25.9395 15.7506 25.1299 15.9265 24.4107 15.8691C23.5729 15.7528 22.7225 15.9653 22.0398 16.4614C22.0221 16.4465 21.9997 16.4383 21.9765 16.4383C21.9533 16.4383 21.9309 16.4465 21.9133 16.4614C21.0507 17.1799 20.2994 18.0206 19.6833 18.9564C18.9604 20.0334 18.9604 20.7083 18.8845 21.9216C18.7761 23.4043 18.3315 24.1653 17.3665 25.2243C16.7051 25.9423 16.3943 26.409 16.3835 27.4285C16.3654 29.306 17.3412 30.4368 16.416 32.3323C16.2389 32.6913 15.957 32.7128 16.0546 33.2154C16.2028 33.9334 17.0521 34.0985 17.634 34.2385C17.8725 34.2959 18.1038 34.3426 18.3243 34.3857C18.2737 35.1647 18.1834 35.9401 18.1002 36.7191C17.6669 36.1925 17.1506 35.7391 16.5714 35.3765C15.5847 34.8488 14.1499 35.0175 13.2066 34.3677C11.6054 33.2908 14.3342 30.5409 14.7137 29.5214C15.0932 28.5019 14.9016 27.6008 14.7824 26.6028C14.6064 25.633 14.6472 24.6367 14.9016 23.6843C15.1727 22.8801 15.7618 22.2806 16.1052 21.5303C16.6148 20.3959 17.0268 19.1251 17.4822 17.9656C17.9376 16.8061 18.4002 14.9106 19.3869 13.7834C19.5206 13.6506 19.6544 13.5213 19.7917 13.3957C19.9415 13.2731 20.1053 13.1682 20.2796 13.0834C20.31 13.0706 20.3342 13.0466 20.347 13.0165C20.3598 12.9863 20.3603 12.9523 20.3483 12.9218C20.7872 12.5657 21.3114 12.3283 21.8699 12.2326C23.3373 12.0208 24.4902 12.5054 25.8456 13.0152C26.4311 13.2377 27.0238 13.4711 27.6274 13.647C28.7514 13.9808 29.2682 14.5768 30.1031 15.424C30.7212 16.0486 31.1874 16.5368 32.0223 16.8599C32.929 17.1661 33.8801 17.3225 34.8378 17.323C35.8606 17.3733 36.6847 17.2763 37.6497 17.7717C37.9858 17.9441 38.2532 18.2205 38.6074 18.3748C38.7805 18.4456 38.9612 18.4962 39.146 18.5256C39.1243 18.8164 39.1315 19.1108 39.1496 19.4015ZM17.6557 28.3762C17.6047 27.3918 17.9462 26.4271 18.6062 25.691C19.2496 24.8617 19.3688 24.133 19.4158 23.0991C19.4736 21.857 19.1447 20.7442 19.7194 19.5774C20.045 18.9727 20.447 18.4117 20.9157 17.9082C20.929 17.9051 20.9414 17.8989 20.9519 17.8902C21.5265 17.5061 21.9964 16.9568 22.6325 16.6768C23.5722 16.264 24.1216 16.5368 25.0504 16.6338C26.1997 16.7558 26.7021 16.763 27.6201 17.6389C28.2138 18.2127 28.8505 18.7407 29.5248 19.2185C30.1429 19.6492 30.7212 20.1985 31.4368 20.4677C32.2283 20.7693 32.9078 20.579 33.7282 20.5683C34.7583 20.5683 35.6727 20.7298 36.4317 21.4657C37.1907 22.2016 37.3533 23.2607 37.7292 24.2407C37.6171 24.8761 37.6605 25.4972 37.44 26.172C37.0389 27.407 36.0486 29.1014 34.7221 29.4819C33.2764 29.8947 32.1488 30.1999 31.2814 31.5676C30.667 32.5261 29.8682 33.2764 29.2321 34.2098C28.596 35.1432 28.5598 36.037 27.4503 36.6653C26.4853 37.2073 25.1046 38.0689 24.0457 37.9038C22.8313 37.7171 22.7192 36.7586 22.094 35.9401C21.6401 35.3277 21.0997 34.7836 20.4892 34.3247C20.0919 34.0468 19.6493 33.8392 19.1809 33.7108C18.992 33.6711 18.7992 33.6531 18.6062 33.6569C18.6062 33.6175 18.6062 33.5744 18.6062 33.5313C18.6062 33.3769 18.3641 33.3769 18.3605 33.5313C18.3605 33.5744 18.3605 33.6139 18.3605 33.6569C18.0112 33.6931 17.6584 33.6374 17.3376 33.4954C16.3871 32.8636 17.5689 32.3036 17.8111 31.6179C18.1978 30.5302 17.7135 29.4281 17.6557 28.3762ZM7.47075 36.5935C7.31895 35.2293 6.43346 33.8723 6.63225 32.4974C6.85633 30.9466 7.29365 29.3563 7.46714 27.766C8.04816 27.7715 8.6264 27.6855 9.18028 27.5111C9.11187 27.9219 9.01404 28.3274 8.88753 28.7245C8.6779 29.4424 8.50081 30.1999 8.30564 30.9394C7.88772 32.334 7.57244 33.757 7.36232 35.197C7.36232 35.258 7.45268 35.2688 7.46714 35.197C7.89723 33.4021 8.39961 31.6071 8.85862 29.8122C9.05379 29.0475 9.38268 28.2255 9.44051 27.4213C9.57424 27.3675 9.70435 27.3172 9.83085 27.2526C9.88013 27.2243 9.92315 27.1865 9.95735 27.1413C9.27065 29.6542 8.62369 31.9769 8.98873 34.6585C9.14376 35.6755 9.68261 36.5957 10.4959 37.2325C10.8579 37.4387 11.2527 37.582 11.6633 37.6561C13.2319 38.1371 13.9113 38.4207 15.0064 39.7346C15.6743 40.5715 16.4976 41.2734 17.4316 41.8024C17.934 42.1111 18.2918 42.5598 18.805 42.8614C19.5748 43.3209 20.482 43.5004 21.2591 43.9599C22.0394 44.4749 22.8822 44.8898 23.7674 45.1948C24.8516 45.5359 25.8347 46.3005 27.0202 46.0779C28.2852 45.8338 29.5501 45.0799 30.7428 44.5989C31.2124 44.3631 31.6631 44.0919 32.091 43.7876C33.1102 43.1809 33.6523 43.3604 34.6209 42.9619C36.9268 42.0142 36.681 39.4618 37.2051 37.4048C38.0219 37.9289 38.8821 38.4566 39.7351 38.97C39.4467 39.6148 39.2169 40.284 39.0484 40.9695C38.7484 42.1255 38.246 42.4055 37.2413 43.0732C36.4461 43.5937 35.6654 44.125 34.8595 44.624C33.1319 45.701 31.6356 46.9574 29.673 47.5928C28.3032 48.0344 27.0599 47.9159 25.7371 47.6754C25.1841 47.3164 24.5733 47.241 23.8469 47.0436C22.6072 46.7062 21.2265 46.3256 20.0447 45.8984C18.9351 45.4928 18.3821 44.4625 17.2943 43.9886C16.2064 43.5147 15.6823 43.6512 14.6378 42.9116C14.1679 42.5742 13.7234 42.2368 13.2427 41.9101C12.4909 41.4003 11.797 40.4741 10.9332 40.1654C9.93205 39.8064 8.49358 40.4023 7.68037 39.4833C7.20329 38.9125 7.5575 37.2432 7.4816 36.5827L7.47075 36.5935ZM4.02999 23.9356L4.23239 23.9966L4.72393 24.0899C4.65526 24.3699 4.5902 24.6535 4.51791 24.9371C4.39142 24.8977 4.2613 24.8546 4.13119 24.8187C4.15649 25.0089 4.17818 25.1992 4.18541 25.3931C3.8997 25.3168 3.60635 25.2722 3.31076 25.2602C2.83006 25.2423 2.26624 25.35 1.72772 25.3751C1.87952 24.851 2.03132 24.3233 2.16143 23.7956C2.44696 22.6217 2.68188 21.4155 2.94211 20.2057C3.43365 20.4211 3.92156 20.6185 4.36973 20.8052C4.16436 21.6614 4.04332 22.5355 4.0083 23.415C4.00806 23.5855 4.01892 23.7557 4.04083 23.9248L4.02999 23.9356ZM4.78176 23.8494C4.69095 23.562 4.63988 23.2637 4.62995 22.9627C4.62749 22.307 4.70639 21.6535 4.86488 21.017L5.33112 21.1893C5.19739 22.0688 5.00584 22.9555 4.7926 23.8386L4.78176 23.8494ZM5.62387 21.2826C6.11902 21.4334 6.62863 21.5591 7.14186 21.6739C7.12379 21.857 7.10933 22.0329 7.09487 22.2304C7.09487 22.155 7.07319 22.0832 7.05512 22.0078C7.01898 21.8355 6.75513 21.9073 6.78766 22.0832C7.04065 23.3073 6.71176 24.5028 6.51659 25.7125L6.4949 25.8561C6.04519 25.8358 5.59853 25.7721 5.16125 25.6659C5.16125 25.5654 5.16125 25.4613 5.16125 25.3536C5.15599 25.2763 5.14512 25.1995 5.12872 25.1238C5.03114 25.0879 4.92994 25.0628 4.82874 25.0305C5.13595 23.774 5.43593 22.5283 5.63471 21.2719L5.62387 21.2826ZM0.18806 23.7094C0.4013 23.7094 0.61454 23.6914 0.831394 23.6879C0.688861 23.2869 0.607243 22.867 0.589235 22.4422C0.582863 21.3734 0.763872 20.3117 1.12415 19.3046C1.62703 19.5963 2.14587 19.86 2.67827 20.0944C2.31684 21.6488 2.03132 23.2176 1.59399 24.7361L1.40966 25.3751H1.19643C1.19643 25.3356 1.19643 25.2961 1.19643 25.2566C1.17288 24.9093 1.10363 24.5666 0.990422 24.2371C0.722968 24.2371 0.451893 24.212 0.180824 24.212C0.147601 24.2115 0.114795 24.2045 0.084281 24.1915C0.0537672 24.1784 0.0261488 24.1595 0.00299168 24.1358C-0.0437765 24.088 -0.0695171 24.0237 -0.0685587 23.9571C-0.0676003 23.8905 -0.0400257 23.8269 0.0080986 23.7805C0.056222 23.734 0.120961 23.7084 0.18806 23.7094ZM1.25425 25.9638C1.2145 26.1038 1.17474 26.2403 1.1386 26.3803C1.16028 26.2295 1.17836 26.0823 1.19282 25.9315L1.25425 25.9638ZM0.773565 27.8306C0.675981 28.265 0.592852 28.6993 0.535025 29.1445C0.448282 29.7871 0.26757 30.742 0.896448 31.1835C0.939819 31.2158 1.00849 31.1512 0.972344 31.1081C0.394066 30.3578 0.878378 28.7855 1.05548 27.9634C1.19282 27.3352 1.36269 26.7177 1.5434 26.1039C2.34278 26.434 3.16244 26.7133 3.99746 26.9403C3.52038 28.7101 2.52285 30.2968 2.63128 32.2425C2.69995 33.4846 3.40473 34.4754 3.37581 35.7534C3.35774 36.7442 3.15535 37.7135 3.42642 38.69C3.96132 40.589 5.28052 41.1203 6.74429 42.1937C6.76577 42.2117 6.7922 42.223 6.82018 42.226C6.85831 42.2683 6.89937 42.3079 6.94307 42.3445C7.44545 42.7752 8.02734 43.1019 8.53695 43.5471C9.37545 44.2902 10.0694 45.184 11.0235 45.7907C11.4559 46.0333 11.9011 46.2526 12.3572 46.4477C12.6034 47.8034 12.704 49.1813 12.6572 50.5581C12.4347 50.4604 12.2186 50.3489 12.0102 50.2242C11.5985 49.9684 11.1725 49.7359 10.7344 49.5278C10.6404 48.5442 10.3911 47.6323 10.214 46.6559C10.1814 46.4836 9.9176 46.5554 9.94651 46.7277C10.1019 47.6216 10.2899 48.476 10.4019 49.3662C9.69745 49.0418 9.00988 48.6824 8.34179 48.2893L8.2948 48.2606C8.18552 46.9034 7.93109 45.5616 7.53581 44.2579C7.48882 44.0999 7.23582 44.1645 7.28642 44.3261C7.65537 45.5351 7.87743 46.7837 7.94784 48.0452C7.49274 47.7125 7.05824 47.3528 6.64671 46.9682C6.70185 45.5658 6.51357 44.1645 6.09011 42.8255C6.0359 42.6819 5.80458 42.7429 5.85879 42.8865C6.25371 44.1365 6.43453 45.4434 6.39371 46.7528C5.85669 46.2462 5.2789 45.7839 4.6661 45.3707L4.38419 45.1805C4.39397 43.9012 4.2385 42.6259 3.92157 41.3859C3.90999 41.3586 3.88877 41.3364 3.86188 41.3234C3.835 41.3105 3.80428 41.3077 3.77549 41.3156C3.74669 41.3235 3.72178 41.3416 3.70543 41.3664C3.68907 41.3913 3.6824 41.4212 3.68664 41.4506C3.97931 42.6091 4.125 43.7994 4.12035 44.9938C3.70235 44.6779 3.26277 44.3912 2.80477 44.1358L2.70719 44.082C2.32769 43.7768 1.91928 43.5076 1.53256 43.2096C1.53256 42.2691 1.51448 41.3321 1.57231 40.3987C1.63737 39.3684 1.82169 38.2161 1.26871 37.2827C1.2505 37.2523 1.22085 37.2302 1.18628 37.2215C1.15171 37.2127 1.11506 37.218 1.08438 37.2361C1.05371 37.2541 1.03153 37.2836 1.02272 37.3179C1.01391 37.3523 1.01919 37.3887 1.0374 37.4191C1.65182 38.4782 1.27594 39.8926 1.24703 41.0449C1.24703 41.6803 1.22535 42.3157 1.22535 42.9511C1.15306 42.8901 1.08078 42.8327 1.01211 42.7681C-0.0107231 41.7808 -0.386605 40.3269 -0.332392 38.9556C-0.289021 37.8786 -0.0432568 36.8591 -0.223969 35.7858C-0.491423 34.2134 -0.71912 32.9138 -0.393838 31.3271C-0.155298 30.146 0.386842 28.9973 0.773565 27.8234V27.8306ZM14.0414 47.618C14.1716 48.7955 14.374 49.9801 14.486 51.1612C13.9511 51.0032 13.4017 50.8525 12.9066 50.655C12.943 49.293 12.845 47.9307 12.6138 46.5877C13.1306 46.9 13.5499 47.2877 14.0414 47.618ZM12.5524 54.349C12.0211 54.1946 11.4898 54.0403 10.9838 53.8428C10.9838 53.552 10.9621 53.2613 10.9549 52.9669C10.9332 52.2489 10.8826 51.5058 10.8284 50.7735C11.085 50.9745 11.338 51.1791 11.6127 51.3622C11.9265 51.5674 12.2638 51.735 12.6174 51.8612C12.6174 52.4069 12.5849 52.9561 12.5741 53.5054C12.5668 53.7854 12.556 54.0654 12.5488 54.349H12.5524ZM1.55785 45.2199C1.55785 44.7999 1.55785 44.3799 1.55785 43.9563C2.0277 44.2866 2.5337 44.6097 3.05415 44.9938C3.08095 45.0127 3.11193 45.0251 3.14451 45.0297C3.19752 45.0871 3.24449 45.1338 3.28546 45.1697C3.55652 45.3994 3.84567 45.6041 4.13842 45.8087C4.13842 47.1585 4.05168 48.519 4.13842 49.8724C3.37607 49.1394 2.55671 48.4672 1.68797 47.8621C1.65544 47.8621 1.6229 47.819 1.59038 47.7975C1.55062 46.9395 1.55424 46.0779 1.55424 45.2199H1.55785ZM4.35166 48.8098C4.35166 47.8693 4.37696 46.9323 4.38419 45.9989C4.64825 46.1794 4.90167 46.3748 5.14318 46.5841C5.57328 46.9646 5.97084 47.3775 6.37925 47.7831C6.34672 48.8421 6.27805 49.894 6.28167 50.8884C6.28167 51.0822 6.28166 51.2725 6.30335 51.4627C6.12987 51.3694 5.96 51.2725 5.79374 51.1684C5.3075 50.8637 4.84698 50.5204 4.41672 50.1417C4.38057 49.6929 4.35166 49.2514 4.34804 48.8062L4.35166 48.8098ZM6.57442 50.3786C6.57442 49.6211 6.61056 48.8314 6.63225 48.0344C7.05154 48.4599 7.51287 48.8423 8.00927 49.176C8.04541 50.2529 8.14661 51.3299 8.20083 52.4069C7.67676 52.152 7.14547 51.9043 6.62863 51.6351C6.5961 51.215 6.5708 50.7986 6.5708 50.375L6.57442 50.3786ZM8.49358 51.872C8.45382 51.0391 8.4213 50.2135 8.3707 49.3878C8.82609 49.6319 9.3104 49.815 9.76941 50.0591C10.0222 50.1957 10.2639 50.3517 10.4923 50.5258C10.5537 51.5058 10.6115 52.4858 10.6188 53.4695V53.692C10.382 53.5903 10.1536 53.4703 9.93567 53.3331C9.47305 53.0459 8.99957 52.7982 8.51888 52.5612C8.50804 52.3279 8.50081 52.0981 8.48997 51.8684L8.49358 51.872ZM16.4015 55.6342V56.1044C15.8912 55.769 15.3573 55.4703 14.804 55.2106C14.8257 54.3275 14.8727 53.4408 14.8583 52.5541C14.9522 52.59 15.0462 52.6187 15.1402 52.6582C15.5305 52.8125 15.9461 52.9274 16.3509 53.0566C16.3943 53.9039 16.4088 54.7511 16.3979 55.6306L16.4015 55.6342ZM14.374 46.6595C13.7356 46.2837 13.0768 45.9433 12.4006 45.64C12.4006 45.5825 12.3717 45.5287 12.3536 45.4748C12.3466 45.4471 12.3298 45.4228 12.3061 45.4064C12.2825 45.39 12.2537 45.3827 12.2251 45.3858C12.1965 45.3888 12.1699 45.4021 12.1504 45.4231C12.1308 45.444 12.1195 45.4714 12.1187 45.5C11.8223 45.3528 11.5295 45.1984 11.244 45.0225C10.1019 44.3261 9.25257 43.2491 8.12131 42.5275C7.62616 42.2152 7.03704 41.7234 6.53105 41.4757L6.44792 41.429C5.97445 41.0449 5.45039 40.7398 5.00222 40.309C4.59444 39.8763 4.28195 39.3639 4.08469 38.8045C3.88742 38.2451 3.80971 37.651 3.85651 37.0602C3.89266 36.1447 4.10589 35.2652 3.95048 34.357C3.72278 33.0144 3.52761 31.9159 3.80591 30.5553C4.02999 29.446 4.5649 28.3762 4.89018 27.2706C5.34427 27.4488 5.8153 27.5811 6.29613 27.6654V27.7049C6.13953 28.4727 6.04645 29.2519 6.01782 30.0348C5.75037 31.6825 5.36727 33.3195 5.19017 34.9744C5.19017 35.0391 5.28414 35.0498 5.30221 34.9744C5.55159 34.0949 5.7576 33.1795 5.94193 32.2856C5.94193 34.1524 7.0262 35.9078 6.80212 37.7889C6.74067 38.3669 6.32142 38.8659 6.55996 39.4295C6.76958 39.9213 7.6117 40.3162 8.05264 40.5064C8.85139 40.8439 9.62484 40.6716 10.4525 40.8654C11.4573 41.0916 12.415 42.1578 13.2933 42.7681C14.1715 43.3783 14.8366 44.0245 15.8233 44.4948C16.6094 44.8662 17.3181 45.3813 17.9123 46.0133C18.275 46.4453 18.7275 46.7943 19.2387 47.0364C21.0061 47.6898 23.0156 47.6826 24.8733 48.0667C27.8117 49.8042 31.2488 47.959 33.7101 46.2538C35.5173 45.0081 37.4943 44.1681 39.3628 43.0876C40.5338 42.4163 40.6567 41.009 41.0434 39.7741L42.9987 40.9516C42.5436 41.5689 42.1318 42.2166 41.7663 42.8901C41.208 44.0082 40.3644 44.9613 39.3194 45.6543C38.3219 46.2969 37.1943 46.699 36.2582 47.4493C35.4305 48.1062 34.5125 48.5872 33.6342 49.176C33.2228 49.5097 32.7867 49.8121 32.3295 50.0806C31.5537 50.3679 30.7356 50.5268 29.908 50.5509C28.9268 50.5862 27.9513 50.7149 26.9949 50.935C25.5492 51.294 24.1432 51.5309 22.6578 51.2689C21.4651 51.0571 20.7495 50.296 20.0049 49.4237C19.4014 48.7057 18.7183 48.4149 17.8834 47.9877C16.7449 47.4026 15.4185 47.2985 14.3703 46.6415L14.374 46.6595ZM54.4342 23.1027C54.4258 23.8745 54.5169 24.6442 54.7053 25.3931C54.4956 26.3013 54.3005 27.2095 54.0619 28.1106C53.8993 28.7388 53.7005 29.3599 53.4945 29.9737C53.457 29.7983 53.4037 29.6265 53.3355 29.4604C53.1728 29.0763 52.9957 28.7029 52.8186 28.3296C52.9704 27.8844 53.1078 27.4357 53.2487 26.9941C53.6463 25.7197 54.1993 24.4274 54.4306 23.0848L54.4342 23.1027ZM53.5053 12.2649C53.7156 12.4699 53.9124 12.6881 54.0945 12.9182C54.9294 13.9952 55.2113 15.2768 55.345 16.6122C55.4534 17.6605 54.7631 19.2041 54.8028 20.4067C54.675 20.9186 54.5784 21.4377 54.5137 21.9611C54.4946 21.9396 54.4694 21.9242 54.4414 21.917C54.4134 21.9098 54.3838 21.9111 54.3566 21.9208C54.3293 21.9304 54.3056 21.948 54.2885 21.9712C54.2714 21.9944 54.2617 22.0222 54.2607 22.0509C54.2282 23.8458 53.3716 25.709 52.815 27.3926C52.7536 27.5793 52.6885 27.7516 52.6271 27.9454C52.3669 27.4034 52.1102 26.8685 51.8825 26.2977C52.5304 24.6862 53.089 23.0408 53.5559 21.3688C53.6029 21.2144 53.3608 21.1462 53.3102 21.3006C52.8512 22.7904 52.4319 24.2945 51.8645 25.7413C51.8356 25.8167 51.803 25.892 51.7705 25.9638C51.7091 25.7951 51.6476 25.6264 51.5934 25.4505C51.0224 23.6556 51.55 22.0724 51.7958 20.2918C51.8043 20.2388 51.7995 20.1846 51.7818 20.1339C51.7642 20.0832 51.7342 20.0375 51.6946 20.0011C51.9371 19.332 52.0832 18.6322 52.1283 17.9225C52.1283 17.2045 52.291 16.2496 52.0813 15.5604C51.814 14.9153 51.4251 14.3268 50.9356 13.8265C52.0199 13.5106 52.7138 12.9111 53.5017 12.2469L53.5053 12.2649ZM-2.71057 9.57606C-2.47203 8.3914 -1.82508 7.64111 -0.787789 6.98775C0.0687857 6.44568 1.01933 6.07951 1.89759 5.5518L1.99156 5.48719C1.85784 5.67745 1.7205 5.8713 1.59761 6.06516C0.838621 7.26059 0.112154 8.41652 -0.711893 9.56887C-1.53594 10.7212 -2.25517 12.0351 -3.06115 13.2449C-3.44065 13.8157 -3.82014 14.5193 -4.2683 15.1224C-4.05145 14.1172 -3.83098 13.1157 -3.54546 12.1392C-3.28885 11.2418 -2.89489 10.4627 -2.71418 9.5581L-2.71057 9.57606ZM-7.24283 24.9694C-7.13079 23.9176 -6.57419 23.0309 -6.36095 22.0042C-6.13326 20.9272 -5.56943 20.019 -5.22969 18.9672C-4.88996 17.9153 -4.63334 16.7809 -4.39119 15.6681C-4.09454 15.2952 -3.82518 14.9017 -3.58521 14.4906C-2.72863 13.2162 -1.89013 11.931 -1.08054 10.6243C-0.317937 9.38938 0.614531 8.2837 1.33015 7.01647C1.69158 6.39542 2.07107 5.81386 2.47225 5.22153L2.5337 5.1282C3.37943 4.55382 4.1854 3.922 5.01306 3.33326C5.83742 2.80586 6.56984 2.1487 7.18161 1.38755C7.87916 0.43982 8.26589 -0.583295 9.108 -1.4341C10.7959 -3.15724 12.3066 -4.83371 14.7028 -5.52656C15.9028 -5.88555 17.1027 -6.24453 18.3171 -6.55326C19.3255 -6.80096 20.2543 -6.94456 21.1434 -7.50817C21.2148 -7.55258 21.2783 -7.60837 21.3314 -7.6733C22.112 -7.84562 22.8855 -8.03229 23.612 -8.19743C25.8239 -8.66411 27.5876 -9.92057 29.5935 -10.8791C30.6778 -11.3996 31.8777 -11.9776 32.9909 -11.195C33.7004 -10.7106 34.3453 -10.1388 34.9101 -9.49337C36.2293 -7.91742 37.5557 -6.52813 39.4785 -5.67733C41.2856 -4.87679 43.4722 -4.60037 45.4203 -4.37062C46.9166 -4.18753 48.5249 -3.62392 49.9923 -3.18596C51.597 -2.70491 53.462 -1.66026 54.4017 -0.249441C54.2137 0.109547 54.0402 0.468538 53.8776 0.780858C53.5704 1.35883 53.2957 1.95116 53.0355 2.54708C52.9545 2.29006 52.8325 2.04764 52.6741 1.8291C52.497 2.18809 52.3126 2.54708 52.1464 2.90606C52.262 3.26505 52.2946 3.65635 52.3922 4.03687C52.0994 4.70459 51.7994 5.36872 51.4561 6.0113C51.2576 6.38094 51.0405 6.74038 50.8055 7.08827C50.7477 6.95544 50.6862 6.81903 50.6284 6.67902C50.6067 6.62876 50.5886 6.5785 50.5706 6.53184C50.5091 6.69338 50.4441 6.85852 50.3826 7.02365C50.2778 7.31443 50.1766 7.60521 50.0718 7.90317C50.0935 7.94984 50.108 8.00369 50.1296 8.05036L49.9236 8.33396C49.408 10.0254 48.7441 11.6687 47.9394 13.2449C47.9801 13.3372 48.0323 13.4241 48.0948 13.5034C48.2755 13.7014 48.5004 13.8546 48.7515 13.9506C49.0026 14.0466 49.2728 14.0828 49.5405 14.0562C49.8084 14.2993 50.0562 14.5634 50.2814 14.846C51.0043 15.7542 51.232 16.8563 51.3476 17.9943C51.438 18.8882 50.8525 20.2057 50.885 21.2252C50.7779 21.6594 50.6959 22.0992 50.6392 22.5427C49.9598 23.8961 49.3706 25.2925 48.6695 26.6316C48.4707 26.9906 48.2864 27.407 48.0912 27.8019C47.9835 27.3782 47.9062 26.9476 47.8599 26.5131C47.6322 24.2084 48.5611 22.0293 48.8032 19.7749C48.8069 19.7238 48.7996 19.6725 48.7817 19.6245C48.7638 19.5765 48.7358 19.5328 48.6995 19.4964C48.6632 19.46 48.6195 19.4318 48.5713 19.4136C48.5231 19.3953 48.4716 19.3876 48.4201 19.3908C48.6529 18.4266 48.5681 17.4136 48.1779 16.5009C47.8848 15.7729 47.4773 15.0956 46.9708 14.4942C46.7359 14.4942 46.4937 14.3362 46.6094 14.0526C46.0492 13.4136 45.442 12.8105 44.8818 12.1967C45.1348 10.714 45.4167 9.23142 45.6263 7.73804C45.8068 7.84328 45.9661 7.98082 46.0961 8.14369C46.3889 8.53499 46.3672 9.00885 46.4973 9.46835C46.7009 10.2808 47.0249 11.0588 47.4587 11.7767C47.5997 11.4177 47.7406 11.0587 47.8852 10.6997C47.6828 10.3407 47.5238 9.9494 47.3322 9.51502C47.072 8.91551 47.072 8.11856 46.6094 7.61957C46.3499 7.3707 46.0459 7.17224 45.713 7.03442C45.7962 6.31645 45.854 5.59847 45.8757 4.89845C45.8757 4.56459 45.8757 4.21996 45.8757 3.87892C46.5016 3.86326 47.1255 3.95682 47.7189 4.15534C48.2837 4.3106 48.7925 4.62181 49.1863 5.05281C49.4971 5.46923 49.508 5.96464 49.62 6.45645C49.7176 6.21593 49.8152 5.97541 49.9092 5.73848C50.0031 5.50154 50.079 5.31128 50.1658 5.08871C50.0868 4.85503 49.9642 4.63824 49.8044 4.44971C49.3056 3.91482 48.2538 3.55224 47.5888 3.28659C47.0701 3.10005 46.5297 2.97943 45.9805 2.9276C46.041 2.59898 46.1636 2.28471 46.3419 2.00141C46.425 1.87218 46.219 1.7573 46.1395 1.88295C45.9442 2.19355 45.8105 2.53839 45.7456 2.89888C45.5046 2.87495 45.2769 2.84623 45.0625 2.81272C44.1069 2.70242 43.1685 2.47576 42.2687 2.13783C41.3362 1.77884 40.5302 1.13984 39.6014 0.788033C38.6725 0.436226 37.8882 0.705466 36.9593 0.737776C35.6329 0.788033 34.1908 0.378791 33.4752 -0.77356C32.9005 -1.68898 32.4958 -2.52542 31.7476 -3.32596C30.3597 -4.81576 29.5393 -4.81935 27.631 -4.06548C26.6624 -3.68495 26.0407 -2.93108 25.2528 -2.39977C25.1827 -2.65107 25.1284 -2.90644 25.0902 -3.16442C25.0396 -3.52341 24.4866 -3.4193 24.4938 -3.08544C24.5011 -2.75158 24.5191 -2.36747 24.5408 -2.00848C23.2831 -1.52384 21.8301 -1.93309 20.5073 -1.77873C19.299 -1.62806 18.1303 -1.25169 17.0629 -0.669456H17.0232C15.1402 0.177755 13.6764 0.604949 12.8018 2.63323C12.1006 4.27021 11.75 5.67386 10.1055 6.60723C9.12323 7.12822 8.1895 7.73491 7.31534 8.42011C5.69978 9.75196 4.11674 10.7069 3.25655 12.6669C2.74333 13.848 2.73609 15.1045 2.12167 16.2568C1.89036 16.6948 1.6193 17.1148 1.35907 17.5348C2.0806 15.2599 2.93624 13.0291 3.92157 10.854C3.99385 10.6961 3.76254 10.5597 3.68664 10.7176C2.55634 13.1551 1.58217 15.661 0.769948 18.2205L0.697659 18.1487C0.606598 18.0909 0.518545 18.0286 0.433825 17.962C0.0940876 17.6928 -0.390224 18.1415 -0.0540991 18.4466C0.135118 18.6176 0.335547 18.7759 0.545867 18.9205C0.368769 19.4698 0.184438 19.9975 0.0326395 20.5647C-0.487811 22.2699 -0.899826 23.9679 -1.25764 25.709C-1.46003 26.6926 -2.13229 27.8377 -1.54316 28.7639C-1.53741 28.7773 -1.52656 28.7878 -1.51301 28.7932C-1.49945 28.7986 -1.48431 28.7984 -1.47089 28.7927C-1.45747 28.787 -1.44688 28.7762 -1.44146 28.7627C-1.43604 28.7492 -1.43621 28.7342 -1.44197 28.7209C-1.65882 28.0603 -1.44197 27.5829 -1.23957 26.9582C-1.0191 26.2654 -0.907061 25.5223 -0.755262 24.8258C-0.560093 23.9104 -0.328784 23.0094 -0.079401 22.1155C-0.108315 22.4063 -0.126384 22.6971 -0.133613 22.9807C-0.166141 24.0576 0.188055 24.9838 0.0362568 26.0572C-0.325167 28.5701 -1.92989 30.663 -1.77086 33.3195C-1.69135 34.777 -0.867298 35.9365 -0.896212 37.4371C-0.917897 38.514 -1.11668 39.5551 -0.896212 40.6034C-0.896212 42.293 -0.896212 43.9814 -0.896212 45.6687C-0.896212 45.8195 -0.896212 45.9702 -0.896212 46.1246C-1.43504 45.76 -1.94825 45.3594 -2.43226 44.9256C-2.4522 44.9069 -2.47036 44.8865 -2.48649 44.8645C-2.48649 44.5056 -2.48649 44.1466 -2.48649 43.7876C-2.50817 42.3516 -2.34553 40.9947 -2.26601 39.5767C-2.1865 38.1587 -2.26602 36.6545 -2.29493 35.2042C-2.29493 35.1709 -2.30826 35.1389 -2.33198 35.1153C-2.3557 35.0918 -2.38787 35.0785 -2.42142 35.0785C-2.45497 35.0785 -2.48715 35.0918 -2.51087 35.1153C-2.5346 35.1389 -2.54792 35.1709 -2.54792 35.2042C-2.54792 36.6401 -2.50456 38.1299 -2.59853 39.5767C-2.64551 40.2946 -2.80092 41.0126 -2.84429 41.7306C-2.88766 42.4486 -2.84429 43.206 -2.84429 43.9455V44.4589C-3.65061 43.3463 -4.04049 41.989 -3.94663 40.6213C-3.89965 39.4115 -3.61774 38.2556 -3.82375 37.0314C-3.84905 36.8914 -3.87074 36.7514 -3.89604 36.6114C-3.70775 35.5049 -3.57866 34.3893 -3.50931 33.2692C-3.50931 33.2378 -3.52188 33.2077 -3.54424 33.1855C-3.56661 33.1633 -3.59696 33.1508 -3.62859 33.1508C-3.66022 33.1508 -3.69055 33.1633 -3.71292 33.1855C-3.73529 33.2077 -3.74785 33.2378 -3.74785 33.2692C-3.79068 34.0744 -3.88971 34.8757 -4.04422 35.6673C-4.25664 34.4537 -4.24684 33.2121 -4.0153 32.002C-3.54907 29.7153 -2.0853 27.547 -2.20818 25.131C-2.25905 24.5829 -2.38052 24.0436 -2.56961 23.5263C-2.559 23.5119 -2.55192 23.4952 -2.54893 23.4776C-2.54594 23.46 -2.54712 23.442 -2.55238 23.4249C-2.55764 23.4078 -2.56683 23.3922 -2.57924 23.3793C-2.59164 23.3663 -2.6069 23.3565 -2.62382 23.3504L-2.69973 23.0955C-2.67443 23.0201 -2.64913 22.9448 -2.63105 22.873C-2.37607 22.0075 -2.04343 21.1665 -1.63714 20.36C-0.990189 18.9851 -0.451665 17.5779 0.126614 16.1742C0.80609 14.5229 1.57231 12.9146 2.36745 11.3136C2.79754 10.4484 3.1698 9.56169 3.53846 8.67499C3.89967 8.50714 4.24244 8.30263 4.56128 8.06471C5.49376 7.3252 6.36841 6.58569 7.37678 5.93592C9.3863 4.6328 10.0658 3.30095 10.9693 1.11471C11.3814 0.116728 11.7356 -0.888435 12.415 -1.73206C12.705 -2.07498 13.0463 -2.37161 13.427 -2.61158C13.4396 -2.58501 13.4622 -2.56444 13.49 -2.55435C13.5177 -2.54426 13.5483 -2.54548 13.5752 -2.55773C15.1691 -3.15365 16.8786 -4.21984 18.5231 -4.48549C20.4278 -4.79422 22.7373 -4.17676 24.5191 -4.9809C25.4697 -5.40809 25.9648 -6.26966 26.8214 -6.80455C27.495 -7.23321 28.2463 -7.5271 29.0333 -7.66971C30.2766 -7.80613 31.2994 -7.08098 32.0476 -6.10453C33.1319 -4.70089 33.3921 -2.70492 35.1811 -1.98694C36.1171 -1.64498 37.1043 -1.46174 38.1014 -1.44487C38.5568 -1.44487 38.9725 -1.59564 39.4206 -1.61718C40.4688 -1.67103 41.1049 -1.07511 41.8458 -0.454061C43.3529 0.813166 44.9938 0.981889 46.8443 1.0142C47.9575 1.0142 49.2188 0.928039 50.2525 1.32652C50.6997 1.47504 51.1241 1.68402 51.5139 1.94757C51.6476 1.67833 51.7922 1.41626 51.944 1.16138C51.3497 0.843321 50.7324 0.569732 50.0971 0.342893C49.2116 -0.0160952 48.1743 -0.0448189 47.2455 -0.188414C46.1677 -0.311716 45.1092 -0.566105 44.0939 -0.945872C43.0385 -1.36948 42.1313 -2.07309 41.0796 -2.47157C40.0278 -2.87005 39.1496 -2.56491 38.1014 -2.52542C36.6015 -2.47157 34.9751 -2.94184 34.1691 -4.2342C33.5222 -5.26449 33.0632 -6.20863 32.2211 -7.1061C30.6561 -8.78975 29.7272 -8.78975 27.5768 -7.94254C26.2034 -7.40047 25.4624 -6.19787 24.1722 -5.66298C22.7265 -5.07065 21.0567 -5.55169 19.5351 -5.37578C18.1727 -5.20468 16.8547 -4.7809 15.6498 -4.1265H15.6064C13.4776 -3.16801 11.8259 -2.69055 10.8428 -0.393034C10.0513 1.44857 9.65376 3.0353 7.79965 4.08713C6.69148 4.67543 5.63801 5.36019 4.65164 6.13336L4.38781 6.34875C4.37394 6.33648 4.35729 6.3277 4.33929 6.32317C4.32128 6.31863 4.30245 6.31847 4.28437 6.32269C4.26629 6.32692 4.24949 6.33541 4.23541 6.34744C4.22133 6.35948 4.21038 6.3747 4.20348 6.39183L4.13842 6.54979C3.05415 7.40059 2.02771 8.15805 1.19282 9.14168C2.03494 7.79188 3.41196 5.52667 3.14089 5.41898C3.05053 5.38308 2.98548 5.53385 3.07222 5.57693C3.10475 5.59488 1.73495 7.77034 1.57953 8.00727C0.471164 9.68762 -0.524897 11.4385 -1.40222 13.2485C-2.21903 14.9465 -2.89489 16.7091 -3.72617 18.4036C-3.83821 18.6333 -4.22855 19.3405 -4.20325 19.7857C-4.80322 20.8913 -5.26222 22.0724 -5.81158 23.2032C-6.44752 24.4984 -7.01689 25.8248 -7.5175 27.1772C-7.61147 27.4357 -7.70906 27.6942 -7.79941 27.9598C-7.55222 26.9694 -7.36754 25.9647 -7.24644 24.9515L-7.24283 24.9694ZM-2.54432 49.5924C-2.54432 49.1616 -2.51539 48.7272 -2.51178 48.2965V45.8051C-2.03108 46.1892 -1.49618 46.5231 -0.935974 46.9179C-0.954045 48.0416 -0.979345 49.1652 -0.935974 50.2853C-1.46365 50.0232 -2.01302 49.797 -2.56238 49.5745L-2.54432 49.5924ZM-6.58503 41.6372L-6.7043 42.4055C-6.89552 41.789 -7.15238 41.1945 -7.47052 40.6321C-7.01726 37.768 -6.37006 34.9375 -5.53329 32.16C-5.07067 30.5768 -4.52853 29.0152 -3.99724 27.4501C-3.79845 26.8577 -3.67557 26.2115 -3.51293 25.5797C-3.51553 25.7503 -3.5288 25.9206 -3.55268 26.0895C-3.95025 28.9363 -5.77182 31.2876 -5.60557 34.2852C-5.56979 34.7727 -5.47763 35.2545 -5.33089 35.7211C-5.83689 37.6704 -6.29228 39.6197 -6.6031 41.6193L-6.58503 41.6372ZM-2.77562 21.0421C-2.81899 21.1498 -2.86598 21.2539 -2.90935 21.3616C-2.83357 19.8606 -2.41587 18.3963 -1.68773 17.0789C-1.095 16.0594 -0.38661 15.1009 -0.0324144 13.9629C0.375995 12.6633 0.365151 11.2166 1.25425 10.093C1.69158 9.54016 2.4578 9.20271 3.20234 8.8509L3.18065 8.90475C2.77947 9.78067 2.34938 10.6387 1.91567 11.4966C1.07355 13.1659 0.292871 14.8568 -0.411905 16.5907C-1.09138 18.2492 -1.85761 19.8646 -2.5407 21.5268C-2.67081 21.857 -2.77562 22.1873 -2.8732 22.5247C-2.90395 22.3516 -2.92207 22.1764 -2.92742 22.0006C-2.92742 21.9755 -2.92742 21.9504 -2.92742 21.9252C-2.82261 21.6632 -2.71418 21.4047 -2.60213 21.1462C-2.56599 21.0098 -2.73948 20.9057 -2.79369 21.0242L-2.77562 21.0421ZM-2.28047 16.7127C-2.62652 17.0548 -2.90374 17.4593 -3.09729 17.9046C-3.24186 18.1918 -3.4045 18.461 -3.57437 18.7302C-3.12259 17.6066 -2.39251 16.1814 -2.33468 16.0522C-1.64798 14.4511 -0.917901 12.8787 -0.0974684 11.3459C-0.534791 12.5628 -0.603467 13.8372 -1.23234 15.0219C-1.53594 15.5963 -1.90097 16.1348 -2.24071 16.6876L-2.28047 16.7127ZM-8.85838 37.3509C-9.14391 35.416 -8.85839 33.2944 -8.5295 31.3163V31.3666C-8.52683 31.3755 -8.52134 31.3833 -8.51385 31.3888C-8.50636 31.3944 -8.49727 31.3974 -8.48793 31.3974C-8.47859 31.3974 -8.4695 31.3944 -8.46201 31.3888C-8.45452 31.3833 -8.44903 31.3755 -8.44637 31.3666C-8.34155 29.884 -7.7958 28.4947 -7.27174 27.1018C-6.74767 25.709 -6.12964 24.3771 -5.48992 23.0453C-5.02007 22.0652 -4.6225 21.0493 -4.12012 20.0872C-4.06529 20.1348 -3.99726 20.1648 -3.92495 20.1734C-3.86712 20.1734 -3.81652 20.1016 -3.88158 20.0728C-3.94663 20.0441 -3.95748 19.9005 -3.92134 19.7139C-3.66834 19.2831 -3.36836 18.881 -3.12982 18.443L-3.05753 18.2995C-3.09006 18.4 -3.1262 18.4933 -3.15511 18.5938C-3.50875 19.9023 -3.71245 21.2462 -3.76231 22.6001C-3.76845 22.8326 -3.76 23.0652 -3.73701 23.2966C-3.94956 23.7888 -4.19092 24.2683 -4.45986 24.7325C-5.18271 25.9423 -5.46462 27.3388 -6.07904 28.5988C-7.27536 31.0435 -8.60901 34.0949 -8.3018 36.8771C-8.3018 36.9309 -8.20421 36.956 -8.19337 36.8771C-7.98013 35.3406 -7.83195 33.8616 -7.37655 32.3718C-6.9039 30.9838 -6.33882 29.6287 -5.68508 28.3152C-5.15379 27.1736 -4.91525 25.9208 -4.2683 24.8258C-4.05601 24.4646 -3.86416 24.0919 -3.69364 23.7094C-3.64666 24.1079 -3.58882 24.4992 -3.55268 24.8976C-3.72616 25.4541 -3.84544 26.0356 -4.00085 26.5992C-4.48516 28.3332 -5.18993 30.0096 -5.71038 31.7364C-6.23083 33.4631 -6.679 35.3262 -7.08018 37.1427C-7.30427 38.1551 -7.55003 39.1782 -7.69822 40.2121C-8.2006 39.2966 -8.70659 38.3812 -8.85838 37.3509ZM-6.54527 46.541C-6.7549 45.5466 -6.4766 44.4481 -6.54527 43.4071C-6.38263 42.2332 -6.21277 41.0593 -6.00675 39.8926C-5.7899 38.6684 -5.48991 37.4622 -5.18993 36.256C-4.85748 37.1043 -4.67293 38.0027 -4.64419 38.9125C-4.66226 39.8064 -4.78876 40.6859 -4.75623 41.5654V41.6983C-4.93888 44.0305 -4.87711 46.3754 -4.5719 48.6949C-5.47546 48.2318 -6.32842 47.5605 -6.55973 46.541H-6.54527ZM-4.29721 48.8314C-4.29721 47.7975 -4.45624 46.7313 -4.4707 45.701C-4.4707 44.8143 -4.50684 43.924 -4.49239 43.0373C-4.19755 43.9877 -3.63886 44.8363 -2.88044 45.4856C-2.88044 46.4728 -2.88044 47.4636 -2.88044 48.4508C-2.88044 48.7775 -2.88044 49.1114 -2.88044 49.4416C-3.3033 49.2693 -3.72617 49.0826 -4.13458 48.9067L-4.29721 48.8314ZM-0.603459 50.4109C-0.605236 50.3966 -0.605236 50.3821 -0.603459 50.3678C-0.668516 49.2909 -0.650443 48.1959 -0.635986 47.1118C-0.484188 47.2159 -0.332394 47.3236 -0.176982 47.4385C-0.147332 47.4603 -0.112426 47.4739 -0.0757837 47.478C-0.0143414 47.5426 0.0398731 47.5964 0.0832443 47.6359C0.444668 47.9447 0.842232 48.2139 1.23257 48.4903C1.23257 49.5134 1.2651 50.5437 1.34823 51.5668C0.740552 51.1142 0.0863457 50.7267 -0.603459 50.4109ZM3.86012 53.6238C3.20986 52.9868 2.5075 52.4044 1.76025 51.8828C1.70965 51.3981 1.66267 50.9171 1.63376 50.4468C1.60484 49.8796 1.58677 49.316 1.57231 48.7524C1.78555 48.9067 1.99517 49.0683 2.19034 49.2406C2.8915 49.8616 3.52038 50.5617 4.20348 51.1935C4.27938 52.2166 4.36973 53.2397 4.48177 54.2521C4.28299 54.051 4.07336 53.8644 3.86012 53.6238ZM4.80706 54.5249C4.73477 53.8823 4.68417 53.2397 4.63357 52.5971C4.60466 52.2202 4.56852 51.8469 4.53237 51.4735C4.83091 51.7358 5.14863 51.9758 5.48292 52.1915C5.77809 52.3736 6.0861 52.5344 6.40455 52.6725C6.49661 53.3978 6.54729 54.1278 6.55635 54.8588C6.55635 55.1854 6.53105 55.5085 6.53105 55.8316L6.03228 55.4726C5.57327 55.1388 5.18294 54.8444 4.80706 54.5249ZM6.84187 56.1152C6.8238 55.6126 6.8744 55.0813 6.84187 54.5716C6.8238 53.9972 6.76959 53.4085 6.71538 52.8377C6.94669 52.9418 7.17438 53.0387 7.39846 53.1572C7.68763 53.3352 7.96307 53.5344 8.22251 53.7531C8.22251 54.848 8.35263 56.0183 8.43214 57.0953C7.88548 56.7959 7.35468 56.4688 6.84187 56.1152ZM13.1234 59.224C13.0999 59.0793 13.089 58.9327 13.0909 58.7861C13.1122 58.2502 13.077 57.7136 12.9861 57.185C12.9126 56.748 12.8679 56.3067 12.8524 55.8639C13.062 55.9321 13.2716 56.0003 13.4704 56.0793C13.8065 56.2157 14.1571 56.3198 14.5077 56.4383C14.5077 56.546 14.5077 56.6573 14.5077 56.765C14.5655 57.8204 14.6703 58.8471 14.6884 59.8918C14.1752 59.6548 13.6475 59.4359 13.1234 59.224ZM16.7377 60.8539C16.7377 60.4697 16.763 60.0856 16.763 59.7015C16.763 58.9835 16.763 58.2656 16.763 57.5476C17.0702 57.8384 17.3449 58.1758 17.699 58.5635C17.7569 58.6281 17.8183 58.6892 17.8798 58.7502C17.8798 59.6907 17.8798 60.6313 17.9051 61.5718C17.7171 61.4462 17.5436 61.3241 17.3412 61.2128C17.1388 61.1016 16.9328 60.9651 16.7196 60.8539H16.7377ZM18.1834 61.7477C18.1834 61.5862 18.1834 61.4211 18.1834 61.2559C18.1834 60.5128 18.205 59.7733 18.2087 59.0338C18.6908 59.4326 19.2369 59.7481 19.8242 59.9672C19.8784 60.5858 19.8784 61.208 19.8242 61.8267C19.821 62.2045 19.8415 62.5822 19.8857 62.9575L19.7303 62.8462C19.2098 62.5016 18.6894 62.1211 18.1617 61.7621L18.1834 61.7477ZM20.1603 63.1298C20.132 62.8915 20.1163 62.6518 20.1134 62.4119C20.1796 61.6359 20.1953 60.8564 20.1603 60.0784L20.2652 60.1143C20.3107 60.4956 20.3349 60.8791 20.3375 61.2631C20.3375 61.9236 20.1676 62.5662 20.435 63.1945L20.3013 63.2232L20.1603 63.1298ZM20.6953 63.1478C20.2507 63.015 20.5941 61.1123 20.5651 60.7426C20.5651 60.5523 20.5326 60.3656 20.5109 60.179C21.1472 60.3406 21.8024 60.4166 22.459 60.4051C22.5277 60.879 22.5963 61.3528 22.6469 61.8411C22.6903 62.218 22.7192 62.5949 22.7554 62.9719C22.2579 62.9583 21.7601 62.9823 21.2663 63.0437C21.0669 63.0669 20.8689 63.1016 20.6736 63.1478H20.6953ZM24.8444 61.999C24.7541 62.358 24.548 62.717 24.4504 63.076C23.9445 63.015 23.4385 62.9683 22.9325 62.9467C22.9108 62.5196 22.9036 62.0888 22.8674 61.658C22.8313 61.2272 22.7807 60.8072 22.7228 60.3836C23.1864 60.3632 23.6485 60.3177 24.1071 60.2472C24.1541 59.9743 24.2155 59.7087 24.2806 59.4394C23.7237 59.5166 23.1622 59.5562 22.6 59.5579C22.5421 59.1738 22.4843 58.7897 22.4337 58.4056C22.3433 57.7558 22.2855 57.0917 22.2349 56.4275C22.943 56.4964 23.6569 56.4771 24.3601 56.3701C24.4787 57.5423 24.6682 58.7063 24.9275 59.8559C24.9311 59.8772 24.9429 59.8963 24.9605 59.909C24.9781 59.9218 25 59.9272 25.0215 59.9241C24.9962 59.9815 24.9745 60.0425 24.9492 60.0964L25.1299 60.0641C25.007 60.7103 24.9745 61.4031 24.8227 61.999H24.8444ZM29.3188 51.8074C29.1779 51.1073 28.2779 51.1468 27.9274 51.6279C27.3381 52.4492 26.8594 53.3435 26.5033 54.288C26.3805 54.9521 26.225 55.6126 26.0732 56.2516C25.8346 57.4296 25.5134 58.5896 25.1119 59.723C24.9528 58.5994 24.7324 57.483 24.5697 56.3557C24.7757 56.327 24.9781 56.2911 25.1841 56.2516C25.242 56.0183 25.2962 55.7849 25.3504 55.5337C25.0576 55.5839 24.7649 55.6306 24.4721 55.6629C24.3494 54.6858 24.084 53.7316 23.6842 52.8305C23.6192 52.6905 23.4096 52.8125 23.4746 52.9525C23.8606 53.823 24.1234 54.7424 24.2553 55.6844C23.5634 55.7598 22.8653 55.7598 22.1735 55.6844C22.106 54.33 21.8915 52.9868 21.5338 51.6781C21.4868 51.5238 21.241 51.5884 21.288 51.7427C21.6302 53.0228 21.8314 54.3361 21.888 55.6593L21.7036 55.6306C21.1138 55.527 20.5567 55.2872 20.0772 54.9306C20.0772 54.0044 19.8423 53.1356 19.7953 52.2022C19.7953 52.0874 19.6074 52.0874 19.6146 52.2022C19.6471 53.0638 19.8098 53.8967 19.8459 54.7511C19.3886 54.3622 18.9688 53.932 18.5918 53.4659C18.4048 53.2474 18.1966 53.0478 17.9701 52.87C17.9484 52.59 17.9304 52.3135 17.9087 52.0371C17.8472 51.215 17.7605 50.3247 17.1605 49.7037C17.0232 49.5637 16.7991 49.7755 16.9473 49.9155C17.587 50.5832 17.6232 51.6781 17.6448 52.633C17.3211 52.4209 16.9843 52.229 16.6365 52.0587C16.5554 51.6244 16.5011 51.1856 16.4738 50.7448C16.4521 49.955 16.5353 49.1975 16.304 48.4867C16.5553 48.5558 16.8026 48.6385 17.0449 48.7344C17.5689 48.9426 18.1472 49.0647 18.6641 49.2801C19.3869 49.5924 19.6977 50.016 20.2254 50.6012C20.7524 51.1661 21.4267 51.5749 22.1735 51.7822C23.5107 52.1807 24.8263 51.9725 26.1491 51.6925C26.1708 51.6027 26.1925 51.5094 26.2178 51.4197C26.235 51.3634 26.2717 51.3151 26.3215 51.2833C26.3713 51.2515 26.4308 51.2383 26.4894 51.246C26.5481 51.2538 26.602 51.282 26.6417 51.3257C26.6813 51.3693 26.704 51.4255 26.7057 51.4843C26.7057 51.513 26.7057 51.5417 26.7057 51.5704C27.6189 51.3368 28.5539 51.1973 29.4959 51.154C30.5152 51.154 31.7259 51.2653 32.7054 50.9207C33.6848 50.576 34.6498 49.797 35.5534 49.2657C36.457 48.7344 37.3063 47.9985 38.2496 47.4241C39.1929 46.8497 40.2338 46.3005 40.9856 45.4138C41.6904 44.5845 42.041 43.583 42.5686 42.6496C42.8486 42.1637 43.1613 41.6971 43.5047 41.2531C44.3758 41.7701 45.254 42.2834 46.1359 42.786C45.7335 43.2982 45.3552 43.8223 45.001 44.3584C44.9504 44.0209 44.9071 43.6871 44.8745 43.3496C44.8745 43.2096 44.6432 43.206 44.6577 43.3496C44.6902 43.784 44.7516 44.2148 44.8167 44.6456C44.5709 45.0297 44.336 45.4174 44.1228 45.8087C43.8576 46.3103 43.553 46.7905 43.212 47.2446C43.0989 46.7095 42.9306 46.1874 42.7096 45.6866C42.6409 45.5323 42.4169 45.6651 42.4855 45.8195C42.7176 46.3621 42.8908 46.9277 43.0024 47.5067C42.5053 48.1128 41.9164 48.6384 41.2567 49.0647C40.0857 49.815 38.7592 50.2888 37.6641 51.1612C36.7968 51.8048 35.8969 52.4039 34.9679 52.9561C34.8872 52.6367 34.8245 52.3132 34.78 51.9869C34.7583 51.8181 34.4908 51.8145 34.5125 51.9869C34.5635 52.3633 34.6383 52.7362 34.7366 53.1033L34.5848 53.2002C34.1007 53.5792 33.5885 53.9213 33.0523 54.2234C32.2681 54.5823 31.0934 54.7152 30.2152 54.7798L29.9188 54.7977C29.7019 53.8105 29.5032 52.8161 29.2971 51.8074H29.3188ZM30.9055 58.4486C30.5874 57.465 30.3272 56.4814 30.0995 55.4942C30.9786 55.5384 31.8598 55.5107 32.7343 55.4116C32.9258 56.2803 33.0957 57.1491 33.2909 58.0179C32.5076 58.2518 31.7 58.3963 30.8838 58.4486H30.9055ZM31.903 63.0509C31.7723 62.6921 31.6708 62.3236 31.5994 61.9488C31.4512 61.0585 31.3609 60.1718 31.1476 59.2994C31.9468 59.3333 32.7474 59.2851 33.5367 59.1558C33.6632 59.7374 33.7933 60.3154 33.9306 60.8933C34.0173 61.2523 34.0896 61.6113 34.1655 61.9703C33.8908 62.0995 33.6234 62.236 33.3559 62.3831C32.883 62.6442 32.3899 62.8674 31.8813 63.0509H31.903ZM36.7461 60.9328C36.5907 60.0174 36.3305 59.1163 36.1534 58.2045C36.1534 58.1327 36.1281 58.0609 36.1136 57.9855C36.7533 57.5799 37.3786 57.1419 37.9822 56.7865C38.1051 56.7147 38.2171 56.6357 38.3436 56.5604C38.611 57.7199 38.8713 58.8794 39.1713 60.0282C38.3436 60.3585 37.534 60.6421 36.7244 60.9328H36.7461ZM39.4532 59.9097H39.4134C39.2363 59.3389 39.052 58.7681 38.9219 58.2189C38.7918 57.6696 38.6617 57.0199 38.5315 56.424C39.5255 55.7706 40.4362 55.0311 41.4555 54.3993C41.4988 54.7582 41.5386 55.1172 41.5711 55.4762C41.6651 56.5245 41.6434 57.5978 41.7048 58.6569C40.9169 59.041 40.1977 59.5759 39.4315 59.9097H39.4532ZM44.0216 56.8547C43.758 57.4678 43.2929 57.974 42.7024 58.2907C42.4796 58.3405 42.2619 58.4102 42.0518 58.4989C42.0308 57.3744 41.9524 56.2518 41.8169 55.1352C41.788 54.8336 41.7518 54.5321 41.7157 54.2305C42.4908 53.791 43.2424 53.3117 43.9674 52.7946C44.0216 53.0351 44.0722 53.2792 44.1119 53.5126C44.2109 54.4665 44.2459 55.4259 44.2167 56.3845C44.1396 56.54 44.0674 56.6968 43.9999 56.8547H44.0216ZM44.4481 55.8388C44.5131 55.1582 44.5131 54.4731 44.4481 53.7926C44.3959 53.3929 44.3223 52.9962 44.2276 52.6043C44.5706 52.3272 44.8886 52.0209 45.1781 51.6889C45.2721 51.574 45.3624 51.4591 45.4492 51.3299C45.4998 52.1879 45.5576 53.0459 45.6444 53.9003C45.5251 54.0367 45.4058 54.1695 45.2829 54.3131C44.9332 54.7834 44.6454 55.2961 44.4264 55.8388H44.4481ZM45.9118 53.5987C45.8793 53.3761 45.854 53.1572 45.8395 52.9418C45.807 52.2848 45.7528 51.6279 45.6986 50.9745C46.3058 50.0411 46.7178 49.0073 47.2708 48.0272C47.3611 47.8657 47.4587 47.7077 47.5563 47.5462C47.5924 47.9052 47.625 48.2642 47.6611 48.6231C47.7485 49.6558 47.7799 50.6924 47.7551 51.7284C47.7551 51.7679 47.7551 51.8074 47.7551 51.8469L47.578 52.0012C46.9889 52.5038 46.4142 53.0315 45.8901 53.5987H45.9118ZM48.037 51.5489C48.0486 50.3051 47.9822 49.0618 47.8382 47.8262C47.8129 47.6108 47.8057 47.399 47.7876 47.1836C48.298 46.4292 48.8493 45.7029 49.4393 45.0081C49.4682 45.5682 49.4899 46.1318 49.5441 46.6882C49.6345 47.6682 49.6851 48.6339 49.6779 49.6211C49.6779 49.8293 49.6526 50.0376 49.6417 50.2458C49.1368 50.724 48.5928 51.1599 48.0153 51.5489H48.037ZM50.061 49.9119C50.0421 48.659 49.9564 47.408 49.8044 46.1641C49.7574 45.6687 49.7357 45.1769 49.7068 44.6922C49.9598 44.3907 50.2128 44.0963 50.4622 43.8127C50.8236 43.3963 51.185 43.0086 51.5789 42.6424C51.6123 42.9548 51.6255 43.2689 51.6187 43.583C51.5934 44.3404 51.5067 45.0943 51.4452 45.8482C51.3565 46.8088 51.3275 47.7739 51.3585 48.738C50.9248 49.1473 50.4874 49.535 50.0393 49.9155L50.061 49.9119ZM64.4637 36.9022C63.5096 38.9592 61.529 39.2572 59.7652 40.388C59.1999 40.8148 58.6781 41.2958 58.2075 41.8239C57.4763 42.5187 56.6174 43.0672 55.6775 43.4394C55.4529 43.5334 55.2406 43.6539 55.045 43.7983C55.1504 42.955 55.1637 42.1029 55.0848 41.2567C55.083 41.2201 55.0676 41.1855 55.0415 41.1597C55.0155 41.1338 54.9806 41.1185 54.9438 41.1167C54.7964 41.0904 54.6451 41.094 54.4992 41.1273C54.3532 41.1607 54.2155 41.223 54.0945 41.3106C54.0623 41.3296 54.0392 41.3605 54.03 41.3966C54.0209 41.4326 54.0265 41.4707 54.0457 41.5026C54.0648 41.5345 54.096 41.5575 54.1322 41.5666C54.1685 41.5757 54.2069 41.5701 54.239 41.5511C55.0956 41.0234 54.8932 42.6065 54.8824 42.944C54.8715 43.2814 54.8354 43.6619 54.7992 43.9958C53.6571 44.9974 53.0789 46.6954 52.1645 47.8477C52.0127 48.0344 51.8572 48.2067 51.6946 48.3898C51.7199 47.4313 51.6946 46.462 51.7813 45.5179C51.8822 44.4881 51.8931 43.4515 51.8139 42.4198C52.596 41.6992 53.461 41.0726 54.3908 40.5531C55.8165 39.7925 57.1786 38.9197 58.4641 37.9433C60.5314 36.3027 62.6458 33.2764 61.5037 30.5876C60.7447 28.7927 59.776 27.1485 59.1869 25.2818C58.4315 22.8909 59.1255 20.8088 59.4508 18.461C59.4611 18.3905 59.4543 18.3185 59.4311 18.2511C59.4078 18.1837 59.3687 18.1227 59.317 18.0733C59.6391 17.1884 59.8326 16.2625 59.8917 15.3235C59.8917 14.3578 60.1086 13.1121 59.8303 12.1967C59.552 11.2812 58.5544 10.1935 57.9075 9.43246C57.846 9.36425 57.781 9.30322 57.7159 9.23861C57.9472 9.09142 58.1786 8.94065 58.4135 8.80064C58.8472 8.53858 59.4074 8.31242 59.9098 8.02882C60.1483 8.25139 60.3905 8.46678 60.6326 8.68217C61.278 9.25968 61.8706 9.89277 62.4036 10.574C62.7292 10.8894 63.02 11.2384 63.271 11.6151C63.7409 12.5485 63.4047 13.0331 62.9602 13.8516C62.1002 15.4299 61.7364 17.2281 61.9157 19.0138C62.0747 21.0601 62.0783 23.2714 62.5048 25.2818C62.7313 26.2051 63.0348 27.108 63.412 27.9813C63.5818 28.4014 63.824 28.8214 63.9758 29.245C64.1281 29.7658 64.2238 30.3014 64.2613 30.8425C64.5577 32.9138 65.389 34.838 64.442 36.9022H64.4637Z" fill="#3E3E3E"/>
<path d="M32.5828 3.03881C32.5828 2.8306 32.5575 2.61879 32.5503 2.41058C32.5493 2.35349 32.5326 2.29775 32.502 2.24943C32.4714 2.20112 32.428 2.16207 32.3765 2.13653C32.3251 2.111 32.2676 2.09995 32.2104 2.10459C32.1531 2.10924 32.0981 2.1294 32.0516 2.16288C31.8043 1.74047 31.5136 1.34467 31.1841 0.981813C29.9987 -0.289003 29.2975 -0.292597 27.6711 0.349991C27.4697 0.432166 27.2771 0.534403 27.0964 0.655133C27.1326 0.820267 27.1723 0.985403 27.2085 1.15054C27.689 0.859957 28.2197 0.660341 28.7734 0.561798C29.7132 0.457692 30.4866 1.00694 31.0504 1.74286C31.3702 2.20276 31.6473 2.6906 31.8781 3.20035C31.8203 4.39937 31.7335 5.59839 31.6648 6.79023C30.9095 6.76869 30.1469 6.72562 29.7421 6.05431C29.3373 5.383 29.5613 4.68298 28.871 4.16962C28.5461 3.93341 28.1532 3.80752 27.7506 3.81064C27.8446 4.32399 27.9313 4.83375 28.0108 5.3471C28.1251 5.44353 28.226 5.55459 28.3108 5.67737C28.4156 5.95866 28.5061 6.24501 28.5819 6.53535C29.2288 7.89591 30.389 7.41487 31.6287 7.56923C31.6287 7.87078 31.5998 8.17234 31.5889 8.47748C31.5636 9.36059 31.495 10.2904 31.4986 11.213C30.5986 10.2724 30.2264 9.19904 28.7915 8.99083C28.6614 8.99083 28.5457 8.94416 28.4301 8.91903C28.4554 9.27802 28.4771 9.637 28.4951 9.99599C28.6651 9.96895 28.8384 9.96895 29.0084 9.99599C30.136 10.2473 30.7143 11.5755 31.5636 12.3509C31.6106 12.8999 31.7197 13.4418 31.8889 13.9664C31.9108 14.041 31.9565 14.1065 32.019 14.1531C32.0816 14.1997 32.1577 14.2249 32.2359 14.2249C32.3141 14.2249 32.3902 14.1997 32.4527 14.1531C32.5153 14.1065 32.561 14.041 32.5828 13.9664C32.6118 13.8874 32.6298 13.8048 32.6551 13.7223C32.5033 11.9955 32.6804 10.2437 32.7636 8.51696C32.7925 7.94258 32.7961 7.35384 32.8033 6.76151C32.7563 5.94661 32.7021 5.13171 32.6551 4.31681C32.7268 4.38843 32.8028 4.45557 32.8828 4.51784C32.9081 4.18757 32.9407 3.86089 32.9913 3.5378C32.865 3.41579 32.7534 3.27966 32.6588 3.13215C32.6298 3.11779 32.6045 3.0783 32.5828 3.03881Z" fill="#3E3E3E"/>
<path d="M25.1989 35.5559C26.7638 35.3836 27.7108 33.402 28.2565 32.1599C28.8023 30.9178 29.4565 29.6218 30.7504 28.9505C31.6142 28.5018 32.478 28.631 33.3671 28.3654C34.426 28.0531 35.1127 26.6458 35.0043 25.5258C34.8706 24.1544 33.2333 23.4508 32.1129 23.0559C30.5808 22.5824 29.154 21.822 27.9096 20.8159C27.1867 20.2128 26.6916 19.7784 25.7988 19.5199C25.3254 19.3799 24.0929 18.8307 23.493 19.1609C23.0629 19.3871 22.9689 19.9256 22.7882 20.3887C21.6822 21.2143 21.6027 22.0185 21.5883 23.5047C21.601 24.0991 21.518 24.6917 21.3425 25.2601C20.9449 26.4807 19.8064 27.1915 19.3727 28.3187C18.7655 29.8875 20.2763 31.8763 21.1545 33.0286C22.1485 34.3102 23.3159 35.7426 25.1989 35.5559ZM22.1196 25.3463C22.3834 23.7631 21.5124 22.3057 22.3906 21.0384C22.3934 21.0623 22.4019 21.0852 22.4154 21.1052C22.4289 21.1252 22.447 21.1417 22.4683 21.1533C22.4895 21.1648 22.5132 21.1712 22.5374 21.1719C22.5616 21.1725 22.5857 21.1674 22.6075 21.1569C23.1424 20.8733 23.3484 20.281 23.8544 20.044C24.3604 19.8071 25.4085 20.2487 26.0229 20.4856C27.0313 20.8769 27.5626 21.5625 28.43 22.1585C29.0974 22.5743 29.8029 22.9265 30.5371 23.2103C31.513 23.6303 32.9803 23.896 33.6345 24.8006C34.3935 25.856 33.7755 26.9366 32.7201 27.4176C32.3226 27.5971 31.9394 27.5648 31.5599 27.7443C31.0159 28.0455 30.5079 28.4068 30.0456 28.8213C29.4381 29.2889 28.8885 29.8263 28.4083 30.4224C27.9602 31.047 27.9674 31.7865 27.624 32.465C26.7675 34.1594 24.7724 35.5308 23.0448 34.163C22.2099 33.5025 21.5593 32.2604 21.0317 31.327C19.6257 28.8177 21.7437 27.6079 22.1196 25.3283V25.3463Z" fill="#3E3E3E"/>
<path d="M23.2215 31.9661C23.6309 32.2717 24.1407 32.4138 24.6505 32.3647C25.1602 32.3155 25.6329 32.0786 25.9755 31.7005C26.4707 31.1907 26.7634 30.4763 27.1501 29.8876C27.7465 28.9829 28.5019 28.3439 29.203 27.5398C29.9042 26.7357 30.1789 25.8885 29.6548 24.9372C29.1741 24.0684 27.9344 23.3756 27.067 22.9591C26.0948 22.4889 25.1876 22.1981 24.3708 22.8407C24.4214 22.7976 24.3708 22.7114 24.313 22.7509C23.4022 23.3576 22.9359 24.0325 23.1311 25.1418C23.3552 26.4018 23.5142 27.0013 22.9902 28.0998C22.7929 28.4507 22.6515 28.8297 22.5709 29.2235C22.3071 30.3579 22.1806 31.3056 23.2215 31.9661ZM24.06 28.0603C24.5443 26.5526 22.9359 24.3771 24.0961 23.0991C24.0419 23.1709 24.1214 23.2894 24.2045 23.232C25.831 22.155 29.3837 24.5099 29.2645 26.208C29.1958 27.1018 28.2308 27.6798 27.7212 28.308C27.2116 28.9363 26.8755 29.7081 26.402 30.3794C25.4551 31.7112 23.5106 32.2964 23.2757 30.1604C23.1745 29.3276 23.8395 28.7568 24.06 28.0747V28.0603Z" fill="#3E3E3E"/>
<path d="M25.1553 28.7746C25.2468 28.9646 25.4101 29.1111 25.6097 29.1823C25.8093 29.2536 26.0291 29.2438 26.2215 29.1551C27.0274 28.8249 27.3057 27.6976 27.4828 26.9581C27.4856 26.9421 27.4828 26.9256 27.4749 26.9114C27.4671 26.8971 27.4545 26.8859 27.4394 26.8797C27.4243 26.8734 27.4075 26.8724 27.3917 26.8769C27.376 26.8814 27.3622 26.891 27.3527 26.9043C27.0672 27.3064 26.9588 27.7551 26.7166 28.1751C26.5793 28.4084 26.2648 28.9146 25.9432 28.8931C25.2492 28.8572 25.5311 28.2433 25.607 27.9418C25.7249 27.5886 25.7847 27.2189 25.7841 26.8468C25.7621 26.6569 25.7222 26.4694 25.6649 26.2868L25.5564 25.9278C25.519 25.7923 25.5202 25.6491 25.5597 25.5141C25.5993 25.3791 25.6757 25.2577 25.7805 25.1632C25.7907 25.1952 25.8082 25.2245 25.8316 25.2487C25.855 25.273 25.8838 25.2915 25.9155 25.303C25.9473 25.3145 25.9814 25.3185 26.015 25.3148C26.0486 25.3111 26.0809 25.2998 26.1094 25.2817C26.2296 25.1958 26.3676 25.1377 26.5133 25.1117C26.659 25.0856 26.8087 25.0921 26.9515 25.1309C27.4322 25.2135 27.3419 25.8489 27.3419 26.2294C27.3419 26.2484 27.3495 26.2667 27.363 26.2802C27.3766 26.2936 27.395 26.3012 27.4142 26.3012C27.4333 26.3012 27.4517 26.2936 27.4653 26.2802C27.4788 26.2667 27.4864 26.2484 27.4864 26.2294C27.5601 25.9036 27.5539 25.5651 27.4684 25.2422C27.378 25.0376 27.1648 24.9227 26.9985 24.7863C26.7994 24.6056 26.5447 24.4968 26.2757 24.4775C26.165 24.4774 26.0572 24.5121 25.9676 24.5766C25.878 24.6411 25.8112 24.7321 25.7769 24.8365C25.5849 24.9289 25.4221 25.0718 25.3062 25.2496C25.1902 25.4275 25.1255 25.6335 25.1191 25.8453C25.154 26.0803 25.2084 26.312 25.2818 26.5381C25.348 26.9745 25.3134 27.4201 25.1806 27.8412C25.0677 28.1409 25.0588 28.4694 25.1553 28.7746Z" fill="#3E3E3E"/>
</g>
<mask id="path-7-inside-1_610_360" fill="white">
<path fill-rule="evenodd" clip-rule="evenodd" d="M0 0V51H51.3462V24.4494H51.3463V15.0932H48.4617V12.2247H45.5771V9.3562H42.6925V6.48768H39.8079L39.8078 0H36.6346H34.2308H34.0386H0Z"/>
</mask>
<path d="M0 51H-3V54H0V51ZM0 0V-3H-3V0H0ZM51.3462 51V54H54.3462V51H51.3462ZM51.3462 24.4494V21.4494H48.3462V24.4494H51.3462ZM51.3463 24.4494V27.4494H54.3463V24.4494H51.3463ZM51.3463 15.0932H54.3463V12.0932H51.3463V15.0932ZM48.4617 15.0932H45.4617V18.0932H48.4617V15.0932ZM48.4617 12.2247H51.4617V9.22472H48.4617V12.2247ZM45.5771 12.2247H42.5771V15.2247H45.5771V12.2247ZM45.5771 9.3562H48.5771V6.3562H45.5771V9.3562ZM42.6925 9.3562H39.6925V12.3562H42.6925V9.3562ZM42.6925 6.48768H45.6925V3.48768H42.6925V6.48768ZM39.8079 6.48768L36.8079 6.48773L36.8079 9.48768H39.8079V6.48768ZM39.8078 0L42.8078 -4.93912e-05L42.8077 -3H39.8078V0ZM3 51V0H-3V51H3ZM51.3462 48H0V54H51.3462V48ZM48.3462 24.4494V51H54.3462V24.4494H48.3462ZM51.3462 27.4494H51.3463V21.4494H51.3462V27.4494ZM54.3463 24.4494V15.0932H48.3463V24.4494H54.3463ZM51.3463 12.0932H48.4617V18.0932H51.3463V12.0932ZM51.4617 15.0932V12.2247H45.4617V15.0932H51.4617ZM48.4617 9.22472H45.5771V15.2247H48.4617V9.22472ZM48.5771 12.2247V9.3562H42.5771V12.2247H48.5771ZM45.5771 6.3562H42.6925V12.3562H45.5771V6.3562ZM45.6925 9.3562V6.48768H39.6925V9.3562H45.6925ZM42.6925 3.48768H39.8079V9.48768H42.6925V3.48768ZM42.8079 6.48763L42.8078 -4.93912e-05L36.8078 4.93912e-05L36.8079 6.48773L42.8079 6.48763ZM39.8078 -3H36.6346V3H39.8078V-3ZM36.6346 -3H34.2308V3H36.6346V-3ZM34.2308 -3H34.0386V3H34.2308V-3ZM0 3H34.0386V-3H0V3Z" fill="#3E3E3E" mask="url(#path-7-inside-1_610_360)"/>
<rect x="48.4614" y="7.83154" width="2.88461" height="2.86517" fill="#3E3E3E"/>
<rect x="43.4614" y="3.82031" width="2.88462" height="2.86517" fill="#3E3E3E"/>
<rect x="48.4614" width="2.88461" height="2.86517" fill="#3E3E3E"/>
<path fill-rule="evenodd" clip-rule="evenodd" d="M60.054 10.2788V2.9368H62.9925V10.2788H60.054ZM60.054 23.4944V13.2156H64.4618V11.7472H65.9311V1.4684H64.4618V0H57.1155V23.4944H60.054ZM80.9176 23.4944V20.5576H77.979V2.9368H80.9176V0H72.102V2.9368H75.0405V20.5576H72.102V23.4944H80.9176ZM90.0271 23.4944V13.2156H87.0885V23.4944H90.0271ZM95.9041 23.4944V13.2156H94.4349V11.7472H92.9656V10.2788H91.4963V8.81039H90.0271V0H87.0885V10.2788H88.5578V11.7472H90.0271V13.2156H91.4963V14.684H92.9656V23.4944H95.9041ZM95.9041 10.2788V0H92.9656V10.2788H95.9041ZM110.891 23.4944V20.5576H105.014V13.2156H109.421V10.2788H105.014V2.9368H110.891V0H102.075V23.4944H110.891ZM120 23.4944V0H117.062V23.4944H120Z" fill="#3E3E3E"/>
<path fill-rule="evenodd" clip-rule="evenodd" d="M64.8599 51.0001V49.46H66.4088V51.0001H71.0554V49.46H72.6043V26.3596H69.5065V47.92H66.4088V26.3596H63.311V47.92H60.2132V26.3596H57.1155V49.46H58.6644V51.0001H64.8599ZM82.2074 47.92V29.4397H85.3051V47.92H82.2074ZM86.854 51.0001V49.46H88.4029V27.8996H86.854V26.3596H80.6585V27.8996H79.1096V49.46H80.6585V51.0001H86.854ZM98.006 47.92V29.4397H101.104V47.92H98.006ZM102.653 51.0001V49.46H104.202V27.8996H102.653V26.3596H96.4571V27.8996H94.9082V49.46H96.4571V51.0001H102.653ZM113.805 47.92V29.4397H116.902V47.92H113.805ZM118.451 51.0001V49.46H120V27.8996H118.451V26.3596H110.707V51.0001H118.451Z" fill="#3E3E3E"/>
</svg>
