<svg width="121" height="51" viewBox="0 0 121 51" fill="none" xmlns="http://www.w3.org/2000/svg">
<mask id="mask0_712_277" style="mask-type:alpha" maskUnits="userSpaceOnUse" x="1" y="0" width="52" height="51">
<path fill-rule="evenodd" clip-rule="evenodd" d="M1 0V51H52.3462V24.4494H52.3463V15.0932H49.4617V12.2247H46.5771V9.3562H43.6925V6.48768H40.8079L40.8078 0H37.6346H35.2308H35.0386H1Z" fill="#C4C4C4"/>
</mask>
<g mask="url(#mask0_712_277)">
<path d="M68.1346 29.1588C68.1021 27.1126 67.5274 25.0664 67.4118 23.0237C67.3932 21.9411 67.2953 20.8613 67.119 19.7928C66.866 18.5723 66.2625 17.3158 66.3528 16.045C66.4179 15.1547 66.9094 14.3542 67.0757 13.489C67.1947 12.6742 67.0781 11.8425 66.7395 11.091C66.0492 9.29605 64.5349 7.80983 63.0711 6.62158C62.6234 6.25634 62.1997 5.86304 61.8025 5.4441L61.5965 5.67745C61.4264 5.58838 61.232 5.556 61.0419 5.58509C60.8519 5.61418 60.6763 5.70319 60.5411 5.83899C60.3351 6.04003 59.7243 5.93592 59.4315 6.01849C58.9891 6.18613 58.5672 6.4029 58.1738 6.66467C57.1702 7.27665 56.2505 8.01512 55.4378 8.86167C54.5487 9.71606 53.6307 10.5381 52.6838 11.3315C52.3101 11.6294 51.904 11.8847 51.473 12.0926C51.2867 12.1608 51.0943 12.2113 50.8983 12.2433C52.4994 10.2079 54.0572 8.21549 55.0366 5.78155C55.6113 4.3456 56.0233 2.88452 56.6558 1.4737C57.104 0.457767 57.3172 -0.633554 57.7401 -1.63154C57.7859 -1.71545 57.8045 -1.81138 57.7933 -1.90619C57.7822 -2.001 57.7418 -2.09006 57.6777 -2.16119C57.6136 -2.23232 57.5289 -2.28204 57.4353 -2.30354C57.3416 -2.32504 57.2436 -2.31728 57.1546 -2.28131C56.8992 -2.87962 56.6498 -3.47793 56.4064 -4.07625C54.7764 -8.02511 49.149 -8.18307 45.8565 -8.28717C43.0012 -8.37692 40.3737 -8.62462 38.234 -10.7211C36.9329 -11.9955 35.2306 -13.3094 33.2897 -13.1694C30.8284 -12.9971 28.9129 -11.4714 26.7841 -10.4016C25.4757 -9.74107 24.0662 -9.52568 22.7072 -9.01951L22.2338 -8.82924C22.1146 -8.94844 21.9571 -9.02234 21.7887 -9.03808C21.6203 -9.05382 21.4516 -9.01041 21.3121 -8.9154C20.3544 -8.34461 19.205 -8.30871 18.1569 -7.97126C16.9498 -7.58356 15.7173 -7.22816 14.5246 -6.79378C12.7681 -6.14761 11.4091 -4.99884 10.1008 -3.69572C9.39599 -2.97774 8.57556 -2.36747 7.91416 -1.63872C7.15517 -0.80228 6.69977 0.156217 5.74561 0.834703C3.84985 2.15753 1.81517 3.27213 -0.322701 4.15893C-2.32138 4.99896 -4.41402 5.77078 -5.35011 7.87445C-5.71154 8.68576 -6.18861 9.41092 -6.57895 10.2079C-7.12887 11.4413 -7.58317 12.7146 -7.9379 14.0167C-8.29932 15.2229 -8.58485 16.4507 -8.92821 17.6605C-9.24988 18.7877 -9.63298 19.8718 -9.56431 21.0601C-9.50286 22.0832 -9.11615 22.7796 -8.73304 23.6843C-8.18729 24.9659 -8.49088 26.2798 -8.83423 27.5613C-9.88598 31.4923 -11.057 36.5181 -9.09446 40.2982C-8.50895 41.4254 -7.85116 42.5527 -7.78611 43.8522C-7.72828 45.0045 -7.95597 46.1354 -7.76803 47.2841C-7.4066 49.4201 -6.32234 50.9781 -4.54775 52.2058C-2.5816 53.5808 -0.554004 54.8085 1.17722 56.4598C1.84224 57.0953 2.28317 57.8491 3.03131 58.4199C3.9674 59.1379 4.89265 60.0964 5.92271 60.678C7.95753 61.8375 10.0935 62.7278 12.1934 63.7473C13.1512 64.2104 14.1053 64.6699 15.0848 65.1186C16.0643 65.5674 16.8486 66.35 17.8027 66.8813C18.9231 67.5059 20.0002 67.9582 21.2941 67.6387C22.4289 67.3659 23.4626 66.7951 24.6445 66.6264C25.1711 66.5583 25.7045 66.5583 26.2311 66.6264C26.2311 66.5115 26.2637 66.393 26.2781 66.2674C26.4259 66.2519 26.5668 66.1971 26.6858 66.1086C26.8048 66.0201 26.8974 65.9013 26.954 65.7648C27.6476 64.004 28.1999 62.1914 28.6057 60.3441C28.9418 58.962 29.1514 57.5763 29.5201 56.205C29.6452 57.2379 29.8421 58.2611 30.1092 59.2671C30.7489 61.518 29.9827 64.4581 31.8296 66.2746C31.8974 66.3434 31.9754 66.4015 32.0609 66.4469C32.0826 66.5582 32.1007 66.6695 32.1223 66.7807H32.1513C33.5211 66.5294 34.7463 65.8869 35.9679 65.2335C36.0092 65.2866 36.0565 65.3347 36.1089 65.3771C36.1522 65.4166 36.2281 65.3771 36.192 65.3125C36.1607 65.263 36.133 65.2114 36.1089 65.1581C36.9059 64.7089 37.7318 64.312 38.581 63.9699C39.7412 63.5319 41.0784 63.1227 42.1266 62.4478C42.7627 62.0421 43.5903 60.6959 44.3457 60.6349C44.5344 60.6204 44.7179 60.5666 44.8842 60.4769L45.1734 60.4051C47.2443 59.8164 47.7575 57.8348 49.2177 56.5568C50.7465 55.2213 52.6079 54.2521 54.1439 52.8987C55.7772 51.3971 57.0262 49.5302 57.7871 47.4529C57.928 47.0939 58.0328 46.48 58.2822 46.1605C58.228 46.279 59.0051 45.7728 59.0051 45.78C59.605 45.3312 59.9412 44.6851 60.5339 44.2076C61.2567 43.6153 61.8025 42.9009 62.6229 42.4306C63.6891 41.8203 64.7915 41.3931 65.836 40.6931C67.3901 39.6341 68.3154 37.7602 68.6045 35.9329C68.7347 34.9969 68.7201 34.0466 68.5611 33.1149C68.3336 31.8067 68.1912 30.4852 68.1346 29.1588ZM57.3714 10.1038C57.7544 10.448 58.1085 10.8226 58.4304 11.2238C59.3701 12.4228 59.6882 13.8839 59.8436 15.3916C59.9628 16.5727 59.1858 18.3174 59.2291 19.6744C58.745 21.4308 58.6867 23.2761 59.0593 25.0592C58.6979 26.1362 58.7521 27.4752 58.5099 28.5414C58.4557 28.7711 58.3906 29.0009 58.322 29.2306C58.0292 28.6024 57.722 27.9813 57.4365 27.3531C57.657 26.4628 57.8955 25.5761 58.1846 24.7182C58.2425 24.5494 57.9714 24.474 57.9172 24.6428C57.6606 25.4074 57.4546 26.1864 57.263 26.969C57.0253 26.4438 56.8178 25.9057 56.6414 25.3572C55.9691 23.2391 56.5871 21.4083 56.8763 19.3046C56.8848 19.2425 56.8785 19.1792 56.8578 19.1199C56.837 19.0607 56.8025 19.0071 56.757 18.9636C57.0429 18.1793 57.2146 17.3585 57.2666 16.5261C57.2666 15.6681 57.4582 14.566 57.2124 13.7547C56.9666 12.9434 56.1679 12.071 55.5932 11.4069C56.1823 10.9546 56.7715 10.5202 57.3714 10.1038ZM52.6729 41.1382C52.644 40.9444 52.344 41.027 52.3729 41.2208C52.3946 41.3501 52.4127 41.4793 52.4344 41.6085C52.3621 41.6767 52.2862 41.7413 52.2175 41.8131C51.6718 42.366 51.1333 42.9511 50.602 43.5578C50.5172 42.6169 50.2274 41.7055 49.7526 40.887C50.5386 40.0978 51.4315 39.4211 52.4055 38.8766C53.6703 38.2029 54.8789 37.4298 56.0197 36.5647C57.8521 35.1108 59.7279 32.4292 58.7159 30.0455C58.6509 29.8912 58.5822 29.7404 58.5135 29.5896C58.5714 29.4065 58.6256 29.2306 58.6762 29.0368C58.8699 28.2884 59.0136 27.528 59.1063 26.7608C59.1569 26.4018 59.1822 26.0428 59.2364 25.6838C59.3267 25.9926 59.4315 26.3085 59.5544 26.628C60.064 27.9634 60.6785 29.245 61.1989 30.5768C61.9796 32.5549 60.6134 34.2924 59.6484 35.9293C58.1702 38.4423 54.9174 39.4725 52.7127 41.3859L52.6729 41.1382ZM46.5685 49.395C46.507 48.4903 46.46 47.6 46.3588 46.6774C46.3119 46.2431 46.2432 45.8087 46.1709 45.3779C46.6482 44.5887 47.1847 43.8363 47.7756 43.127C47.8868 43.1575 48.0042 43.1575 48.1154 43.127C48.2973 43.916 48.3894 44.7228 48.39 45.5323C48.39 45.8015 48.4298 46.0671 48.4479 46.3328C47.993 46.9857 47.5743 47.6628 47.1937 48.3611C46.9841 48.7057 46.7745 49.0539 46.554 49.3842L46.5685 49.395ZM38.675 53.9074C38.7798 54.288 38.8738 54.6721 38.9677 55.0598C38.2449 55.5301 37.522 55.9573 36.7992 56.4168C36.7233 56.0075 36.6474 55.5983 36.5606 55.189C36.492 54.8767 36.4088 54.568 36.3257 54.2628C36.8425 53.9254 37.3485 53.5772 37.8401 53.2864C38.9533 52.633 39.893 51.8002 40.9989 51.1325L41.7868 50.6335C41.9603 51.4017 42.1085 52.1699 42.2314 52.9454C41.4039 53.3463 40.6182 53.8273 39.8857 54.3813C39.6472 54.5716 39.405 54.7403 39.1629 54.9162C39.0761 54.5572 38.9858 54.1982 38.8882 53.8392C38.8767 53.8138 38.8565 53.7933 38.8313 53.7812C38.806 53.7691 38.7773 53.7662 38.7501 53.773C38.7229 53.7799 38.699 53.7961 38.6826 53.8187C38.6663 53.8413 38.6584 53.8689 38.6605 53.8967L38.675 53.9074ZM36.8678 58.1471C37.0341 58.9656 37.2293 59.7697 37.4136 60.5846C37.4461 60.7318 37.4678 60.8826 37.4967 61.0298C36.7739 61.2882 36.0727 61.5575 35.3788 61.8734C35.2812 61.3744 35.1728 60.8754 35.0463 60.38C34.9378 59.96 34.8402 59.54 34.7463 59.1199C34.9017 59.0805 35.0571 59.041 35.2089 58.9871C35.7855 58.7613 36.3366 58.4762 36.8534 58.1363L36.8678 58.1471ZM36.4305 56.6681C35.8342 57.0665 35.3462 57.5583 34.7029 57.8635C34.6379 57.8958 34.5692 57.9209 34.4969 57.9496C34.3234 57.0917 34.1355 56.2337 33.9728 55.3757C34.1564 55.3376 34.3374 55.2885 34.515 55.2285C35.075 55.0134 35.6095 54.7377 36.1089 54.4064L36.1305 54.4818C36.3113 55.1711 36.445 55.8711 36.5715 56.5747L36.4305 56.6681ZM42.0615 50.4971C42.8721 50.0411 43.6042 49.4593 44.2301 48.7739C44.3313 49.5422 44.4144 50.314 44.5698 51.0678C44.5987 51.215 44.6312 51.3586 44.6638 51.5058C44.4401 51.6863 44.2073 51.8552 43.9662 52.012C43.5 52.3135 43.0121 52.572 42.5205 52.8269C42.3723 52.0335 42.2241 51.2581 42.0471 50.4863L42.0615 50.4971ZM44.8336 50.9925C44.6601 50.1632 44.5734 49.3196 44.4505 48.4795C45.0902 47.618 45.4806 46.6379 45.9902 45.6974C46.0372 46.0205 46.0842 46.3472 46.1203 46.6738C46.2287 47.6862 46.2649 48.7093 46.3335 49.7252C45.9156 50.3051 45.4303 50.834 44.8878 51.3012C44.8662 51.1899 44.8409 51.0858 44.8192 50.9925H44.8336ZM48.5491 44.2866C48.5055 43.8571 48.4257 43.432 48.3105 43.0158C48.3714 42.9723 48.4193 42.9134 48.4492 42.8451C48.4791 42.7769 48.4899 42.7019 48.4804 42.6281C48.4804 42.5275 48.4515 42.4342 48.4334 42.3445L48.6792 42.0608C45.0649 40.1259 41.0459 38.471 37.7642 36.0693C37.7389 36.1232 37.7136 36.1806 37.6919 36.2345L37.4895 36.1699C37.222 36.0909 36.9582 36.2058 36.7052 36.0191C36.5534 35.9078 36.3438 36.1591 36.5028 36.2847C36.8075 36.5328 37.1328 36.755 37.475 36.9489C37.269 37.8499 37.222 38.7976 36.7919 39.6341C36.6618 39.889 36.4739 40.2264 36.3293 40.4669C35.5486 41.7521 35.3029 41.587 34.0777 41.9567C33.6959 42.0318 33.3392 42.2009 33.0404 42.4486C32.1874 43.1414 31.8224 43.626 30.7128 44.0532C29.2237 44.6276 28.2153 45.6471 26.5492 45.0333C25.8589 44.7784 25.0493 44.6133 24.3806 44.3153C23.4554 43.8809 22.8374 43.0373 21.9772 42.4773C21.994 42.025 22.0193 41.5762 22.0531 41.1311C22.5407 41.3831 23.047 41.5979 23.5674 41.7737C24.1132 41.9711 24.6517 42.0716 25.2228 42.2332C25.7938 42.3947 26.4263 42.9152 27.0299 42.9727C27.2904 42.9792 27.5497 42.9341 27.7925 42.8399C28.5147 42.6982 29.2224 42.4916 29.9068 42.2224C30.6803 41.8634 30.9333 41.2101 31.4971 40.607C32.1513 39.889 33.1416 39.6126 33.5644 38.6864C34.0307 37.6704 33.5644 36.1986 34.5005 35.3873C34.974 34.9816 35.6715 34.8165 36.1595 34.3821C36.998 33.6354 37.3738 32.9677 38.4256 32.4077C39.4585 31.8621 40.3948 31.1527 41.1977 30.3076C42.076 29.4388 42.282 28.8429 42.4121 27.6367C42.5024 26.7716 42.9289 26.1003 43.059 25.2638C43.1144 24.8567 43.1458 24.4468 43.153 24.0361C43.5831 23.3612 43.4747 22.6181 43.3229 21.8103C43.1096 20.6903 43.153 19.1933 42.3253 18.2923C42.0884 18.0503 41.7992 17.865 41.4796 17.7502C41.0676 17.5815 40.7062 17.4199 40.3556 17.2476C40.3556 16.2173 40.3556 15.1834 40.3737 14.1531C40.3737 14.1531 40.3737 14.1531 40.3737 14.1316C40.6174 14.0239 40.8851 13.9806 41.1507 14.006C41.2081 14.0186 41.2648 14.0342 41.3206 14.0526C41.2447 14.3183 41.1724 14.5839 41.1001 14.846C41.0934 14.8703 41.0967 14.8962 41.1092 14.9181C41.1218 14.94 41.1425 14.956 41.167 14.9627C41.1914 14.9693 41.2175 14.9661 41.2396 14.9536C41.2616 14.9412 41.2777 14.9205 41.2844 14.8963C41.3676 14.6414 41.4435 14.3901 41.5158 14.1388C42.1916 14.4978 42.7844 15.3522 43.247 15.8476C43.9698 16.5979 44.7686 17.1651 44.83 18.2887C44.8915 19.4123 44.83 20.4031 44.989 21.5196C44.8589 23.7848 45.6685 26.3551 44.5264 28.3224C43.9518 29.3096 43.6626 30.3327 43.2181 31.3379C42.8169 32.2533 41.2628 33.1328 40.4496 33.6246C39.5424 34.1631 38.5593 34.7626 37.981 35.6745L38.7798 36.0514C39.658 34.777 41.4905 33.858 42.6723 32.9497C43.0699 32.6446 43.6265 32.562 43.9698 32.1923C44.4252 31.6897 44.6565 30.7563 45.0071 30.1353C45.3577 29.5142 45.8745 28.8465 46.0408 28.1393C46.1077 27.8606 46.1199 27.5718 46.0769 27.2885C46.7998 25.9567 47.7467 24.5638 47.8443 23.0237C47.8443 22.8371 47.5624 22.8371 47.5515 23.0237C47.4684 24.3735 46.6805 25.6479 45.9974 26.8434C45.9649 26.6818 45.9287 26.5131 45.8998 26.3264C45.6145 24.4614 45.5562 22.5691 45.7263 20.6903C45.7272 20.6454 45.7179 20.6008 45.6992 20.5599C45.6804 20.519 45.6527 20.4828 45.6181 20.4539C45.5834 20.425 45.5427 20.4041 45.4989 20.3929C45.4551 20.3816 45.4093 20.3802 45.3649 20.3888C45.3649 20.1734 45.336 19.958 45.3396 19.7318C45.3396 19.0138 45.6541 18.2707 45.5926 17.542C45.5131 16.6014 44.7577 15.5891 44.006 14.7778L44.1144 14.4475C44.3173 13.8303 44.4625 13.1958 44.5481 12.5521C44.8698 12.9936 45.1698 13.4424 45.4842 13.8839C45.486 13.8994 45.486 13.9151 45.4842 13.9306C45.4868 13.9443 45.4947 13.9564 45.5062 13.9644C45.5176 13.9725 45.5318 13.9758 45.5456 13.9737C45.9641 14.5813 46.449 15.1411 46.9913 15.6429C48.4081 16.8994 48.8852 17.7251 48.8671 19.7103C48.8671 19.879 48.8671 20.0693 48.8346 20.2703C48.4113 21.7961 48.1377 23.359 48.0178 24.9371C47.9433 25.6543 47.9591 26.3778 48.0648 27.0911C48.1768 27.7121 48.4262 28.2362 48.5563 28.8142C48.3113 29.2282 48.011 29.6074 47.6636 29.9414C47.613 29.9881 47.6853 30.0563 47.7395 30.0168C48.0734 29.7424 48.3634 29.4192 48.5997 29.0583C48.6295 29.2652 48.6356 29.4747 48.6177 29.683C48.4334 31.7507 47.107 33.2728 45.5348 34.5831L46.1095 35.1324C46.8464 34.5787 47.541 33.9716 48.1876 33.3159C48.7587 32.6554 48.9466 31.9015 49.2177 31.0794C49.5791 29.9558 49.3803 29.0619 49.149 28.1106C49.3297 27.7516 49.5105 27.4142 49.6876 27.0803C50.3634 25.8597 50.9562 24.5997 51.5706 23.3468C51.5306 24.4224 51.7114 25.4948 52.1019 26.4987C52.1669 26.671 52.2392 26.8398 52.3079 27.0085C52.1452 27.328 51.979 27.6475 51.791 27.9526C51.6031 28.2578 51.3754 28.5916 51.1766 28.9183C51.1369 28.9829 50.4068 30.1496 50.3923 29.4999C50.3923 29.4568 50.32 29.4424 50.3128 29.4999C50.2621 29.6587 50.2621 29.8292 50.3128 29.9881C50.3161 29.9994 50.3217 30.01 50.3291 30.0191C50.3365 30.0283 50.3457 30.036 50.3561 30.0416C50.3665 30.0473 50.3779 30.0509 50.3897 30.0522C50.4015 30.0535 50.4135 30.0524 50.4249 30.0491C50.92 29.8553 51.0971 29.4783 51.3754 29.0439C51.7368 28.466 52.0983 27.906 52.4272 27.3136C52.6801 27.9203 52.9476 28.5198 53.2006 29.1301C53.0741 29.4209 52.944 29.7153 52.7922 30.0024C52.4794 30.5091 52.2775 31.0754 52.1995 31.6646C52.1995 31.7579 52.326 31.7651 52.3549 31.6861C52.6223 30.925 53.0235 30.2502 53.3596 29.5322C53.9126 31.0112 52.8934 32.3107 52.1742 33.5349C51.2561 35.1037 49.4309 35.9042 47.884 36.9453L48.3286 37.4263C48.531 37.2935 48.7442 37.1607 48.9683 37.035C50.0455 36.4603 51.0741 35.8 52.044 35.0606C53.2801 34.0806 54.5343 32.4436 54.574 30.7958C54.78 30.2825 54.8957 29.6937 55.0005 29.3599C55.3619 28.2506 55.6041 27.1162 55.8643 25.9854C55.9257 26.1864 55.9944 26.391 56.0739 26.5992C56.3305 27.2705 56.6161 27.9239 56.898 28.5773C56.8112 28.9363 56.7209 29.3132 56.6269 29.6758C56.4493 30.3628 56.3177 31.0608 56.2329 31.7651C56.1824 32.0944 56.0952 32.4171 55.9727 32.7272C55.9727 32.7631 55.4089 34.1021 55.4487 33.3446C55.446 33.3357 55.4405 33.3279 55.433 33.3224C55.4255 33.3169 55.4164 33.3139 55.4071 33.3139C55.3978 33.3139 55.3887 33.3169 55.3812 33.3224C55.3737 33.3279 55.3682 33.3357 55.3655 33.3446C55.3041 33.6139 55.3005 33.5169 55.3655 33.7826C55.3688 33.795 55.3749 33.8065 55.3833 33.8161C55.3918 33.8258 55.4024 33.8333 55.4143 33.8382C55.4263 33.8431 55.4392 33.8451 55.452 33.8442C55.4649 33.8433 55.4773 33.8394 55.4884 33.8329C56.5438 33.2298 56.4679 31.5174 56.7028 30.5302C56.8257 30.0168 56.945 29.4999 57.0642 28.9793C57.2233 29.3383 57.3823 29.7224 57.5305 30.0994C57.6787 30.48 57.7464 30.887 57.7292 31.2948C57.6136 31.7651 57.4979 32.2318 57.3678 32.6985C57.0046 33.4388 56.5992 34.1579 56.1534 34.8524C54.874 37.035 52.0946 37.9504 50.1429 39.5695C50.2478 39.6951 50.3526 39.8208 50.4538 39.95C50.4773 39.9811 50.4887 40.0196 50.4859 40.0584C50.4831 40.0972 50.4664 40.1337 50.4387 40.1612C50.411 40.1887 50.3742 40.2053 50.3352 40.2081C50.2961 40.2108 50.2574 40.1995 50.2261 40.1762C50.0924 40.0685 49.9659 39.95 49.8357 39.8387C49.749 39.9213 49.6586 40.0003 49.5719 40.0864C49.1779 40.4885 48.7876 40.9121 48.4009 41.3465L48.9828 41.7629C49.1707 41.5547 49.3442 41.3572 49.5466 41.1634C50.0059 42.0171 50.2769 42.9582 50.3417 43.924C49.7598 44.6025 49.2032 45.3097 48.6828 46.0348C48.6539 45.3958 48.6105 44.8322 48.5346 44.2758L48.5491 44.2866ZM17.21 51.4771C17.21 51.6027 17.2353 51.7248 17.2461 51.8361L17.0979 51.7607C16.6719 51.5539 16.2295 51.3821 15.7751 51.2473C15.6631 50.095 15.4715 48.9426 15.3378 47.7867C15.8518 48.0344 16.391 48.227 16.9461 48.3611C17.3509 49.3304 17.0871 50.4468 17.21 51.4771ZM18.7713 53.6669C18.8509 54.9485 19.0135 56.2301 19.0135 57.5153V57.5332C18.6521 57.3537 18.6087 57.1742 18.4497 56.984C18.246 56.7643 18.0249 56.5614 17.7883 56.3773C17.7883 55.8998 17.7666 55.4224 17.7883 54.9413C17.7883 54.3634 17.8099 53.7818 17.7883 53.2002C17.8786 53.2361 18.0087 53.2649 18.0955 53.3043C18.3344 53.4006 18.5622 53.5222 18.7749 53.6669H18.7713ZM22.147 56.2301C22.4092 56.3058 22.676 56.3645 22.9458 56.406C23 57.0952 23.0542 57.7845 23.1446 58.4594C23.1952 58.828 23.2494 59.1977 23.3072 59.5687C22.8284 59.5559 22.3512 59.5079 21.8796 59.4251C21.7093 59.3967 21.5414 59.3559 21.3772 59.303C21.323 58.944 21.2652 58.5492 21.211 58.1722C21.1025 57.3788 21.0566 56.5782 21.0736 55.7778C21.4159 55.9652 21.7768 56.1168 22.1507 56.2301H22.147ZM20.9435 58.0825C20.9977 58.4415 21.0591 58.8327 21.117 59.2133L20.9688 59.1558C20.8568 58.6676 20.7194 58.1866 20.6074 57.7199C20.6013 57.6969 20.589 57.6761 20.5718 57.6596C20.5546 57.6431 20.5331 57.6317 20.5098 57.6266L20.2568 57.5763C20.0869 57.5404 20.0146 57.7989 20.1845 57.8348C20.4267 57.8814 20.5857 58.5133 20.6833 59.0338C20.124 58.737 19.6174 58.3514 19.1834 57.8922C19.1834 57.4255 19.1834 56.9588 19.1834 56.4922C19.1581 55.6521 19.1147 54.8085 19.0605 53.9792C19.3315 54.2341 19.5737 54.5285 19.8809 54.8695C20.1585 55.1733 20.4758 55.4389 20.8242 55.6593C20.7974 56.469 20.8385 57.2795 20.9471 58.0825H20.9435ZM17.3943 59.8774C17.3943 60.1431 17.3943 60.4123 17.3943 60.6815C16.9461 60.4446 16.4835 60.2256 16.0137 60.0138C16.0285 59.8875 16.037 59.7605 16.039 59.6333C16.039 58.5922 15.8872 57.5619 15.8257 56.5281C16.0932 56.6106 16.3606 56.7004 16.6172 56.8081C16.8935 56.9231 17.1545 57.0714 17.3943 57.2496C17.3907 58.1255 17.3907 59.0015 17.3979 59.8774H17.3943ZM13.8343 54.4352C13.8343 53.9613 13.8632 53.4838 13.8704 52.9992C13.8704 52.6402 13.8704 52.2992 13.8921 51.9474C14.4415 52.1305 15.0161 52.2669 15.5655 52.4428C15.5655 53.3115 15.5294 54.1803 15.5041 55.049C14.9672 54.7977 14.4098 54.5924 13.8379 54.4352H13.8343ZM13.6283 56.966C13.7268 57.6678 13.7751 58.3755 13.7728 59.084C13.2668 58.883 12.7608 58.6784 12.2693 58.4738L12.2007 58.4415C12.1332 57.4052 12.0766 56.3677 12.0308 55.329C12.5223 55.487 13.0319 55.6198 13.5235 55.7634C13.5322 56.1663 13.5684 56.568 13.6319 56.966H13.6283ZM9.69237 57.0917C9.69237 56.5029 9.69237 55.9824 9.66707 55.8065C9.60562 55.1783 9.57671 54.55 9.55503 53.9254C9.85862 54.1623 10.1622 54.4028 10.4875 54.6254C10.8426 54.8553 11.2234 55.0432 11.6224 55.1854C11.6203 56.2141 11.6855 57.2417 11.8175 58.262C11.0983 57.903 10.4188 57.4542 9.69598 57.0953L9.69237 57.0917ZM0.548332 46.4692L0.43991 46.4118L0.364014 46.3543C0.364014 46.1246 0.364014 45.8984 0.364014 45.6687C0.364014 44.2794 0.364014 42.8937 0.364014 41.5044C0.753457 42.4072 1.39733 43.1789 2.21811 43.7266C2.21811 44.5163 2.21811 45.3025 2.21811 46.0887C2.21811 46.5769 2.21811 47.0723 2.21811 47.5713C1.68859 47.1668 1.13191 46.7985 0.55195 46.4692H0.548332ZM2.18198 17.9512C2.31209 18.0589 2.44219 18.1666 2.57953 18.26C2.61568 18.1989 2.64459 18.1343 2.68073 18.0733C3.2048 17.1686 3.83367 16.3178 4.14811 15.3127C4.50954 14.1603 4.50954 12.8787 5.29021 11.8843C5.92632 11.0802 7.3431 10.7823 8.18161 10.1145C9.02011 9.44682 9.79356 8.80064 10.679 8.22626C12.4573 7.07032 13.0608 5.89284 13.8632 3.95431C14.2246 3.06761 14.5427 2.18091 15.1571 1.44139C15.4139 1.13763 15.7162 0.874897 16.0534 0.662391C16.0652 0.686027 16.0855 0.704357 16.1103 0.713684C16.1351 0.723012 16.1626 0.722642 16.1872 0.712649C17.6003 0.184937 19.1111 -0.762794 20.5676 -0.996136C22.1434 -1.25102 24.0301 -0.795101 25.5553 -1.30845C25.6601 -0.166872 25.8191 0.981887 25.9673 2.12347C24.9083 2.48246 23.6939 2.17014 22.5916 2.29937C21.5611 2.42785 20.5642 2.74816 19.6532 3.24351H19.6207C18.0124 3.96149 16.7654 4.32048 16.0064 6.06516C15.4101 7.45803 15.1101 8.65345 13.7078 9.45041C12.87 9.89435 12.0741 10.4122 11.3296 10.9976C9.94898 12.132 8.60086 12.9469 7.86717 14.6198C7.42985 15.625 7.42262 16.6948 6.89856 17.6856C6.55882 18.3246 6.12511 18.9133 5.81428 19.5559L6.34558 19.6744C6.41063 19.5344 6.4793 19.398 6.5552 19.2687C6.52629 19.7175 6.48653 20.1626 6.42509 20.6077C5.60872 20.3988 4.81092 20.1239 4.03969 19.7857C4.3447 18.2849 4.79869 16.8178 5.39503 15.406C5.4637 15.2481 5.22877 15.108 5.15649 15.2696C4.55056 16.6857 4.08572 18.1575 3.76862 19.6636C3.12472 19.3598 2.5312 18.9604 2.00849 18.4789L2.18198 17.9512ZM10.0755 16.7989C10.0755 17.9476 9.71404 18.2923 9.10685 19.2005C8.91375 19.4911 8.74107 19.7946 8.59002 20.1088C8.86831 20.1626 9.14661 20.2236 9.41768 20.2882C9.56654 19.9162 9.74417 19.5561 9.94898 19.2113C10.4875 18.2887 10.8417 16.6804 11.5501 15.9409C12.3705 15.0901 13.7186 14.6845 14.633 13.9198C15.0414 13.5608 15.2438 13.0187 15.5655 12.6131C15.9269 12.1356 16.4474 11.7695 16.8197 11.2848C16.9499 11.117 17.0706 10.942 17.1811 10.7607C17.5425 10.4017 17.8389 10.0104 18.0702 9.73042C18.475 9.2386 18.952 8.815 19.3532 8.32319C19.487 8.14655 19.6078 7.96059 19.7146 7.76675C19.8664 7.70932 20.0761 7.64111 20.3616 7.54777C22.5916 6.8298 20.8134 7.54777 21.8073 7.40418C22.9566 7.24622 23.9144 6.7939 25.0059 6.39542C25.4725 6.1966 25.9201 5.95629 26.3432 5.67745C26.4118 6.35594 26.4914 7.00929 26.5998 7.65188C26.0982 7.35415 25.5067 7.24224 24.93 7.33597C24.4204 7.45803 24.2325 7.72727 23.8674 8.08625C22.9691 8.96811 21.9297 9.69596 20.7917 10.2402C19.3542 10.8776 18.1294 11.9087 17.2606 13.2126C17.2482 13.2306 17.2402 13.2511 17.237 13.2726C17.2338 13.2942 17.2356 13.3161 17.2422 13.3369C17.2488 13.3576 17.2601 13.3766 17.2751 13.3924C17.2902 13.4082 17.3087 13.4203 17.3292 13.428C15.945 15.1404 14.8969 17.2261 13.2307 18.619C12.4674 19.2456 11.9285 20.1007 11.6947 21.0565L11.8501 21.1319C11.9074 21.1816 11.9475 21.248 11.9646 21.3217C11.9817 21.3954 11.9749 21.4725 11.9453 21.5421C11.9156 21.6118 11.8646 21.6703 11.7995 21.7095C11.7344 21.7486 11.6585 21.7663 11.5826 21.7601C10.2381 21.4011 8.4599 21.1103 6.72507 20.6831C6.80836 20.0497 6.85543 19.4121 6.86603 18.7733C7.25831 18.186 7.57635 17.5531 7.81296 16.8886C8.12017 15.905 8.11294 14.8137 8.78519 13.9665C9.33094 13.2808 10.5381 13.0259 11.2573 12.4587C11.9766 11.8915 12.6307 11.3387 13.3861 10.8469C14.9005 9.86325 15.4137 8.85808 16.0968 7.20315C16.3566 6.43495 16.7292 5.70913 17.2028 5.04922C17.4207 4.78855 17.6794 4.56432 17.969 4.38509C17.9733 4.39539 17.9796 4.40471 17.9877 4.4125C17.9957 4.42029 18.0053 4.42638 18.0157 4.43041C18.0262 4.43443 18.0374 4.43631 18.0486 4.43592C18.0598 4.43554 18.0709 4.4329 18.081 4.42817C19.2846 3.97584 20.5748 3.17171 21.8181 2.97068C23.1482 2.75529 24.7348 3.13582 26.0323 2.7158C26.0974 3.24351 26.1552 3.77122 26.1986 4.29534L26.2311 4.70459C26.1263 4.7728 26.0251 4.8446 25.9348 4.90922C25.0403 5.51465 24.0677 5.99764 23.0434 6.34517C22.0531 6.70415 21.8724 6.38106 20.9652 6.2626C19.7436 6.10823 19.2846 6.76518 18.8834 7.52265C18.8683 7.51129 18.8499 7.50514 18.831 7.50514C18.812 7.50514 18.7936 7.51129 18.7786 7.52265C18.034 8.11139 17.6112 8.87602 17.069 9.64785C16.8666 9.93504 16.6534 10.215 16.4401 10.4915C16.1853 10.7103 15.9723 10.973 15.8113 11.2669C15.4499 11.7084 15.0487 12.1428 14.6403 12.5664C13.4765 13.7762 10.8417 14.0993 10.1586 15.7542C10.0592 16.0932 10.0322 16.449 10.0791 16.7989H10.0755ZM46.4528 6.91954C46.1781 6.80467 45.9071 6.70056 45.6866 6.61441C45.492 6.53906 45.2913 6.48021 45.0866 6.4385C45.1276 5.57693 45.1529 4.71536 45.1625 3.85379C45.3324 3.85379 45.4986 3.85379 45.6721 3.85379H46.6191C46.6191 3.88969 46.6191 3.922 46.6191 3.96149C46.6046 4.95947 46.5649 5.93951 46.4564 6.91954H46.4528ZM45.5348 11.8377C45.2784 11.5463 45.007 11.2683 44.7216 11.0048C44.8625 9.73041 44.9782 8.45601 45.0505 7.17443C45.3076 7.20525 45.56 7.26671 45.8022 7.35751C45.9942 7.4281 46.1824 7.50838 46.3661 7.59803C46.1528 9.00167 45.7444 10.434 45.5529 11.8592L45.5348 11.8377ZM44.8119 6.38465C44.3855 6.31286 43.9445 6.27695 43.5361 6.21234C42.7199 6.1211 41.9184 5.92812 41.1507 5.63796C40.3556 5.31846 39.6689 4.79075 38.8774 4.48561C38.0858 4.18047 37.4317 4.4174 36.6257 4.44612C35.8814 4.48854 35.1404 4.31917 34.4897 3.9579C34.533 4.2738 34.562 4.58971 34.5764 4.9128C35.237 5.13593 35.9281 5.25701 36.6257 5.27179C36.969 5.27179 37.2835 5.16051 37.6232 5.14256C38.4147 5.10307 38.8954 5.55539 39.4556 6.02567C40.5905 6.98058 41.8338 7.10263 43.2325 7.13135C43.7241 7.13135 44.2553 7.13135 44.765 7.15648C44.7107 8.05754 44.6457 8.95142 44.5553 9.85607C44.5228 10.1612 44.4939 10.4699 44.4614 10.7787C43.822 10.2226 43.0757 9.80125 42.2675 9.54015C42.2856 9.18117 42.2964 8.78987 42.2964 8.40216C42.2964 8.36313 42.2808 8.32569 42.253 8.29809C42.2252 8.27048 42.1875 8.25498 42.1483 8.25498C42.1089 8.25498 42.0713 8.27048 42.0435 8.29809C42.0157 8.32569 42.0001 8.36313 42.0001 8.40216C42.0001 8.76115 42.0001 9.12013 42.0001 9.45758C41.5505 9.33564 41.0909 9.25395 40.6267 9.21347C38.8918 9.06988 37.7353 10.391 36.1016 8.85449C35.5667 8.36267 35.1222 7.70214 34.5294 7.26776C34.5077 7.69855 34.486 8.12215 34.4752 8.53499C35.4836 9.46836 36.3076 10.7571 37.6955 10.8648C38.3931 10.9223 38.881 10.4663 39.5026 10.294C40.3257 10.1296 41.179 10.2044 41.9603 10.5094C41.9408 10.956 41.8925 11.4008 41.8157 11.8413C41.7507 12.2003 41.6712 12.5592 41.588 12.8931C41.4709 12.8571 41.3492 12.8378 41.2266 12.8357C40.8652 12.8357 40.5038 13.1946 40.1423 13.3311C38.8304 13.7798 36.8389 13.0295 35.545 12.6131C35.2197 12.5054 34.7969 12.3869 34.374 12.2541C34.374 12.5485 34.3379 12.8393 34.3126 13.1336C35.3752 13.3849 36.4811 13.5572 37.5401 13.9162C38.1039 14.1065 38.6966 14.4116 39.3111 14.408C39.5604 14.3861 39.8045 14.3242 40.0339 14.2249C40.0339 15.1798 40.0339 16.1419 40.0339 17.0968C39.705 16.9281 39.3761 16.7379 39.0147 16.5368C37.663 15.7542 36.1558 16.203 34.6776 16.1778C33.1994 16.1527 32.2163 15.485 31.2947 14.3578C31.0208 13.9438 30.6625 13.5916 30.2429 13.3239C29.6141 12.9936 28.8153 12.9649 28.1431 12.7603C27.2359 12.4874 26.3829 12.071 25.4902 11.7695C24.2824 11.3745 22.9778 11.382 21.7748 11.791C21.0519 12.089 20.4881 12.7495 19.9677 13.4352C18.6268 14.6342 17.9473 17.0538 17.3618 18.461C16.4293 20.6724 14.5788 22.4422 14.4704 24.9228C14.4053 26.4916 15.139 27.9849 14.5788 29.5286C14.1487 30.7097 13.1801 31.6251 12.7464 32.7595C11.9982 34.7483 13.7006 35.0534 15.1752 35.5955C15.8727 35.8539 17.1702 36.1124 17.7051 36.5576C18.1641 36.9525 18.4822 37.5699 18.8689 38.0402L18.9557 38.1443C18.9238 38.6043 18.9153 39.0656 18.9304 39.5264C18.9304 39.5388 18.9353 39.5506 18.9441 39.5594C18.9529 39.5681 18.9649 39.5731 18.9774 39.5731C18.9898 39.5731 19.0018 39.5681 19.0106 39.5594C19.0194 39.5506 19.0243 39.5388 19.0243 39.5264C19.0243 39.1279 19.0713 38.733 19.1111 38.3381C19.7322 39.1518 20.4293 39.9054 21.1929 40.589C21.3947 40.7546 21.6098 40.9035 21.8362 41.0341C21.8181 41.4937 21.8109 41.9496 21.8145 42.4091C21.7061 42.3417 21.5939 42.2805 21.4784 42.226C20.517 41.7808 19.7002 41.2029 18.728 40.8403C17.2172 40.2731 16.8088 38.8156 15.6089 37.8499C14.7415 37.1499 13.762 37.132 12.7175 36.8843C12.3124 36.7925 11.9346 36.6077 11.6144 36.3446C11.2943 36.0814 11.0408 35.7474 10.8742 35.3693C10.9411 34.6028 10.9483 33.8323 10.8959 33.0646C10.8778 32.9138 10.6321 32.9103 10.6537 33.0646C10.7007 33.6392 10.7007 34.2167 10.6537 34.7913C10.0357 32.7559 10.6538 29.823 11.3188 28.3296C11.5907 27.7367 11.8319 27.1304 12.0416 26.5131L11.9296 26.4951C11.9491 26.5251 11.961 26.5593 11.9644 26.5948C11.9678 26.6304 11.9625 26.6662 11.9491 26.6993C11.9356 26.7323 11.9143 26.7617 11.887 26.7849C11.8597 26.8081 11.8272 26.8245 11.7922 26.8326C11.3089 26.8987 10.8172 26.867 10.3465 26.7393C10.3084 26.5071 10.2353 26.282 10.1297 26.0715C10.0646 25.9459 9.87669 26.0715 9.93814 26.1828C10.0145 26.3403 10.0703 26.5068 10.1044 26.6782C9.3061 26.4214 8.52505 26.1145 7.76597 25.7592C7.80573 25.472 7.85272 25.1848 7.90331 24.8976C7.90331 24.8151 7.93222 24.7361 7.94307 24.6535L8.64062 24.8546C8.64062 24.6858 8.64062 24.5171 8.66591 24.3412C8.68768 23.5123 8.76739 22.6858 8.90446 21.8678C9.74885 22.0364 10.5771 22.2766 11.3802 22.5858C11.3007 23.5873 11.3224 24.632 11.1995 25.6695L12.1862 25.9854C12.3026 25.4716 12.362 24.9468 12.3633 24.4202C12.3814 22.4601 12.2946 20.5611 13.7656 19.0354C15.9739 16.7702 17.4485 13.9449 19.5484 11.5972C19.5625 11.5799 19.5702 11.5583 19.5702 11.5361C19.5702 11.5139 19.5625 11.4924 19.5484 11.4751C20.1737 11.1161 20.8676 10.8361 21.5182 10.5238C22.1645 10.2124 22.7712 9.82553 23.3253 9.37143C24.5722 8.3519 25.2336 7.97138 26.6179 9.01244C26.6974 9.06988 26.7697 9.13091 26.8456 9.19194C27.0762 10.0563 27.3872 10.8976 27.7744 11.7048C27.8044 11.7646 27.8505 11.8148 27.9077 11.85C27.9648 11.8851 28.0307 11.9037 28.0979 11.9037C28.1651 11.9037 28.231 11.8851 28.2881 11.85C28.3452 11.8148 28.3914 11.7646 28.4214 11.7048C28.6332 11.1944 28.7555 10.6516 28.7828 10.1002L28.9852 10.075C28.4864 7.86727 28.0997 5.59488 27.8069 3.32608C27.713 2.75529 27.6082 2.2204 27.4744 1.66756L27.5973 1.55986L27.5431 1.02138L27.3515 1.17574C27.3118 1.03215 27.272 0.884962 27.2287 0.734187C26.9937 -0.102254 26.6251 -0.917155 26.3432 -1.75001C26.8781 -2.15207 27.2684 -2.68696 27.8575 -3.04954C28.456 -3.42771 29.1224 -3.68736 29.8201 -3.81419C30.9043 -3.93624 31.826 -3.29365 32.491 -2.42849C33.4452 -1.18281 33.6837 0.583413 35.2667 1.22241C36.0962 1.52469 36.9711 1.6861 37.8545 1.69987C38.2557 1.69987 38.628 1.56704 39.0255 1.54909C39.9544 1.49883 40.5182 2.03013 41.1724 2.57938C42.2892 3.51993 43.4928 3.78558 44.8192 3.85379C44.877 4.68305 44.8553 5.53745 44.8119 6.38465ZM43.1783 13.9234C42.7811 13.524 42.3162 13.1971 41.8049 12.9577C41.9841 12.1756 42.1133 11.3831 42.1916 10.5848C42.8598 10.8265 43.4598 11.2242 43.9409 11.7443C44.0674 11.8915 44.1831 12.0423 44.3023 12.1931C44.259 12.5233 44.212 12.8536 44.1541 13.1803C44.0913 13.6639 43.9996 14.1434 43.8795 14.6162C43.6301 14.3757 43.3915 14.128 43.1783 13.927V13.9234ZM40.1496 19.4015C40.1496 19.4206 40.1572 19.4389 40.1707 19.4523C40.1843 19.4658 40.2027 19.4733 40.2219 19.4733C40.241 19.4733 40.2594 19.4658 40.273 19.4523C40.2865 19.4389 40.2941 19.4206 40.2941 19.4015C40.2941 19.1215 40.3158 18.8415 40.3231 18.5615C40.4255 18.5816 40.5268 18.6067 40.6267 18.6369C42.0398 19.1 42.3976 19.4015 42.6181 20.7908C42.7121 21.4047 42.8711 22.0581 42.9325 22.7078C42.9176 22.7243 42.9065 22.744 42.9 22.7653C42.5783 24.2802 42.0145 25.5797 41.5772 27.0372C41.111 28.5916 40.2544 29.5753 39.0472 30.602C38.5521 31.0184 37.963 31.2015 37.4642 31.6035C37.072 31.9948 36.7297 32.4325 36.445 32.9067C35.751 33.8293 35.021 34.1165 34.121 34.7016C33.811 34.8646 33.5465 35.1014 33.3512 35.3909C32.7765 36.3242 33.2681 37.6238 32.6862 38.5643C32.3862 39.0454 31.6019 39.3433 31.1826 39.7454C30.5863 40.3054 30.4309 41.0916 29.5815 41.429C29.0579 41.5893 28.5226 41.7094 27.9804 41.788C27.8236 41.8507 27.6734 41.9289 27.5323 42.0214C26.9351 42.0031 26.3644 41.7726 25.9239 41.3716C25.4251 41.2316 24.6698 41.228 24.2325 41.0808C23.57 40.8098 22.9589 40.4286 22.4253 39.9536C22.3422 39.8854 22.2627 39.81 22.1832 39.7382C22.1832 39.6197 22.2085 39.5013 22.2229 39.3792C22.2999 38.8516 22.3302 38.3182 22.3133 37.7853C22.2504 37.3017 22.1587 36.8222 22.0386 36.3494C22.0097 36.1878 21.7675 36.256 21.7928 36.4176C21.9337 36.9589 22.0351 37.5095 22.0964 38.0653C22.1007 38.5685 22.0668 39.0713 21.9952 39.5695C21.4133 39.0238 20.8857 38.4099 20.2785 37.8894C19.9395 37.5848 19.6197 37.2599 19.3207 36.9166C19.4255 36.0909 19.5339 35.2616 19.5918 34.4252C20.3933 34.5261 21.1415 34.8782 21.7278 35.4303C22.3892 36.0729 22.5048 36.9453 22.9675 37.6453C24.0011 39.2213 25.7974 39.3972 27.3046 38.5356C28.0744 38.1012 29.1117 37.7027 29.7297 37.053C30.5429 36.1986 30.673 34.8811 31.4501 33.9693C32.3031 32.9677 32.9464 31.6143 34.009 30.882C34.9053 30.2609 36.0004 30.3148 36.8823 29.7332C37.7642 29.1516 38.375 27.9383 38.8195 26.9941C39.0666 26.5244 39.2432 26.0213 39.3436 25.5007C39.4448 24.8223 39.0183 24.3592 39.1846 23.5514C39.2099 23.4258 39.0219 23.3253 38.9605 23.4581C38.9475 23.4835 38.9366 23.5099 38.928 23.5371C38.8848 22.9894 38.7831 22.4479 38.6244 21.9216C38.1915 21.0947 37.5038 20.4268 36.6618 20.0154C35.939 19.7067 34.974 19.7533 34.1861 19.6098C32.7223 19.3405 31.4067 18.5328 30.1128 17.7682C29.2454 17.2476 28.631 16.2748 27.6371 15.9732C26.9395 15.7506 26.1299 15.9265 25.4107 15.8691C24.5729 15.7528 23.7225 15.9653 23.0398 16.4614C23.0221 16.4465 22.9997 16.4383 22.9765 16.4383C22.9533 16.4383 22.9309 16.4465 22.9133 16.4614C22.0507 17.1799 21.2994 18.0206 20.6833 18.9564C19.9604 20.0334 19.9604 20.7083 19.8845 21.9216C19.7761 23.4043 19.3315 24.1653 18.3665 25.2243C17.7051 25.9423 17.3943 26.409 17.3835 27.4285C17.3654 29.306 18.3412 30.4368 17.416 32.3323C17.2389 32.6913 16.957 32.7128 17.0546 33.2154C17.2028 33.9334 18.0521 34.0985 18.634 34.2385C18.8725 34.2959 19.1038 34.3426 19.3243 34.3857C19.2737 35.1647 19.1834 35.9401 19.1002 36.7191C18.6669 36.1925 18.1506 35.7391 17.5714 35.3765C16.5847 34.8488 15.1499 35.0175 14.2066 34.3677C12.6054 33.2908 15.3342 30.5409 15.7137 29.5214C16.0932 28.5019 15.9016 27.6008 15.7824 26.6028C15.6064 25.633 15.6472 24.6367 15.9016 23.6843C16.1727 22.8801 16.7618 22.2806 17.1052 21.5303C17.6148 20.3959 18.0268 19.1251 18.4822 17.9656C18.9376 16.8061 19.4002 14.9106 20.3869 13.7834C20.5206 13.6506 20.6544 13.5213 20.7917 13.3957C20.9415 13.2731 21.1053 13.1682 21.2796 13.0834C21.31 13.0706 21.3342 13.0466 21.347 13.0165C21.3598 12.9863 21.3603 12.9523 21.3483 12.9218C21.7872 12.5657 22.3114 12.3283 22.8699 12.2326C24.3373 12.0208 25.4902 12.5054 26.8456 13.0152C27.4311 13.2377 28.0238 13.4711 28.6274 13.647C29.7514 13.9808 30.2682 14.5768 31.1031 15.424C31.7212 16.0486 32.1874 16.5368 33.0223 16.8599C33.929 17.1661 34.8801 17.3225 35.8378 17.323C36.8606 17.3733 37.6847 17.2763 38.6497 17.7717C38.9858 17.9441 39.2532 18.2205 39.6074 18.3748C39.7805 18.4456 39.9612 18.4962 40.146 18.5256C40.1243 18.8164 40.1315 19.1108 40.1496 19.4015ZM18.6557 28.3762C18.6047 27.3918 18.9462 26.4271 19.6062 25.691C20.2496 24.8617 20.3688 24.133 20.4158 23.0991C20.4736 21.857 20.1447 20.7442 20.7194 19.5774C21.045 18.9727 21.447 18.4117 21.9157 17.9082C21.929 17.9051 21.9414 17.8989 21.9519 17.8902C22.5265 17.5061 22.9964 16.9568 23.6325 16.6768C24.5722 16.264 25.1216 16.5368 26.0504 16.6338C27.1997 16.7558 27.7021 16.763 28.6201 17.6389C29.2138 18.2127 29.8505 18.7407 30.5248 19.2185C31.1429 19.6492 31.7212 20.1985 32.4368 20.4677C33.2283 20.7693 33.9078 20.579 34.7282 20.5683C35.7583 20.5683 36.6727 20.7298 37.4317 21.4657C38.1907 22.2016 38.3533 23.2607 38.7292 24.2407C38.6171 24.8761 38.6605 25.4972 38.44 26.172C38.0389 27.407 37.0486 29.1014 35.7221 29.4819C34.2764 29.8947 33.1488 30.1999 32.2814 31.5676C31.667 32.5261 30.8682 33.2764 30.2321 34.2098C29.596 35.1432 29.5598 36.037 28.4503 36.6653C27.4853 37.2073 26.1046 38.0689 25.0457 37.9038C23.8313 37.7171 23.7192 36.7586 23.094 35.9401C22.6401 35.3277 22.0997 34.7836 21.4892 34.3247C21.0919 34.0468 20.6493 33.8392 20.1809 33.7108C19.992 33.6711 19.7992 33.6531 19.6062 33.6569C19.6062 33.6175 19.6062 33.5744 19.6062 33.5313C19.6062 33.3769 19.3641 33.3769 19.3605 33.5313C19.3605 33.5744 19.3605 33.6139 19.3605 33.6569C19.0112 33.6931 18.6584 33.6374 18.3376 33.4954C17.3871 32.8636 18.5689 32.3036 18.8111 31.6179C19.1978 30.5302 18.7135 29.4281 18.6557 28.3762ZM8.47075 36.5935C8.31895 35.2293 7.43346 33.8723 7.63225 32.4974C7.85633 30.9466 8.29365 29.3563 8.46714 27.766C9.04816 27.7715 9.6264 27.6855 10.1803 27.5111C10.1119 27.9219 10.014 28.3274 9.88753 28.7245C9.6779 29.4424 9.50081 30.1999 9.30564 30.9394C8.88772 32.334 8.57244 33.757 8.36232 35.197C8.36232 35.258 8.45268 35.2688 8.46714 35.197C8.89723 33.4021 9.39961 31.6071 9.85862 29.8122C10.0538 29.0475 10.3827 28.2255 10.4405 27.4213C10.5742 27.3675 10.7044 27.3172 10.8309 27.2526C10.8801 27.2243 10.9232 27.1865 10.9574 27.1413C10.2706 29.6542 9.62369 31.9769 9.98873 34.6585C10.1438 35.6755 10.6826 36.5957 11.4959 37.2325C11.8579 37.4387 12.2527 37.582 12.6633 37.6561C14.2319 38.1371 14.9113 38.4207 16.0064 39.7346C16.6743 40.5715 17.4976 41.2734 18.4316 41.8024C18.934 42.1111 19.2918 42.5598 19.805 42.8614C20.5748 43.3209 21.482 43.5004 22.2591 43.9599C23.0394 44.4749 23.8822 44.8898 24.7674 45.1948C25.8516 45.5359 26.8347 46.3005 28.0202 46.0779C29.2852 45.8338 30.5501 45.0799 31.7428 44.5989C32.2124 44.3631 32.6631 44.0919 33.091 43.7876C34.1102 43.1809 34.6523 43.3604 35.6209 42.9619C37.9268 42.0142 37.681 39.4618 38.2051 37.4048C39.0219 37.9289 39.8821 38.4566 40.7351 38.97C40.4467 39.6148 40.2169 40.284 40.0484 40.9695C39.7484 42.1255 39.246 42.4055 38.2413 43.0732C37.4461 43.5937 36.6654 44.125 35.8595 44.624C34.1319 45.701 32.6356 46.9574 30.673 47.5928C29.3032 48.0344 28.0599 47.9159 26.7371 47.6754C26.1841 47.3164 25.5733 47.241 24.8469 47.0436C23.6072 46.7062 22.2265 46.3256 21.0447 45.8984C19.9351 45.4928 19.3821 44.4625 18.2943 43.9886C17.2064 43.5147 16.6823 43.6512 15.6378 42.9116C15.1679 42.5742 14.7234 42.2368 14.2427 41.9101C13.4909 41.4003 12.797 40.4741 11.9332 40.1654C10.932 39.8064 9.49358 40.4023 8.68037 39.4833C8.20329 38.9125 8.5575 37.2432 8.4816 36.5827L8.47075 36.5935ZM5.02999 23.9356L5.23239 23.9966L5.72393 24.0899C5.65526 24.3699 5.5902 24.6535 5.51791 24.9371C5.39142 24.8977 5.2613 24.8546 5.13119 24.8187C5.15649 25.0089 5.17818 25.1992 5.18541 25.3931C4.8997 25.3168 4.60635 25.2722 4.31076 25.2602C3.83006 25.2423 3.26624 25.35 2.72772 25.3751C2.87952 24.851 3.03132 24.3233 3.16143 23.7956C3.44696 22.6217 3.68188 21.4155 3.94211 20.2057C4.43365 20.4211 4.92156 20.6185 5.36973 20.8052C5.16436 21.6614 5.04332 22.5355 5.0083 23.415C5.00806 23.5855 5.01892 23.7557 5.04083 23.9248L5.02999 23.9356ZM5.78176 23.8494C5.69095 23.562 5.63988 23.2637 5.62995 22.9627C5.62749 22.307 5.70639 21.6535 5.86488 21.017L6.33112 21.1893C6.19739 22.0688 6.00584 22.9555 5.7926 23.8386L5.78176 23.8494ZM6.62387 21.2826C7.11902 21.4334 7.62863 21.5591 8.14186 21.6739C8.12379 21.857 8.10933 22.0329 8.09487 22.2304C8.09487 22.155 8.07319 22.0832 8.05512 22.0078C8.01898 21.8355 7.75513 21.9073 7.78766 22.0832C8.04065 23.3073 7.71176 24.5028 7.51659 25.7125L7.4949 25.8561C7.04519 25.8358 6.59853 25.7721 6.16125 25.6659C6.16125 25.5654 6.16125 25.4613 6.16125 25.3536C6.15599 25.2763 6.14512 25.1995 6.12872 25.1238C6.03114 25.0879 5.92994 25.0628 5.82874 25.0305C6.13595 23.774 6.43593 22.5283 6.63471 21.2719L6.62387 21.2826ZM1.18806 23.7094C1.4013 23.7094 1.61454 23.6914 1.83139 23.6879C1.68886 23.2869 1.60724 22.867 1.58924 22.4422C1.58286 21.3734 1.76387 20.3117 2.12415 19.3046C2.62703 19.5963 3.14587 19.86 3.67827 20.0944C3.31684 21.6488 3.03132 23.2176 2.59399 24.7361L2.40966 25.3751H2.19643C2.19643 25.3356 2.19643 25.2961 2.19643 25.2566C2.17288 24.9093 2.10363 24.5666 1.99042 24.2371C1.72297 24.2371 1.45189 24.212 1.18082 24.212C1.1476 24.2115 1.11479 24.2045 1.08428 24.1915C1.05377 24.1784 1.02615 24.1595 1.00299 24.1358C0.956223 24.088 0.930483 24.0237 0.931441 23.9571C0.9324 23.8905 0.959974 23.8269 1.0081 23.7805C1.05622 23.734 1.12096 23.7084 1.18806 23.7094ZM2.25425 25.9638C2.2145 26.1038 2.17474 26.2403 2.1386 26.3803C2.16028 26.2295 2.17836 26.0823 2.19282 25.9315L2.25425 25.9638ZM1.77357 27.8306C1.67598 28.265 1.59285 28.6993 1.53502 29.1445C1.44828 29.7871 1.26757 30.742 1.89645 31.1835C1.93982 31.2158 2.00849 31.1512 1.97234 31.1081C1.39407 30.3578 1.87838 28.7855 2.05548 27.9634C2.19282 27.3352 2.36269 26.7177 2.5434 26.1039C3.34278 26.434 4.16244 26.7133 4.99746 26.9403C4.52038 28.7101 3.52285 30.2968 3.63128 32.2425C3.69995 33.4846 4.40473 34.4754 4.37581 35.7534C4.35774 36.7442 4.15535 37.7135 4.42642 38.69C4.96132 40.589 6.28052 41.1203 7.74429 42.1937C7.76577 42.2117 7.7922 42.223 7.82018 42.226C7.85831 42.2683 7.89937 42.3079 7.94307 42.3445C8.44545 42.7752 9.02734 43.1019 9.53695 43.5471C10.3755 44.2902 11.0694 45.184 12.0235 45.7907C12.4559 46.0333 12.9011 46.2526 13.3572 46.4477C13.6034 47.8034 13.704 49.1813 13.6572 50.5581C13.4347 50.4604 13.2186 50.3489 13.0102 50.2242C12.5985 49.9684 12.1725 49.7359 11.7344 49.5278C11.6404 48.5442 11.3911 47.6323 11.214 46.6559C11.1814 46.4836 10.9176 46.5554 10.9465 46.7277C11.1019 47.6216 11.2899 48.476 11.4019 49.3662C10.6974 49.0418 10.0099 48.6824 9.34179 48.2893L9.2948 48.2606C9.18552 46.9034 8.93109 45.5616 8.53581 44.2579C8.48882 44.0999 8.23582 44.1645 8.28642 44.3261C8.65537 45.5351 8.87743 46.7837 8.94784 48.0452C8.49274 47.7125 8.05824 47.3528 7.64671 46.9682C7.70185 45.5658 7.51357 44.1645 7.09011 42.8255C7.0359 42.6819 6.80458 42.7429 6.85879 42.8865C7.25371 44.1365 7.43453 45.4434 7.39371 46.7528C6.85669 46.2462 6.2789 45.7839 5.6661 45.3707L5.38419 45.1805C5.39397 43.9012 5.2385 42.6259 4.92157 41.3859C4.90999 41.3586 4.88877 41.3364 4.86188 41.3234C4.835 41.3105 4.80428 41.3077 4.77549 41.3156C4.74669 41.3235 4.72178 41.3416 4.70543 41.3664C4.68907 41.3913 4.6824 41.4212 4.68664 41.4506C4.97931 42.6091 5.125 43.7994 5.12035 44.9938C4.70235 44.6779 4.26277 44.3912 3.80477 44.1358L3.70719 44.082C3.32769 43.7768 2.91928 43.5076 2.53256 43.2096C2.53256 42.2691 2.51448 41.3321 2.57231 40.3987C2.63737 39.3684 2.82169 38.2161 2.26871 37.2827C2.2505 37.2523 2.22085 37.2302 2.18628 37.2215C2.15171 37.2127 2.11506 37.218 2.08438 37.2361C2.05371 37.2541 2.03153 37.2836 2.02272 37.3179C2.01391 37.3523 2.01919 37.3887 2.0374 37.4191C2.65182 38.4782 2.27594 39.8926 2.24703 41.0449C2.24703 41.6803 2.22535 42.3157 2.22535 42.9511C2.15306 42.8901 2.08078 42.8327 2.01211 42.7681C0.989277 41.7808 0.613395 40.3269 0.667608 38.9556C0.710979 37.8786 0.956743 36.8591 0.776031 35.7858C0.508577 34.2134 0.28088 32.9138 0.606162 31.3271C0.844702 30.146 1.38684 28.9973 1.77357 27.8234V27.8306ZM15.0414 47.618C15.1716 48.7955 15.374 49.9801 15.486 51.1612C14.9511 51.0032 14.4017 50.8525 13.9066 50.655C13.943 49.293 13.845 47.9307 13.6138 46.5877C14.1306 46.9 14.5499 47.2877 15.0414 47.618ZM13.5524 54.349C13.0211 54.1946 12.4898 54.0403 11.9838 53.8428C11.9838 53.552 11.9621 53.2613 11.9549 52.9669C11.9332 52.2489 11.8826 51.5058 11.8284 50.7735C12.085 50.9745 12.338 51.1791 12.6127 51.3622C12.9265 51.5674 13.2638 51.735 13.6174 51.8612C13.6174 52.4069 13.5849 52.9561 13.5741 53.5054C13.5668 53.7854 13.556 54.0654 13.5488 54.349H13.5524ZM2.55785 45.2199C2.55785 44.7999 2.55785 44.3799 2.55785 43.9563C3.0277 44.2866 3.5337 44.6097 4.05415 44.9938C4.08095 45.0127 4.11193 45.0251 4.14451 45.0297C4.19752 45.0871 4.24449 45.1338 4.28546 45.1697C4.55652 45.3994 4.84567 45.6041 5.13842 45.8087C5.13842 47.1585 5.05168 48.519 5.13842 49.8724C4.37607 49.1394 3.55671 48.4672 2.68797 47.8621C2.65544 47.8621 2.6229 47.819 2.59038 47.7975C2.55062 46.9395 2.55424 46.0779 2.55424 45.2199H2.55785ZM5.35166 48.8098C5.35166 47.8693 5.37696 46.9323 5.38419 45.9989C5.64825 46.1794 5.90167 46.3748 6.14318 46.5841C6.57328 46.9646 6.97084 47.3775 7.37925 47.7831C7.34672 48.8421 7.27805 49.894 7.28167 50.8884C7.28167 51.0822 7.28166 51.2725 7.30335 51.4627C7.12987 51.3694 6.96 51.2725 6.79374 51.1684C6.3075 50.8637 5.84698 50.5204 5.41672 50.1417C5.38057 49.6929 5.35166 49.2514 5.34804 48.8062L5.35166 48.8098ZM7.57442 50.3786C7.57442 49.6211 7.61056 48.8314 7.63225 48.0344C8.05154 48.4599 8.51287 48.8423 9.00927 49.176C9.04541 50.2529 9.14661 51.3299 9.20083 52.4069C8.67676 52.152 8.14547 51.9043 7.62863 51.6351C7.5961 51.215 7.5708 50.7986 7.5708 50.375L7.57442 50.3786ZM9.49358 51.872C9.45382 51.0391 9.4213 50.2135 9.3707 49.3878C9.82609 49.6319 10.3104 49.815 10.7694 50.0591C11.0222 50.1957 11.2639 50.3517 11.4923 50.5258C11.5537 51.5058 11.6115 52.4858 11.6188 53.4695V53.692C11.382 53.5903 11.1536 53.4703 10.9357 53.3331C10.473 53.0459 9.99957 52.7982 9.51888 52.5612C9.50804 52.3279 9.50081 52.0981 9.48997 51.8684L9.49358 51.872ZM17.4015 55.6342V56.1044C16.8912 55.769 16.3573 55.4703 15.804 55.2106C15.8257 54.3275 15.8727 53.4408 15.8583 52.5541C15.9522 52.59 16.0462 52.6187 16.1402 52.6582C16.5305 52.8125 16.9461 52.9274 17.3509 53.0566C17.3943 53.9039 17.4088 54.7511 17.3979 55.6306L17.4015 55.6342ZM15.374 46.6595C14.7356 46.2837 14.0768 45.9433 13.4006 45.64C13.4006 45.5825 13.3717 45.5287 13.3536 45.4748C13.3466 45.4471 13.3298 45.4228 13.3061 45.4064C13.2825 45.39 13.2537 45.3827 13.2251 45.3858C13.1965 45.3888 13.1699 45.4021 13.1504 45.4231C13.1308 45.444 13.1195 45.4714 13.1187 45.5C12.8223 45.3528 12.5295 45.1984 12.244 45.0225C11.1019 44.3261 10.2526 43.2491 9.12131 42.5275C8.62616 42.2152 8.03704 41.7234 7.53105 41.4757L7.44792 41.429C6.97445 41.0449 6.45039 40.7398 6.00222 40.309C5.59444 39.8763 5.28195 39.3639 5.08469 38.8045C4.88742 38.2451 4.80971 37.651 4.85651 37.0602C4.89266 36.1447 5.10589 35.2652 4.95048 34.357C4.72278 33.0144 4.52761 31.9159 4.80591 30.5553C5.02999 29.446 5.5649 28.3762 5.89018 27.2706C6.34427 27.4488 6.8153 27.5811 7.29613 27.6654V27.7049C7.13953 28.4727 7.04645 29.2519 7.01782 30.0348C6.75037 31.6825 6.36727 33.3195 6.19017 34.9744C6.19017 35.0391 6.28414 35.0498 6.30221 34.9744C6.55159 34.0949 6.7576 33.1795 6.94193 32.2856C6.94193 34.1524 8.0262 35.9078 7.80212 37.7889C7.74067 38.3669 7.32142 38.8659 7.55996 39.4295C7.76958 39.9213 8.6117 40.3162 9.05264 40.5064C9.85139 40.8439 10.6248 40.6716 11.4525 40.8654C12.4573 41.0916 13.415 42.1578 14.2933 42.7681C15.1715 43.3783 15.8366 44.0245 16.8233 44.4948C17.6094 44.8662 18.3181 45.3813 18.9123 46.0133C19.275 46.4453 19.7275 46.7943 20.2387 47.0364C22.0061 47.6898 24.0156 47.6826 25.8733 48.0667C28.8117 49.8042 32.2488 47.959 34.7101 46.2538C36.5173 45.0081 38.4943 44.1681 40.3628 43.0876C41.5338 42.4163 41.6567 41.009 42.0434 39.7741L43.9987 40.9516C43.5436 41.5689 43.1318 42.2166 42.7663 42.8901C42.208 44.0082 41.3644 44.9613 40.3194 45.6543C39.3219 46.2969 38.1943 46.699 37.2582 47.4493C36.4305 48.1062 35.5125 48.5872 34.6342 49.176C34.2228 49.5097 33.7867 49.8121 33.3295 50.0806C32.5537 50.3679 31.7356 50.5268 30.908 50.5509C29.9268 50.5862 28.9513 50.7149 27.9949 50.935C26.5492 51.294 25.1432 51.5309 23.6578 51.2689C22.4651 51.0571 21.7495 50.296 21.0049 49.4237C20.4014 48.7057 19.7183 48.4149 18.8834 47.9877C17.7449 47.4026 16.4185 47.2985 15.3703 46.6415L15.374 46.6595ZM55.4342 23.1027C55.4258 23.8745 55.5169 24.6442 55.7053 25.3931C55.4956 26.3013 55.3005 27.2095 55.0619 28.1106C54.8993 28.7388 54.7005 29.3599 54.4945 29.9737C54.457 29.7983 54.4037 29.6265 54.3355 29.4604C54.1728 29.0763 53.9957 28.7029 53.8186 28.3296C53.9704 27.8844 54.1078 27.4357 54.2487 26.9941C54.6463 25.7197 55.1993 24.4274 55.4306 23.0848L55.4342 23.1027ZM54.5053 12.2649C54.7156 12.4699 54.9124 12.6881 55.0945 12.9182C55.9294 13.9952 56.2113 15.2768 56.345 16.6122C56.4534 17.6605 55.7631 19.2041 55.8028 20.4067C55.675 20.9186 55.5784 21.4377 55.5137 21.9611C55.4946 21.9396 55.4694 21.9242 55.4414 21.917C55.4134 21.9098 55.3838 21.9111 55.3566 21.9208C55.3293 21.9304 55.3056 21.948 55.2885 21.9712C55.2714 21.9944 55.2617 22.0222 55.2607 22.0509C55.2282 23.8458 54.3716 25.709 53.815 27.3926C53.7536 27.5793 53.6885 27.7516 53.6271 27.9454C53.3669 27.4034 53.1102 26.8685 52.8825 26.2977C53.5304 24.6862 54.089 23.0408 54.5559 21.3688C54.6029 21.2144 54.3608 21.1462 54.3102 21.3006C53.8512 22.7904 53.4319 24.2945 52.8645 25.7413C52.8356 25.8167 52.803 25.892 52.7705 25.9638C52.7091 25.7951 52.6476 25.6264 52.5934 25.4505C52.0224 23.6556 52.55 22.0724 52.7958 20.2918C52.8043 20.2388 52.7995 20.1846 52.7818 20.1339C52.7642 20.0832 52.7342 20.0375 52.6946 20.0011C52.9371 19.332 53.0832 18.6322 53.1283 17.9225C53.1283 17.2045 53.291 16.2496 53.0813 15.5604C52.814 14.9153 52.4251 14.3268 51.9356 13.8265C53.0199 13.5106 53.7138 12.9111 54.5017 12.2469L54.5053 12.2649ZM-1.71057 9.57606C-1.47203 8.3914 -0.825076 7.64111 0.212211 6.98775C1.06879 6.44568 2.01933 6.07951 2.89759 5.5518L2.99156 5.48719C2.85784 5.67745 2.7205 5.8713 2.59761 6.06516C1.83862 7.26059 1.11215 8.41652 0.288107 9.56887C-0.53594 10.7212 -1.25517 12.0351 -2.06115 13.2449C-2.44065 13.8157 -2.82014 14.5193 -3.2683 15.1224C-3.05145 14.1172 -2.83098 13.1157 -2.54546 12.1392C-2.28885 11.2418 -1.89489 10.4627 -1.71418 9.5581L-1.71057 9.57606ZM-6.24283 24.9694C-6.13079 23.9176 -5.57419 23.0309 -5.36095 22.0042C-5.13326 20.9272 -4.56943 20.019 -4.22969 18.9672C-3.88996 17.9153 -3.63334 16.7809 -3.39119 15.6681C-3.09454 15.2952 -2.82518 14.9017 -2.58521 14.4906C-1.72863 13.2162 -0.890132 11.931 -0.0805416 10.6243C0.682063 9.38938 1.61453 8.2837 2.33015 7.01647C2.69158 6.39542 3.07107 5.81386 3.47225 5.22153L3.5337 5.1282C4.37943 4.55382 5.1854 3.922 6.01306 3.33326C6.83742 2.80586 7.56984 2.1487 8.18161 1.38755C8.87916 0.43982 9.26589 -0.583295 10.108 -1.4341C11.7959 -3.15724 13.3066 -4.83371 15.7028 -5.52656C16.9028 -5.88555 18.1027 -6.24453 19.3171 -6.55326C20.3255 -6.80096 21.2543 -6.94456 22.1434 -7.50817C22.2148 -7.55258 22.2783 -7.60837 22.3314 -7.6733C23.112 -7.84562 23.8855 -8.03229 24.612 -8.19743C26.8239 -8.66411 28.5876 -9.92057 30.5935 -10.8791C31.6778 -11.3996 32.8777 -11.9776 33.9909 -11.195C34.7004 -10.7106 35.3453 -10.1388 35.9101 -9.49337C37.2293 -7.91742 38.5557 -6.52813 40.4785 -5.67733C42.2856 -4.87679 44.4722 -4.60037 46.4203 -4.37062C47.9166 -4.18753 49.5249 -3.62392 50.9923 -3.18596C52.597 -2.70491 54.462 -1.66026 55.4017 -0.249441C55.2137 0.109547 55.0402 0.468538 54.8776 0.780858C54.5704 1.35883 54.2957 1.95116 54.0355 2.54708C53.9545 2.29006 53.8325 2.04764 53.6741 1.8291C53.497 2.18809 53.3126 2.54708 53.1464 2.90606C53.262 3.26505 53.2946 3.65635 53.3922 4.03687C53.0994 4.70459 52.7994 5.36872 52.4561 6.0113C52.2576 6.38094 52.0405 6.74038 51.8055 7.08827C51.7477 6.95544 51.6862 6.81903 51.6284 6.67902C51.6067 6.62876 51.5886 6.5785 51.5706 6.53184C51.5091 6.69338 51.4441 6.85852 51.3826 7.02365C51.2778 7.31443 51.1766 7.60521 51.0718 7.90317C51.0935 7.94984 51.108 8.00369 51.1296 8.05036L50.9236 8.33396C50.408 10.0254 49.7441 11.6687 48.9394 13.2449C48.9801 13.3372 49.0323 13.4241 49.0948 13.5034C49.2755 13.7014 49.5004 13.8546 49.7515 13.9506C50.0026 14.0466 50.2728 14.0828 50.5405 14.0562C50.8084 14.2993 51.0562 14.5634 51.2814 14.846C52.0043 15.7542 52.232 16.8563 52.3476 17.9943C52.438 18.8882 51.8525 20.2057 51.885 21.2252C51.7779 21.6594 51.6959 22.0992 51.6392 22.5427C50.9598 23.8961 50.3706 25.2925 49.6695 26.6316C49.4707 26.9906 49.2864 27.407 49.0912 27.8019C48.9835 27.3782 48.9062 26.9476 48.8599 26.5131C48.6322 24.2084 49.5611 22.0293 49.8032 19.7749C49.8069 19.7238 49.7996 19.6725 49.7817 19.6245C49.7638 19.5765 49.7358 19.5328 49.6995 19.4964C49.6632 19.46 49.6195 19.4318 49.5713 19.4136C49.5231 19.3953 49.4716 19.3876 49.4201 19.3908C49.6529 18.4266 49.5681 17.4136 49.1779 16.5009C48.8848 15.7729 48.4773 15.0956 47.9708 14.4942C47.7359 14.4942 47.4937 14.3362 47.6094 14.0526C47.0492 13.4136 46.442 12.8105 45.8818 12.1967C46.1348 10.714 46.4167 9.23142 46.6263 7.73804C46.8068 7.84328 46.9661 7.98082 47.0961 8.14369C47.3889 8.53499 47.3672 9.00885 47.4973 9.46835C47.7009 10.2808 48.0249 11.0588 48.4587 11.7767C48.5997 11.4177 48.7406 11.0587 48.8852 10.6997C48.6828 10.3407 48.5238 9.9494 48.3322 9.51502C48.072 8.91551 48.072 8.11856 47.6094 7.61957C47.3499 7.3707 47.0459 7.17224 46.713 7.03442C46.7962 6.31645 46.854 5.59847 46.8757 4.89845C46.8757 4.56459 46.8757 4.21996 46.8757 3.87892C47.5016 3.86326 48.1255 3.95682 48.7189 4.15534C49.2837 4.3106 49.7925 4.62181 50.1863 5.05281C50.4971 5.46923 50.508 5.96464 50.62 6.45645C50.7176 6.21593 50.8152 5.97541 50.9092 5.73848C51.0031 5.50154 51.079 5.31128 51.1658 5.08871C51.0868 4.85503 50.9642 4.63824 50.8044 4.44971C50.3056 3.91482 49.2538 3.55224 48.5888 3.28659C48.0701 3.10005 47.5297 2.97943 46.9805 2.9276C47.041 2.59898 47.1636 2.28471 47.3419 2.00141C47.425 1.87218 47.219 1.7573 47.1395 1.88295C46.9442 2.19355 46.8105 2.53839 46.7456 2.89888C46.5046 2.87495 46.2769 2.84623 46.0625 2.81272C45.1069 2.70242 44.1685 2.47576 43.2687 2.13783C42.3362 1.77884 41.5302 1.13984 40.6014 0.788033C39.6725 0.436226 38.8882 0.705466 37.9593 0.737776C36.6329 0.788033 35.1908 0.378791 34.4752 -0.77356C33.9005 -1.68898 33.4958 -2.52542 32.7476 -3.32596C31.3597 -4.81576 30.5393 -4.81935 28.631 -4.06548C27.6624 -3.68495 27.0407 -2.93108 26.2528 -2.39977C26.1827 -2.65107 26.1284 -2.90644 26.0902 -3.16442C26.0396 -3.52341 25.4866 -3.4193 25.4938 -3.08544C25.5011 -2.75158 25.5191 -2.36747 25.5408 -2.00848C24.2831 -1.52384 22.8301 -1.93309 21.5073 -1.77873C20.299 -1.62806 19.1303 -1.25169 18.0629 -0.669456H18.0232C16.1402 0.177755 14.6764 0.604949 13.8018 2.63323C13.1006 4.27021 12.75 5.67386 11.1055 6.60723C10.1232 7.12822 9.1895 7.73491 8.31534 8.42011C6.69978 9.75196 5.11674 10.7069 4.25655 12.6669C3.74333 13.848 3.73609 15.1045 3.12167 16.2568C2.89036 16.6948 2.6193 17.1148 2.35907 17.5348C3.0806 15.2599 3.93624 13.0291 4.92157 10.854C4.99385 10.6961 4.76254 10.5597 4.68664 10.7176C3.55634 13.1551 2.58217 15.661 1.76995 18.2205L1.69766 18.1487C1.6066 18.0909 1.51855 18.0286 1.43383 17.962C1.09409 17.6928 0.609776 18.1415 0.945901 18.4466C1.13512 18.6176 1.33555 18.7759 1.54587 18.9205C1.36877 19.4698 1.18444 19.9975 1.03264 20.5647C0.512189 22.2699 0.100174 23.9679 -0.257636 25.709C-0.460033 26.6926 -1.13229 27.8377 -0.543164 28.7639C-0.537413 28.7773 -0.526565 28.7878 -0.513009 28.7932C-0.499453 28.7986 -0.484305 28.7984 -0.470886 28.7927C-0.457466 28.787 -0.446881 28.7762 -0.441459 28.7627C-0.436036 28.7492 -0.436214 28.7342 -0.441966 28.7209C-0.65882 28.0603 -0.441967 27.5829 -0.23957 26.9582C-0.0191002 26.2654 0.0929394 25.5223 0.244738 24.8258C0.439907 23.9104 0.671216 23.0094 0.920599 22.1155C0.891685 22.4063 0.873616 22.6971 0.866387 22.9807C0.833859 24.0576 1.18806 24.9838 1.03626 26.0572C0.674833 28.5701 -0.92989 30.663 -0.770864 33.3195C-0.69135 34.777 0.132702 35.9365 0.103788 37.4371C0.0821028 38.514 -0.116681 39.5551 0.103788 40.6034C0.103788 42.293 0.103788 43.9814 0.103788 45.6687C0.103788 45.8195 0.103788 45.9702 0.103788 46.1246C-0.43504 45.76 -0.948245 45.3594 -1.43226 44.9256C-1.4522 44.9069 -1.47036 44.8865 -1.48649 44.8645C-1.48649 44.5056 -1.48649 44.1466 -1.48649 43.7876C-1.50817 42.3516 -1.34553 40.9947 -1.26601 39.5767C-1.1865 38.1587 -1.26602 36.6545 -1.29493 35.2042C-1.29493 35.1709 -1.30826 35.1389 -1.33198 35.1153C-1.3557 35.0918 -1.38787 35.0785 -1.42142 35.0785C-1.45497 35.0785 -1.48715 35.0918 -1.51087 35.1153C-1.5346 35.1389 -1.54792 35.1709 -1.54792 35.2042C-1.54792 36.6401 -1.50456 38.1299 -1.59853 39.5767C-1.64551 40.2946 -1.80092 41.0126 -1.84429 41.7306C-1.88766 42.4486 -1.84429 43.206 -1.84429 43.9455V44.4589C-2.65061 43.3463 -3.04049 41.989 -2.94663 40.6213C-2.89965 39.4115 -2.61774 38.2556 -2.82375 37.0314C-2.84905 36.8914 -2.87074 36.7514 -2.89604 36.6114C-2.70775 35.5049 -2.57866 34.3893 -2.50931 33.2692C-2.50931 33.2378 -2.52188 33.2077 -2.54424 33.1855C-2.56661 33.1633 -2.59696 33.1508 -2.62859 33.1508C-2.66022 33.1508 -2.69055 33.1633 -2.71292 33.1855C-2.73529 33.2077 -2.74785 33.2378 -2.74785 33.2692C-2.79068 34.0744 -2.88971 34.8757 -3.04422 35.6673C-3.25664 34.4537 -3.24684 33.2121 -3.0153 32.002C-2.54907 29.7153 -1.0853 27.547 -1.20818 25.131C-1.25905 24.5829 -1.38052 24.0436 -1.56961 23.5263C-1.559 23.5119 -1.55192 23.4952 -1.54893 23.4776C-1.54594 23.46 -1.54712 23.442 -1.55238 23.4249C-1.55764 23.4078 -1.56683 23.3922 -1.57924 23.3793C-1.59164 23.3663 -1.6069 23.3565 -1.62382 23.3504L-1.69973 23.0955C-1.67443 23.0201 -1.64913 22.9448 -1.63105 22.873C-1.37607 22.0075 -1.04343 21.1665 -0.637138 20.36C0.0098114 18.9851 0.548335 17.5779 1.12661 16.1742C1.80609 14.5229 2.57231 12.9146 3.36745 11.3136C3.79754 10.4484 4.1698 9.56169 4.53846 8.67499C4.89967 8.50714 5.24244 8.30263 5.56128 8.06471C6.49376 7.3252 7.36841 6.58569 8.37678 5.93592C10.3863 4.6328 11.0658 3.30095 11.9693 1.11471C12.3814 0.116728 12.7356 -0.888435 13.415 -1.73206C13.705 -2.07498 14.0463 -2.37161 14.427 -2.61158C14.4396 -2.58501 14.4622 -2.56444 14.49 -2.55435C14.5177 -2.54426 14.5483 -2.54548 14.5752 -2.55773C16.1691 -3.15365 17.8786 -4.21984 19.5231 -4.48549C21.4278 -4.79422 23.7373 -4.17676 25.5191 -4.9809C26.4697 -5.40809 26.9648 -6.26966 27.8214 -6.80455C28.495 -7.23321 29.2463 -7.5271 30.0333 -7.66971C31.2766 -7.80613 32.2994 -7.08098 33.0476 -6.10453C34.1319 -4.70089 34.3921 -2.70492 36.1811 -1.98694C37.1171 -1.64498 38.1043 -1.46174 39.1014 -1.44487C39.5568 -1.44487 39.9725 -1.59564 40.4206 -1.61718C41.4688 -1.67103 42.1049 -1.07511 42.8458 -0.454061C44.3529 0.813166 45.9938 0.981889 47.8443 1.0142C48.9575 1.0142 50.2188 0.928039 51.2525 1.32652C51.6997 1.47504 52.1241 1.68402 52.5139 1.94757C52.6476 1.67833 52.7922 1.41626 52.944 1.16138C52.3497 0.843321 51.7324 0.569732 51.0971 0.342893C50.2116 -0.0160952 49.1743 -0.0448189 48.2455 -0.188414C47.1677 -0.311716 46.1092 -0.566105 45.0939 -0.945872C44.0385 -1.36948 43.1313 -2.07309 42.0796 -2.47157C41.0278 -2.87005 40.1496 -2.56491 39.1014 -2.52542C37.6015 -2.47157 35.9751 -2.94184 35.1691 -4.2342C34.5222 -5.26449 34.0632 -6.20863 33.2211 -7.1061C31.6561 -8.78975 30.7272 -8.78975 28.5768 -7.94254C27.2034 -7.40047 26.4624 -6.19787 25.1722 -5.66298C23.7265 -5.07065 22.0567 -5.55169 20.5351 -5.37578C19.1727 -5.20468 17.8547 -4.7809 16.6498 -4.1265H16.6064C14.4776 -3.16801 12.8259 -2.69055 11.8428 -0.393034C11.0513 1.44857 10.6538 3.0353 8.79965 4.08713C7.69148 4.67543 6.63801 5.36019 5.65164 6.13336L5.38781 6.34875C5.37394 6.33648 5.35729 6.3277 5.33929 6.32317C5.32128 6.31863 5.30245 6.31847 5.28437 6.32269C5.26629 6.32692 5.24949 6.33541 5.23541 6.34744C5.22133 6.35948 5.21038 6.3747 5.20348 6.39183L5.13842 6.54979C4.05415 7.40059 3.02771 8.15805 2.19282 9.14168C3.03494 7.79188 4.41196 5.52667 4.14089 5.41898C4.05053 5.38308 3.98548 5.53385 4.07222 5.57693C4.10475 5.59488 2.73495 7.77034 2.57953 8.00727C1.47116 9.68762 0.475103 11.4385 -0.402215 13.2485C-1.21903 14.9465 -1.89489 16.7091 -2.72617 18.4036C-2.83821 18.6333 -3.22855 19.3405 -3.20325 19.7857C-3.80322 20.8913 -4.26222 22.0724 -4.81158 23.2032C-5.44752 24.4984 -6.01689 25.8248 -6.5175 27.1772C-6.61147 27.4357 -6.70906 27.6942 -6.79941 27.9598C-6.55222 26.9694 -6.36754 25.9647 -6.24644 24.9515L-6.24283 24.9694ZM-1.54432 49.5924C-1.54432 49.1616 -1.51539 48.7272 -1.51178 48.2965V45.8051C-1.03108 46.1892 -0.496181 46.5231 0.0640259 46.9179C0.0459547 48.0416 0.0206547 49.1652 0.0640259 50.2853C-0.463654 50.0232 -1.01302 49.797 -1.56238 49.5745L-1.54432 49.5924ZM-5.58503 41.6372L-5.7043 42.4055C-5.89552 41.789 -6.15238 41.1945 -6.47052 40.6321C-6.01726 37.768 -5.37006 34.9375 -4.53329 32.16C-4.07067 30.5768 -3.52853 29.0152 -2.99724 27.4501C-2.79845 26.8577 -2.67557 26.2115 -2.51293 25.5797C-2.51553 25.7503 -2.5288 25.9206 -2.55268 26.0895C-2.95025 28.9363 -4.77182 31.2876 -4.60557 34.2852C-4.56979 34.7727 -4.47763 35.2545 -4.33089 35.7211C-4.83689 37.6704 -5.29228 39.6197 -5.6031 41.6193L-5.58503 41.6372ZM-1.77562 21.0421C-1.81899 21.1498 -1.86598 21.2539 -1.90935 21.3616C-1.83357 19.8606 -1.41587 18.3963 -0.687732 17.0789C-0.0949965 16.0594 0.61339 15.1009 0.967586 13.9629C1.37599 12.6633 1.36515 11.2166 2.25425 10.093C2.69158 9.54016 3.4578 9.20271 4.20234 8.8509L4.18065 8.90475C3.77947 9.78067 3.34938 10.6387 2.91567 11.4966C2.07355 13.1659 1.29287 14.8568 0.588095 16.5907C-0.091382 18.2492 -0.857607 19.8646 -1.5407 21.5268C-1.67081 21.857 -1.77562 22.1873 -1.8732 22.5247C-1.90395 22.3516 -1.92207 22.1764 -1.92742 22.0006C-1.92742 21.9755 -1.92742 21.9504 -1.92742 21.9252C-1.82261 21.6632 -1.71418 21.4047 -1.60213 21.1462C-1.56599 21.0098 -1.73948 20.9057 -1.79369 21.0242L-1.77562 21.0421ZM-1.28047 16.7127C-1.62652 17.0548 -1.90374 17.4593 -2.09729 17.9046C-2.24186 18.1918 -2.4045 18.461 -2.57437 18.7302C-2.12259 17.6066 -1.39251 16.1814 -1.33468 16.0522C-0.647978 14.4511 0.082099 12.8787 0.902532 11.3459C0.465209 12.5628 0.396533 13.8372 -0.232345 15.0219C-0.535941 15.5963 -0.900971 16.1348 -1.24071 16.6876L-1.28047 16.7127ZM-7.85838 37.3509C-8.14391 35.416 -7.85839 33.2944 -7.5295 31.3163V31.3666C-7.52683 31.3755 -7.52134 31.3833 -7.51385 31.3888C-7.50636 31.3944 -7.49727 31.3974 -7.48793 31.3974C-7.47859 31.3974 -7.4695 31.3944 -7.46201 31.3888C-7.45452 31.3833 -7.44903 31.3755 -7.44637 31.3666C-7.34155 29.884 -6.7958 28.4947 -6.27174 27.1018C-5.74767 25.709 -5.12964 24.3771 -4.48992 23.0453C-4.02007 22.0652 -3.6225 21.0493 -3.12012 20.0872C-3.06529 20.1348 -2.99726 20.1648 -2.92495 20.1734C-2.86712 20.1734 -2.81652 20.1016 -2.88158 20.0728C-2.94663 20.0441 -2.95748 19.9005 -2.92134 19.7139C-2.66834 19.2831 -2.36836 18.881 -2.12982 18.443L-2.05753 18.2995C-2.09006 18.4 -2.1262 18.4933 -2.15511 18.5938C-2.50875 19.9023 -2.71245 21.2462 -2.76231 22.6001C-2.76845 22.8326 -2.76 23.0652 -2.73701 23.2966C-2.94956 23.7888 -3.19092 24.2683 -3.45986 24.7325C-4.18271 25.9423 -4.46462 27.3388 -5.07904 28.5988C-6.27536 31.0435 -7.60901 34.0949 -7.3018 36.8771C-7.3018 36.9309 -7.20421 36.956 -7.19337 36.8771C-6.98013 35.3406 -6.83195 33.8616 -6.37655 32.3718C-5.9039 30.9838 -5.33882 29.6287 -4.68508 28.3152C-4.15379 27.1736 -3.91525 25.9208 -3.2683 24.8258C-3.05601 24.4646 -2.86416 24.0919 -2.69364 23.7094C-2.64666 24.1079 -2.58882 24.4992 -2.55268 24.8976C-2.72616 25.4541 -2.84544 26.0356 -3.00085 26.5992C-3.48516 28.3332 -4.18993 30.0096 -4.71038 31.7364C-5.23083 33.4631 -5.679 35.3262 -6.08018 37.1427C-6.30427 38.1551 -6.55003 39.1782 -6.69822 40.2121C-7.2006 39.2966 -7.70659 38.3812 -7.85838 37.3509ZM-5.54527 46.541C-5.7549 45.5466 -5.4766 44.4481 -5.54527 43.4071C-5.38263 42.2332 -5.21277 41.0593 -5.00675 39.8926C-4.7899 38.6684 -4.48991 37.4622 -4.18993 36.256C-3.85748 37.1043 -3.67293 38.0027 -3.64419 38.9125C-3.66226 39.8064 -3.78876 40.6859 -3.75623 41.5654V41.6983C-3.93888 44.0305 -3.87711 46.3754 -3.5719 48.6949C-4.47546 48.2318 -5.32842 47.5605 -5.55973 46.541H-5.54527ZM-3.29721 48.8314C-3.29721 47.7975 -3.45624 46.7313 -3.4707 45.701C-3.4707 44.8143 -3.50684 43.924 -3.49239 43.0373C-3.19755 43.9877 -2.63886 44.8363 -1.88044 45.4856C-1.88044 46.4728 -1.88044 47.4636 -1.88044 48.4508C-1.88044 48.7775 -1.88044 49.1114 -1.88044 49.4416C-2.3033 49.2693 -2.72617 49.0826 -3.13458 48.9067L-3.29721 48.8314ZM0.396541 50.4109C0.394764 50.3966 0.394764 50.3821 0.396541 50.3678C0.331484 49.2909 0.349557 48.1959 0.364014 47.1118C0.515812 47.2159 0.667606 47.3236 0.823018 47.4385C0.852668 47.4603 0.887574 47.4739 0.924216 47.478C0.985659 47.5426 1.03987 47.5964 1.08324 47.6359C1.44467 47.9447 1.84223 48.2139 2.23257 48.4903C2.23257 49.5134 2.2651 50.5437 2.34823 51.5668C1.74055 51.1142 1.08635 50.7267 0.396541 50.4109ZM4.86012 53.6238C4.20986 52.9868 3.5075 52.4044 2.76025 51.8828C2.70965 51.3981 2.66267 50.9171 2.63376 50.4468C2.60484 49.8796 2.58677 49.316 2.57231 48.7524C2.78555 48.9067 2.99517 49.0683 3.19034 49.2406C3.8915 49.8616 4.52038 50.5617 5.20348 51.1935C5.27938 52.2166 5.36973 53.2397 5.48177 54.2521C5.28299 54.051 5.07336 53.8644 4.86012 53.6238ZM5.80706 54.5249C5.73477 53.8823 5.68417 53.2397 5.63357 52.5971C5.60466 52.2202 5.56852 51.8469 5.53237 51.4735C5.83091 51.7358 6.14863 51.9758 6.48292 52.1915C6.77809 52.3736 7.0861 52.5344 7.40455 52.6725C7.49661 53.3978 7.54729 54.1278 7.55635 54.8588C7.55635 55.1854 7.53105 55.5085 7.53105 55.8316L7.03228 55.4726C6.57327 55.1388 6.18294 54.8444 5.80706 54.5249ZM7.84187 56.1152C7.8238 55.6126 7.8744 55.0813 7.84187 54.5716C7.8238 53.9972 7.76959 53.4085 7.71538 52.8377C7.94669 52.9418 8.17438 53.0387 8.39846 53.1572C8.68763 53.3352 8.96307 53.5344 9.22251 53.7531C9.22251 54.848 9.35263 56.0183 9.43214 57.0953C8.88548 56.7959 8.35468 56.4688 7.84187 56.1152ZM14.1234 59.224C14.0999 59.0793 14.089 58.9327 14.0909 58.7861C14.1122 58.2502 14.077 57.7136 13.9861 57.185C13.9126 56.748 13.8679 56.3067 13.8524 55.8639C14.062 55.9321 14.2716 56.0003 14.4704 56.0793C14.8065 56.2157 15.1571 56.3198 15.5077 56.4383C15.5077 56.546 15.5077 56.6573 15.5077 56.765C15.5655 57.8204 15.6703 58.8471 15.6884 59.8918C15.1752 59.6548 14.6475 59.4359 14.1234 59.224ZM17.7377 60.8539C17.7377 60.4697 17.763 60.0856 17.763 59.7015C17.763 58.9835 17.763 58.2656 17.763 57.5476C18.0702 57.8384 18.3449 58.1758 18.699 58.5635C18.7569 58.6281 18.8183 58.6892 18.8798 58.7502C18.8798 59.6907 18.8798 60.6313 18.9051 61.5718C18.7171 61.4462 18.5436 61.3241 18.3412 61.2128C18.1388 61.1016 17.9328 60.9651 17.7196 60.8539H17.7377ZM19.1834 61.7477C19.1834 61.5862 19.1834 61.4211 19.1834 61.2559C19.1834 60.5128 19.205 59.7733 19.2087 59.0338C19.6908 59.4326 20.2369 59.7481 20.8242 59.9672C20.8784 60.5858 20.8784 61.208 20.8242 61.8267C20.821 62.2045 20.8415 62.5822 20.8857 62.9575L20.7303 62.8462C20.2098 62.5016 19.6894 62.1211 19.1617 61.7621L19.1834 61.7477ZM21.1603 63.1298C21.132 62.8915 21.1163 62.6518 21.1134 62.4119C21.1796 61.6359 21.1953 60.8564 21.1603 60.0784L21.2652 60.1143C21.3107 60.4956 21.3349 60.8791 21.3375 61.2631C21.3375 61.9236 21.1676 62.5662 21.435 63.1945L21.3013 63.2232L21.1603 63.1298ZM21.6953 63.1478C21.2507 63.015 21.5941 61.1123 21.5651 60.7426C21.5651 60.5523 21.5326 60.3656 21.5109 60.179C22.1472 60.3406 22.8024 60.4166 23.459 60.4051C23.5277 60.879 23.5963 61.3528 23.6469 61.8411C23.6903 62.218 23.7192 62.5949 23.7554 62.9719C23.2579 62.9583 22.7601 62.9823 22.2663 63.0437C22.0669 63.0669 21.8689 63.1016 21.6736 63.1478H21.6953ZM25.8444 61.999C25.7541 62.358 25.548 62.717 25.4504 63.076C24.9445 63.015 24.4385 62.9683 23.9325 62.9467C23.9108 62.5196 23.9036 62.0888 23.8674 61.658C23.8313 61.2272 23.7807 60.8072 23.7228 60.3836C24.1864 60.3632 24.6485 60.3177 25.1071 60.2472C25.1541 59.9743 25.2155 59.7087 25.2806 59.4394C24.7237 59.5166 24.1622 59.5562 23.6 59.5579C23.5421 59.1738 23.4843 58.7897 23.4337 58.4056C23.3433 57.7558 23.2855 57.0917 23.2349 56.4275C23.943 56.4964 24.6569 56.4771 25.3601 56.3701C25.4787 57.5423 25.6682 58.7063 25.9275 59.8559C25.9311 59.8772 25.9429 59.8963 25.9605 59.909C25.9781 59.9218 26 59.9272 26.0215 59.9241C25.9962 59.9815 25.9745 60.0425 25.9492 60.0964L26.1299 60.0641C26.007 60.7103 25.9745 61.4031 25.8227 61.999H25.8444ZM30.3188 51.8074C30.1779 51.1073 29.2779 51.1468 28.9274 51.6279C28.3381 52.4492 27.8594 53.3435 27.5033 54.288C27.3805 54.9521 27.225 55.6126 27.0732 56.2516C26.8346 57.4296 26.5134 58.5896 26.1119 59.723C25.9528 58.5994 25.7324 57.483 25.5697 56.3557C25.7757 56.327 25.9781 56.2911 26.1841 56.2516C26.242 56.0183 26.2962 55.7849 26.3504 55.5337C26.0576 55.5839 25.7649 55.6306 25.4721 55.6629C25.3494 54.6858 25.084 53.7316 24.6842 52.8305C24.6192 52.6905 24.4096 52.8125 24.4746 52.9525C24.8606 53.823 25.1234 54.7424 25.2553 55.6844C24.5634 55.7598 23.8653 55.7598 23.1735 55.6844C23.106 54.33 22.8915 52.9868 22.5338 51.6781C22.4868 51.5238 22.241 51.5884 22.288 51.7427C22.6302 53.0228 22.8314 54.3361 22.888 55.6593L22.7036 55.6306C22.1138 55.527 21.5567 55.2872 21.0772 54.9306C21.0772 54.0044 20.8423 53.1356 20.7953 52.2022C20.7953 52.0874 20.6074 52.0874 20.6146 52.2022C20.6471 53.0638 20.8098 53.8967 20.8459 54.7511C20.3886 54.3622 19.9688 53.932 19.5918 53.4659C19.4048 53.2474 19.1966 53.0478 18.9701 52.87C18.9484 52.59 18.9304 52.3135 18.9087 52.0371C18.8472 51.215 18.7605 50.3247 18.1605 49.7037C18.0232 49.5637 17.7991 49.7755 17.9473 49.9155C18.587 50.5832 18.6232 51.6781 18.6448 52.633C18.3211 52.4209 17.9843 52.229 17.6365 52.0587C17.5554 51.6244 17.5011 51.1856 17.4738 50.7448C17.4521 49.955 17.5353 49.1975 17.304 48.4867C17.5553 48.5558 17.8026 48.6385 18.0449 48.7344C18.5689 48.9426 19.1472 49.0647 19.6641 49.2801C20.3869 49.5924 20.6977 50.016 21.2254 50.6012C21.7524 51.1661 22.4267 51.5749 23.1735 51.7822C24.5107 52.1807 25.8263 51.9725 27.1491 51.6925C27.1708 51.6027 27.1925 51.5094 27.2178 51.4197C27.235 51.3634 27.2717 51.3151 27.3215 51.2833C27.3713 51.2515 27.4308 51.2383 27.4894 51.246C27.5481 51.2538 27.602 51.282 27.6417 51.3257C27.6813 51.3693 27.704 51.4255 27.7057 51.4843C27.7057 51.513 27.7057 51.5417 27.7057 51.5704C28.6189 51.3368 29.5539 51.1973 30.4959 51.154C31.5152 51.154 32.7259 51.2653 33.7054 50.9207C34.6848 50.576 35.6498 49.797 36.5534 49.2657C37.457 48.7344 38.3063 47.9985 39.2496 47.4241C40.1929 46.8497 41.2338 46.3005 41.9856 45.4138C42.6904 44.5845 43.041 43.583 43.5686 42.6496C43.8486 42.1637 44.1613 41.6971 44.5047 41.2531C45.3758 41.7701 46.254 42.2834 47.1359 42.786C46.7335 43.2982 46.3552 43.8223 46.001 44.3584C45.9504 44.0209 45.9071 43.6871 45.8745 43.3496C45.8745 43.2096 45.6432 43.206 45.6577 43.3496C45.6902 43.784 45.7516 44.2148 45.8167 44.6456C45.5709 45.0297 45.336 45.4174 45.1228 45.8087C44.8576 46.3103 44.553 46.7905 44.212 47.2446C44.0989 46.7095 43.9306 46.1874 43.7096 45.6866C43.6409 45.5323 43.4169 45.6651 43.4855 45.8195C43.7176 46.3621 43.8908 46.9277 44.0024 47.5067C43.5053 48.1128 42.9164 48.6384 42.2567 49.0647C41.0857 49.815 39.7592 50.2888 38.6641 51.1612C37.7968 51.8048 36.8969 52.4039 35.9679 52.9561C35.8872 52.6367 35.8245 52.3132 35.78 51.9869C35.7583 51.8181 35.4908 51.8145 35.5125 51.9869C35.5635 52.3633 35.6383 52.7362 35.7366 53.1033L35.5848 53.2002C35.1007 53.5792 34.5885 53.9213 34.0523 54.2234C33.2681 54.5823 32.0934 54.7152 31.2152 54.7798L30.9188 54.7977C30.7019 53.8105 30.5032 52.8161 30.2971 51.8074H30.3188ZM31.9055 58.4486C31.5874 57.465 31.3272 56.4814 31.0995 55.4942C31.9786 55.5384 32.8598 55.5107 33.7343 55.4116C33.9258 56.2803 34.0957 57.1491 34.2909 58.0179C33.5076 58.2518 32.7 58.3963 31.8838 58.4486H31.9055ZM32.903 63.0509C32.7723 62.6921 32.6708 62.3236 32.5994 61.9488C32.4512 61.0585 32.3609 60.1718 32.1476 59.2994C32.9468 59.3333 33.7474 59.2851 34.5367 59.1558C34.6632 59.7374 34.7933 60.3154 34.9306 60.8933C35.0173 61.2523 35.0896 61.6113 35.1655 61.9703C34.8908 62.0995 34.6234 62.236 34.3559 62.3831C33.883 62.6442 33.3899 62.8674 32.8813 63.0509H32.903ZM37.7461 60.9328C37.5907 60.0174 37.3305 59.1163 37.1534 58.2045C37.1534 58.1327 37.1281 58.0609 37.1136 57.9855C37.7533 57.5799 38.3786 57.1419 38.9822 56.7865C39.1051 56.7147 39.2171 56.6357 39.3436 56.5604C39.611 57.7199 39.8713 58.8794 40.1713 60.0282C39.3436 60.3585 38.534 60.6421 37.7244 60.9328H37.7461ZM40.4532 59.9097H40.4134C40.2363 59.3389 40.052 58.7681 39.9219 58.2189C39.7918 57.6696 39.6617 57.0199 39.5315 56.424C40.5255 55.7706 41.4362 55.0311 42.4555 54.3993C42.4988 54.7582 42.5386 55.1172 42.5711 55.4762C42.6651 56.5245 42.6434 57.5978 42.7048 58.6569C41.9169 59.041 41.1977 59.5759 40.4315 59.9097H40.4532ZM45.0216 56.8547C44.758 57.4678 44.2929 57.974 43.7024 58.2907C43.4796 58.3405 43.2619 58.4102 43.0518 58.4989C43.0308 57.3744 42.9524 56.2518 42.8169 55.1352C42.788 54.8336 42.7518 54.5321 42.7157 54.2305C43.4908 53.791 44.2424 53.3117 44.9674 52.7946C45.0216 53.0351 45.0722 53.2792 45.1119 53.5126C45.2109 54.4665 45.2459 55.4259 45.2167 56.3845C45.1396 56.54 45.0674 56.6968 44.9999 56.8547H45.0216ZM45.4481 55.8388C45.5131 55.1582 45.5131 54.4731 45.4481 53.7926C45.3959 53.3929 45.3223 52.9962 45.2276 52.6043C45.5706 52.3272 45.8886 52.0209 46.1781 51.6889C46.2721 51.574 46.3624 51.4591 46.4492 51.3299C46.4998 52.1879 46.5576 53.0459 46.6444 53.9003C46.5251 54.0367 46.4058 54.1695 46.2829 54.3131C45.9332 54.7834 45.6454 55.2961 45.4264 55.8388H45.4481ZM46.9118 53.5987C46.8793 53.3761 46.854 53.1572 46.8395 52.9418C46.807 52.2848 46.7528 51.6279 46.6986 50.9745C47.3058 50.0411 47.7178 49.0073 48.2708 48.0272C48.3611 47.8657 48.4587 47.7077 48.5563 47.5462C48.5924 47.9052 48.625 48.2642 48.6611 48.6231C48.7485 49.6558 48.7799 50.6924 48.7551 51.7284C48.7551 51.7679 48.7551 51.8074 48.7551 51.8469L48.578 52.0012C47.9889 52.5038 47.4142 53.0315 46.8901 53.5987H46.9118ZM49.037 51.5489C49.0486 50.3051 48.9822 49.0618 48.8382 47.8262C48.8129 47.6108 48.8057 47.399 48.7876 47.1836C49.298 46.4292 49.8493 45.7029 50.4393 45.0081C50.4682 45.5682 50.4899 46.1318 50.5441 46.6882C50.6345 47.6682 50.6851 48.6339 50.6779 49.6211C50.6779 49.8293 50.6526 50.0376 50.6417 50.2458C50.1368 50.724 49.5928 51.1599 49.0153 51.5489H49.037ZM51.061 49.9119C51.0421 48.659 50.9564 47.408 50.8044 46.1641C50.7574 45.6687 50.7357 45.1769 50.7068 44.6922C50.9598 44.3907 51.2128 44.0963 51.4622 43.8127C51.8236 43.3963 52.185 43.0086 52.5789 42.6424C52.6123 42.9548 52.6255 43.2689 52.6187 43.583C52.5934 44.3404 52.5067 45.0943 52.4452 45.8482C52.3565 46.8088 52.3275 47.7739 52.3585 48.738C51.9248 49.1473 51.4874 49.535 51.0393 49.9155L51.061 49.9119ZM65.4637 36.9022C64.5096 38.9592 62.529 39.2572 60.7652 40.388C60.1999 40.8148 59.6781 41.2958 59.2075 41.8239C58.4763 42.5187 57.6174 43.0672 56.6775 43.4394C56.4529 43.5334 56.2406 43.6539 56.045 43.7983C56.1504 42.955 56.1637 42.1029 56.0848 41.2567C56.083 41.2201 56.0676 41.1855 56.0415 41.1597C56.0155 41.1338 55.9806 41.1185 55.9438 41.1167C55.7964 41.0904 55.6451 41.094 55.4992 41.1273C55.3532 41.1607 55.2155 41.223 55.0945 41.3106C55.0623 41.3296 55.0392 41.3605 55.03 41.3966C55.0209 41.4326 55.0265 41.4707 55.0457 41.5026C55.0648 41.5345 55.096 41.5575 55.1322 41.5666C55.1685 41.5757 55.2069 41.5701 55.239 41.5511C56.0956 41.0234 55.8932 42.6065 55.8824 42.944C55.8715 43.2814 55.8354 43.6619 55.7992 43.9958C54.6571 44.9974 54.0789 46.6954 53.1645 47.8477C53.0127 48.0344 52.8572 48.2067 52.6946 48.3898C52.7199 47.4313 52.6946 46.462 52.7813 45.5179C52.8822 44.4881 52.8931 43.4515 52.8139 42.4198C53.596 41.6992 54.461 41.0726 55.3908 40.5531C56.8165 39.7925 58.1786 38.9197 59.4641 37.9433C61.5314 36.3027 63.6458 33.2764 62.5037 30.5876C61.7447 28.7927 60.776 27.1485 60.1869 25.2818C59.4315 22.8909 60.1255 20.8088 60.4508 18.461C60.4611 18.3905 60.4543 18.3185 60.4311 18.2511C60.4078 18.1837 60.3687 18.1227 60.317 18.0733C60.6391 17.1884 60.8326 16.2625 60.8917 15.3235C60.8917 14.3578 61.1086 13.1121 60.8303 12.1967C60.552 11.2812 59.5544 10.1935 58.9075 9.43246C58.846 9.36425 58.781 9.30322 58.7159 9.23861C58.9472 9.09142 59.1786 8.94065 59.4135 8.80064C59.8472 8.53858 60.4074 8.31242 60.9098 8.02882C61.1483 8.25139 61.3905 8.46678 61.6326 8.68217C62.278 9.25968 62.8706 9.89277 63.4036 10.574C63.7292 10.8894 64.02 11.2384 64.271 11.6151C64.7409 12.5485 64.4047 13.0331 63.9602 13.8516C63.1002 15.4299 62.7364 17.2281 62.9157 19.0138C63.0747 21.0601 63.0783 23.2714 63.5048 25.2818C63.7313 26.2051 64.0348 27.108 64.412 27.9813C64.5818 28.4014 64.824 28.8214 64.9758 29.245C65.1281 29.7658 65.2238 30.3014 65.2613 30.8425C65.5577 32.9138 66.389 34.838 65.442 36.9022H65.4637Z" fill="#3E3E3E"/>
<path d="M33.5828 3.03881C33.5828 2.8306 33.5575 2.61879 33.5503 2.41058C33.5493 2.35349 33.5326 2.29775 33.502 2.24943C33.4714 2.20112 33.428 2.16207 33.3765 2.13653C33.3251 2.111 33.2676 2.09995 33.2104 2.10459C33.1531 2.10924 33.0981 2.1294 33.0516 2.16288C32.8043 1.74047 32.5136 1.34467 32.1841 0.981813C30.9987 -0.289003 30.2975 -0.292597 28.6711 0.349991C28.4697 0.432166 28.2771 0.534403 28.0964 0.655133C28.1326 0.820267 28.1723 0.985403 28.2085 1.15054C28.689 0.859957 29.2197 0.660341 29.7734 0.561798C30.7132 0.457692 31.4866 1.00694 32.0504 1.74286C32.3702 2.20276 32.6473 2.6906 32.8781 3.20035C32.8203 4.39937 32.7335 5.59839 32.6648 6.79023C31.9095 6.76869 31.1469 6.72562 30.7421 6.05431C30.3373 5.383 30.5613 4.68298 29.871 4.16962C29.5461 3.93341 29.1532 3.80752 28.7506 3.81064C28.8446 4.32399 28.9313 4.83375 29.0108 5.3471C29.1251 5.44353 29.226 5.55459 29.3108 5.67737C29.4156 5.95866 29.5061 6.24501 29.5819 6.53535C30.2288 7.89591 31.389 7.41487 32.6287 7.56923C32.6287 7.87078 32.5998 8.17234 32.5889 8.47748C32.5636 9.36059 32.495 10.2904 32.4986 11.213C31.5986 10.2724 31.2264 9.19904 29.7915 8.99083C29.6614 8.99083 29.5457 8.94416 29.4301 8.91903C29.4554 9.27802 29.4771 9.637 29.4951 9.99599C29.6651 9.96895 29.8384 9.96895 30.0084 9.99599C31.136 10.2473 31.7143 11.5755 32.5636 12.3509C32.6106 12.8999 32.7197 13.4418 32.8889 13.9664C32.9108 14.041 32.9565 14.1065 33.019 14.1531C33.0816 14.1997 33.1577 14.2249 33.2359 14.2249C33.3141 14.2249 33.3902 14.1997 33.4527 14.1531C33.5153 14.1065 33.561 14.041 33.5828 13.9664C33.6118 13.8874 33.6298 13.8048 33.6551 13.7223C33.5033 11.9955 33.6804 10.2437 33.7636 8.51696C33.7925 7.94258 33.7961 7.35384 33.8033 6.76151C33.7563 5.94661 33.7021 5.13171 33.6551 4.31681C33.7268 4.38843 33.8028 4.45557 33.8828 4.51784C33.9081 4.18757 33.9407 3.86089 33.9913 3.5378C33.865 3.41579 33.7534 3.27966 33.6588 3.13215C33.6298 3.11779 33.6045 3.0783 33.5828 3.03881Z" fill="#3E3E3E"/>
<path d="M26.1989 35.5557C27.7638 35.3833 28.7108 33.4017 29.2565 32.1596C29.8023 30.9175 30.4565 29.6216 31.7504 28.9503C32.6142 28.5015 33.478 28.6308 34.3671 28.3651C35.426 28.0528 36.1127 26.6456 36.0043 25.5255C35.8706 24.1542 34.2333 23.4506 33.1129 23.0557C31.5808 22.5822 30.154 21.8218 28.9096 20.8156C28.1867 20.2125 27.6916 19.7781 26.7988 19.5197C26.3254 19.3797 25.0929 18.8304 24.493 19.1607C24.0629 19.3868 23.9689 19.9253 23.7882 20.3884C22.6822 21.2141 22.6027 22.0182 22.5883 23.5044C22.601 24.0988 22.518 24.6915 22.3425 25.2599C21.9449 26.4804 20.8064 27.1912 20.3727 28.3185C19.7655 29.8872 21.2763 31.876 22.1545 33.0284C23.1485 34.31 24.3159 35.7423 26.1989 35.5557ZM23.1196 25.346C23.3834 23.7629 22.5124 22.3054 23.3906 21.0382C23.3934 21.0621 23.4019 21.085 23.4154 21.105C23.4289 21.1249 23.447 21.1414 23.4683 21.153C23.4895 21.1646 23.5132 21.171 23.5374 21.1716C23.5616 21.1723 23.5857 21.1671 23.6075 21.1567C24.1424 20.8731 24.3484 20.2807 24.8544 20.0438C25.3604 19.8069 26.4085 20.2484 27.0229 20.4853C28.0313 20.8766 28.5626 21.5623 29.43 22.1582C30.0974 22.574 30.8029 22.9262 31.5371 23.2101C32.513 23.6301 33.9803 23.8957 34.6345 24.8004C35.3935 25.8558 34.7755 26.9364 33.7201 27.4174C33.3226 27.5969 32.9394 27.5646 32.5599 27.7441C32.0159 28.0452 31.5079 28.4065 31.0456 28.821C30.4381 29.2887 29.8885 29.8261 29.4083 30.4221C28.9602 31.0468 28.9674 31.7863 28.624 32.4648C27.7675 34.1592 25.7724 35.5305 24.0448 34.1628C23.2099 33.5022 22.5593 32.2601 22.0317 31.3268C20.6257 28.8175 22.7437 27.6077 23.1196 25.3281V25.346Z" fill="#3E3E3E"/>
<path d="M24.2215 31.9664C24.6309 32.2719 25.1407 32.4141 25.6505 32.3649C26.1602 32.3158 26.6329 32.0788 26.9755 31.7007C27.4707 31.191 27.7634 30.4766 28.1501 29.8878C28.7465 28.9832 29.5019 28.3442 30.203 27.5401C30.9042 26.7359 31.1789 25.8887 30.6548 24.9374C30.1741 24.0686 28.9344 23.3758 28.067 22.9594C27.0948 22.4891 26.1876 22.1983 25.3708 22.8409C25.4214 22.7978 25.3708 22.7117 25.313 22.7512C24.4022 23.3578 23.9359 24.0327 24.1311 25.142C24.3552 26.4021 24.5142 27.0016 23.9902 28.1001C23.7929 28.4509 23.6515 28.8299 23.5709 29.2237C23.3071 30.3581 23.1806 31.3058 24.2215 31.9664ZM25.06 28.0606C25.5443 26.5528 23.9359 24.3774 25.0961 23.0994C25.0419 23.1712 25.1214 23.2896 25.2045 23.2322C26.831 22.1552 30.3837 24.5102 30.2645 26.2082C30.1958 27.1021 29.2308 27.6801 28.7212 28.3083C28.2116 28.9365 27.8755 29.7083 27.402 30.3796C26.4551 31.7115 24.5106 32.2966 24.2757 30.1607C24.1745 29.3278 24.8395 28.757 25.06 28.0749V28.0606Z" fill="#3E3E3E"/>
<path d="M26.1553 28.7746C26.2468 28.9646 26.4101 29.1111 26.6097 29.1823C26.8093 29.2536 27.0291 29.2438 27.2215 29.1551C28.0274 28.8249 28.3057 27.6976 28.4828 26.9581C28.4856 26.9421 28.4828 26.9256 28.4749 26.9114C28.4671 26.8971 28.4545 26.8859 28.4394 26.8797C28.4243 26.8734 28.4075 26.8724 28.3917 26.8769C28.376 26.8814 28.3622 26.891 28.3527 26.9043C28.0672 27.3064 27.9588 27.7551 27.7166 28.1751C27.5793 28.4084 27.2648 28.9146 26.9432 28.8931C26.2492 28.8572 26.5311 28.2433 26.607 27.9418C26.7249 27.5886 26.7847 27.2189 26.7841 26.8468C26.7621 26.6569 26.7222 26.4694 26.6649 26.2868L26.5564 25.9278C26.519 25.7923 26.5202 25.6491 26.5597 25.5141C26.5993 25.3791 26.6757 25.2577 26.7805 25.1632C26.7907 25.1952 26.8082 25.2245 26.8316 25.2487C26.855 25.273 26.8838 25.2915 26.9155 25.303C26.9473 25.3145 26.9814 25.3185 27.015 25.3148C27.0486 25.3111 27.0809 25.2998 27.1094 25.2817C27.2296 25.1958 27.3676 25.1377 27.5133 25.1117C27.659 25.0856 27.8087 25.0921 27.9515 25.1309C28.4322 25.2135 28.3419 25.8489 28.3419 26.2294C28.3419 26.2484 28.3495 26.2667 28.363 26.2802C28.3766 26.2936 28.395 26.3012 28.4142 26.3012C28.4333 26.3012 28.4517 26.2936 28.4653 26.2802C28.4788 26.2667 28.4864 26.2484 28.4864 26.2294C28.5601 25.9036 28.5539 25.5651 28.4684 25.2422C28.378 25.0376 28.1648 24.9227 27.9985 24.7863C27.7994 24.6056 27.5447 24.4968 27.2757 24.4775C27.165 24.4774 27.0572 24.5121 26.9676 24.5766C26.878 24.6411 26.8112 24.7321 26.7769 24.8365C26.5849 24.9289 26.4221 25.0718 26.3062 25.2496C26.1902 25.4275 26.1255 25.6335 26.1191 25.8453C26.154 26.0803 26.2084 26.312 26.2818 26.5381C26.348 26.9745 26.3134 27.4201 26.1806 27.8412C26.0677 28.1409 26.0588 28.4694 26.1553 28.7746Z" fill="#3E3E3E"/>
</g>
<mask id="path-7-inside-1_712_277" fill="white">
<path fill-rule="evenodd" clip-rule="evenodd" d="M1 0V51H52.3462V24.4494H52.3463V15.0932H49.4617V12.2247H46.5771V9.3562H43.6925V6.48768H40.8079L40.8078 0H37.6346H35.2308H35.0386H1Z"/>
</mask>
<path d="M1 51H-2V54H1V51ZM1 0V-3H-2V0H1ZM52.3462 51V54H55.3462V51H52.3462ZM52.3462 24.4494V21.4494H49.3462V24.4494H52.3462ZM52.3463 24.4494V27.4494H55.3463V24.4494H52.3463ZM52.3463 15.0932H55.3463V12.0932H52.3463V15.0932ZM49.4617 15.0932H46.4617V18.0932H49.4617V15.0932ZM49.4617 12.2247H52.4617V9.22472H49.4617V12.2247ZM46.5771 12.2247H43.5771V15.2247H46.5771V12.2247ZM46.5771 9.3562H49.5771V6.3562H46.5771V9.3562ZM43.6925 9.3562H40.6925V12.3562H43.6925V9.3562ZM43.6925 6.48768H46.6925V3.48768H43.6925V6.48768ZM40.8079 6.48768L37.8079 6.48773L37.8079 9.48768H40.8079V6.48768ZM40.8078 0L43.8078 -4.93912e-05L43.8077 -3H40.8078V0ZM4 51V0H-2V51H4ZM52.3462 48H1V54H52.3462V48ZM49.3462 24.4494V51H55.3462V24.4494H49.3462ZM52.3462 27.4494H52.3463V21.4494H52.3462V27.4494ZM55.3463 24.4494V15.0932H49.3463V24.4494H55.3463ZM52.3463 12.0932H49.4617V18.0932H52.3463V12.0932ZM52.4617 15.0932V12.2247H46.4617V15.0932H52.4617ZM49.4617 9.22472H46.5771V15.2247H49.4617V9.22472ZM49.5771 12.2247V9.3562H43.5771V12.2247H49.5771ZM46.5771 6.3562H43.6925V12.3562H46.5771V6.3562ZM46.6925 9.3562V6.48768H40.6925V9.3562H46.6925ZM43.6925 3.48768H40.8079V9.48768H43.6925V3.48768ZM43.8079 6.48763L43.8078 -4.93912e-05L37.8078 4.93912e-05L37.8079 6.48773L43.8079 6.48763ZM40.8078 -3H37.6346V3H40.8078V-3ZM37.6346 -3H35.2308V3H37.6346V-3ZM35.2308 -3H35.0386V3H35.2308V-3ZM1 3H35.0386V-3H1V3Z" fill="#3E3E3E" mask="url(#path-7-inside-1_712_277)"/>
<rect x="49.4614" y="7.83154" width="2.88461" height="2.86517" fill="#3E3E3E"/>
<rect x="44.4614" y="3.82031" width="2.88462" height="2.86517" fill="#3E3E3E"/>
<rect x="49.4614" width="2.88461" height="2.86517" fill="#3E3E3E"/>
<path fill-rule="evenodd" clip-rule="evenodd" d="M61.054 10.2788V2.9368H63.9925V10.2788H61.054ZM61.054 23.4944V13.2156H65.4618V11.7472H66.9311V1.4684H65.4618V0H58.1155V23.4944H61.054ZM81.9176 23.4944V20.5576H78.979V2.9368H81.9176V0H73.102V2.9368H76.0405V20.5576H73.102V23.4944H81.9176ZM91.0271 23.4944V13.2156H88.0885V23.4944H91.0271ZM96.9041 23.4944V13.2156H95.4349V11.7472H93.9656V10.2788H92.4963V8.81039H91.0271V0H88.0885V10.2788H89.5578V11.7472H91.0271V13.2156H92.4963V14.684H93.9656V23.4944H96.9041ZM96.9041 10.2788V0H93.9656V10.2788H96.9041ZM111.891 23.4944V20.5576H106.014V13.2156H110.421V10.2788H106.014V2.9368H111.891V0H103.075V23.4944H111.891ZM121 23.4944V0H118.062V23.4944H121Z" fill="#3E3E3E"/>
<path fill-rule="evenodd" clip-rule="evenodd" d="M65.8599 50.9998V49.4598H67.4088V50.9998H72.0554V49.4598H73.6043V26.3594H70.5065V47.9198H67.4088V26.3594H64.311V47.9198H61.2132V26.3594H58.1155V49.4598H59.6644V50.9998H65.8599ZM83.2074 47.9198V29.4394H86.3051V47.9198H83.2074ZM87.854 50.9998V49.4598H89.4029V27.8994H87.854V26.3594H81.6585V27.8994H80.1096V49.4598H81.6585V50.9998H87.854ZM99.006 47.9198V29.4394H102.104V47.9198H99.006ZM103.653 50.9998V49.4598H105.202V27.8994H103.653V26.3594H97.4571V27.8994H95.9082V49.4598H97.4571V50.9998H103.653ZM114.805 47.9198V29.4394H117.902V47.9198H114.805ZM119.451 50.9998V49.4598H121V27.8994H119.451V26.3594H111.707V50.9998H119.451Z" fill="#3E3E3E"/>
</svg>
