<svg width="55" height="55" viewBox="0 0 55 55" fill="none" xmlns="http://www.w3.org/2000/svg">
<path d="M36.8174 19.5056L24.5684 30.8912C24.138 31.2913 23.8599 31.8284 23.7813 32.4107L23.3645 35.5024C23.3089 35.9149 22.7285 35.9564 22.6147 35.5561L21.01 29.9182C20.8269 29.2748 21.0939 28.5878 21.6635 28.2369L36.5053 19.0953C36.7716 18.9315 37.0465 19.2925 36.8174 19.5056ZM55 0V55H0V0H55ZM42.7606 13.2138L11.5942 25.2368C10.8258 25.5333 10.8317 26.6225 11.6032 26.9106L19.1971 29.7453L22.1367 39.1983C22.3251 39.8037 23.0657 40.027 23.5571 39.6262L27.7902 36.1753C28.234 35.8136 28.8654 35.7959 29.3287 36.1322L36.9643 41.6758C37.4899 42.0575 38.2344 41.7696 38.3665 41.1337L43.9591 14.2308C44.1034 13.537 43.4219 12.9586 42.7606 13.2138Z" fill="#3E3E3E"/>
</svg>
